# Blender v2.82 (sub 7) OBJ File: 'InitialFile.blend'
# www.blender.org
mtllib body_l_distal_pinvround_collision.mtl
o body_l_distal_pinvround_collision_Cube.001
v -0.016000 0.020000 0.011000
v -0.016000 0.044500 0.011000
v -0.016000 0.020000 -0.011000
v -0.016000 0.044500 -0.011000
v 0.016000 0.020000 0.011000
v 0.016000 0.044500 0.011000
v 0.016000 0.020000 -0.011000
v 0.016000 0.044500 -0.011000
v -0.016000 0.044500 0.011000
v 0.016000 0.044500 0.011000
v -0.016000 0.044500 -0.011000
v -0.016000 0.050938 0.010789
v 0.016000 0.050938 0.010789
v -0.016000 0.057129 0.010163
v -0.016000 0.062834 0.009146
v -0.016000 0.067835 0.007778
v -0.016000 0.071939 0.006111
v -0.016000 0.074988 0.004210
v -0.016000 0.076866 0.002146
v -0.016000 0.077500 -0.000000
v 0.016000 0.077500 -0.000000
v -0.016000 0.076866 -0.002146
v 0.016000 0.076866 -0.002146
v -0.016000 0.074988 -0.004210
v -0.016000 0.071938 -0.006111
v -0.016000 0.067834 -0.007778
v -0.016000 0.062834 -0.009146
v 0.016000 0.062834 -0.009146
v -0.016000 0.057129 -0.010163
v -0.016000 0.050938 -0.010789
v 0.016000 0.044500 -0.011000
v 0.016000 0.057129 0.010163
v 0.016000 0.050938 -0.010789
v 0.016000 0.057129 -0.010163
v 0.016000 0.067834 -0.007778
v 0.016000 0.071938 -0.006111
v 0.016000 0.074988 -0.004210
v 0.016000 0.076866 0.002146
v 0.016000 0.074988 0.004210
v 0.016000 0.071939 0.006111
v 0.016000 0.067835 0.007778
v 0.016000 0.062834 0.009146
vt 0.625000 0.000000
vt 0.375000 0.250000
vt 0.375000 0.000000
vt 0.625000 0.250000
vt 0.375000 0.500000
vt 0.625000 0.500000
vt 0.375000 0.750000
vt 0.625000 0.750000
vt 0.375000 1.000000
vt 0.125000 0.750000
vt 0.125000 0.500000
vt 0.875000 0.500000
vt 0.625000 1.000000
vt 0.875000 0.750000
vt 0.062500 0.500000
vt 0.031250 0.500000
vt 0.437500 0.500000
vt 0.500000 0.500000
vt 0.468750 1.000000
vt 0.468750 0.500000
vt 0.437500 1.000000
vt 0.406250 0.500000
vt 0.406250 1.000000
vt 0.375000 0.500000
vt 0.375000 1.000000
vt 0.343750 0.500000
vt 0.343750 1.000000
vt 0.312500 0.500000
vt 0.312500 1.000000
vt 0.281250 0.500000
vt 0.281250 1.000000
vt 0.250000 0.500000
vt 0.250000 1.000000
vt 0.218750 0.500000
vt 0.218750 1.000000
vt 0.187500 0.500000
vt 0.187500 1.000000
vt 0.156250 0.500000
vt 0.156250 1.000000
vt 0.125000 0.500000
vt 0.125000 1.000000
vt 0.093750 0.500000
vt 0.093750 1.000000
vt 0.062500 1.000000
vt 0.031250 1.000000
vt 0.000000 0.500000
vt 0.500000 1.000000
vt 0.000000 1.000000
vn -1.0000 0.0000 0.0000
vn 0.0000 0.0000 -1.0000
vn 1.0000 0.0000 0.0000
vn 0.0000 0.0000 1.0000
vn 0.0000 -1.0000 0.0000
vn 0.0000 1.0000 0.0000
vn 0.0000 0.0328 0.9995
vn 0.0000 0.1006 0.9949
vn 0.0000 0.1754 0.9845
vn 0.0000 0.2639 0.9646
vn 0.0000 0.3763 0.9265
vn 0.0000 0.5292 0.8485
vn 0.0000 0.7396 0.6731
vn 0.0000 0.9590 0.2834
vn 0.0000 0.9590 -0.2834
vn 0.0000 0.7396 -0.6731
vn 0.0000 0.5292 -0.8485
vn 0.0000 0.3763 -0.9265
vn 0.0000 0.2639 -0.9646
vn 0.0000 0.1754 -0.9845
vn 0.0000 0.1006 -0.9949
vn 0.0000 0.0328 -0.9995
usemtl mat.001
s off
f 2/1/1 3/2/1 1/3/1
f 4/4/2 7/5/2 3/2/2
f 8/6/3 5/7/3 7/5/3
f 6/8/4 1/9/4 5/7/4
f 7/5/5 1/10/5 3/11/5
f 4/12/6 6/8/6 8/6/6
f 2/1/1 4/4/1 3/2/1
f 4/4/2 8/6/2 7/5/2
f 8/6/3 6/8/3 5/7/3
f 6/8/4 2/13/4 1/9/4
f 7/5/5 5/7/5 1/10/5
f 4/12/6 2/14/6 6/8/6
usemtl Material.001
f 29/15/1 30/16/1 14/17/1
f 9/18/7 13/19/7 12/20/7
f 13/19/8 14/17/8 12/20/8
f 32/21/9 15/22/9 14/17/9
f 42/23/10 16/24/10 15/22/10
f 41/25/11 17/26/11 16/24/11
f 40/27/12 18/28/12 17/26/12
f 39/29/13 19/30/13 18/28/13
f 38/31/14 20/32/14 19/30/14
f 21/33/15 22/34/15 20/32/15
f 23/35/16 24/36/16 22/34/16
f 37/37/17 25/38/17 24/36/17
f 36/39/18 26/40/18 25/38/18
f 35/41/19 27/42/19 26/40/19
f 28/43/20 29/15/20 27/42/20
f 34/44/21 30/16/21 29/15/21
f 33/45/22 11/46/22 30/16/22
f 36/39/3 37/37/3 39/29/3
f 9/18/1 12/20/1 11/46/1
f 12/20/1 14/17/1 30/16/1
f 11/46/1 12/20/1 30/16/1
f 14/17/1 15/22/1 27/42/1
f 15/22/1 16/24/1 26/40/1
f 16/24/1 17/26/1 25/38/1
f 17/26/1 18/28/1 24/36/1
f 18/28/1 19/30/1 24/36/1
f 19/30/1 20/32/1 22/34/1
f 24/36/1 19/30/1 22/34/1
f 24/36/1 25/38/1 17/26/1
f 25/38/1 26/40/1 16/24/1
f 26/40/1 27/42/1 15/22/1
f 27/42/1 29/15/1 14/17/1
f 9/18/7 10/47/7 13/19/7
f 13/19/8 32/21/8 14/17/8
f 32/21/9 42/23/9 15/22/9
f 42/23/10 41/25/10 16/24/10
f 41/25/11 40/27/11 17/26/11
f 40/27/12 39/29/12 18/28/12
f 39/29/13 38/31/13 19/30/13
f 38/31/14 21/33/14 20/32/14
f 21/33/15 23/35/15 22/34/15
f 23/35/16 37/37/16 24/36/16
f 37/37/17 36/39/17 25/38/17
f 36/39/18 35/41/18 26/40/18
f 35/41/19 28/43/19 27/42/19
f 28/43/20 34/44/20 29/15/20
f 34/44/21 33/45/21 30/16/21
f 33/45/22 31/48/22 11/46/22
f 37/37/3 23/35/3 38/31/3
f 23/35/3 21/33/3 38/31/3
f 38/31/3 39/29/3 37/37/3
f 39/29/3 40/27/3 36/39/3
f 40/27/3 41/25/3 36/39/3
f 41/25/3 42/23/3 28/43/3
f 42/23/3 32/21/3 28/43/3
f 32/21/3 13/19/3 33/45/3
f 13/19/3 10/47/3 33/45/3
f 10/47/3 31/48/3 33/45/3
f 33/45/3 34/44/3 32/21/3
f 34/44/3 28/43/3 32/21/3
f 28/43/3 35/41/3 41/25/3
f 35/41/3 36/39/3 41/25/3
