# Blender v2.82 (sub 7) OBJ File: ''
# www.blender.org
mtllib finger1_segment0.mtl
o finger1_segment0
v -0.011000 0.005000 -0.016000
v -0.011000 0.005000 -0.015990
v -0.011000 0.005000 -0.015960
v -0.011000 0.005000 -0.015920
v -0.011000 0.005000 -0.015850
v -0.011000 0.005000 -0.015770
v -0.011000 0.005000 -0.015670
v -0.011000 0.005000 -0.015550
v -0.011000 0.005000 -0.015420
v -0.011000 0.005000 -0.015270
v -0.011000 0.005000 -0.015100
v -0.011000 0.005000 -0.014920
v -0.011000 0.005000 -0.014730
v -0.011000 0.005000 -0.014520
v -0.011000 0.005000 -0.014290
v -0.011000 0.005000 -0.014060
v -0.011000 0.005000 -0.013800
v -0.011000 0.005000 -0.013540
v -0.011000 0.005000 -0.013260
v -0.011000 0.005000 -0.012970
v -0.011000 0.005000 -0.012670
v -0.011000 0.005000 -0.012360
v -0.011000 0.005000 -0.012040
v -0.011000 0.005000 -0.011700
v -0.011000 0.005000 -0.011360
v -0.011000 0.005000 -0.011000
v -0.011000 0.005000 -0.010640
v -0.011000 0.005000 -0.010260
v -0.011000 0.005000 -0.009880
v -0.011000 0.005000 -0.009490
v -0.011000 0.005000 -0.009090
v -0.011000 0.005000 -0.008680
v -0.011000 0.005000 -0.008270
v -0.011000 0.005000 -0.007850
v -0.011000 0.005000 -0.007420
v -0.011000 0.005000 -0.006980
v -0.011000 0.005000 -0.006540
v -0.011000 0.005000 -0.006100
v -0.011000 0.005000 -0.005650
v -0.011000 0.005000 -0.005190
v -0.011000 0.005000 -0.004740
v -0.011000 0.005000 -0.004270
v -0.011000 0.005000 -0.003810
v -0.011000 0.005000 -0.003340
v -0.011000 0.005000 -0.002870
v -0.011000 0.005000 -0.002390
v -0.011000 0.005000 -0.001920
v -0.011000 0.005000 -0.001440
v -0.011000 0.005000 -0.000960
v -0.011000 0.005000 -0.000480
v -0.011000 0.005000 -0.000000
v -0.011000 0.005000 0.000480
v -0.011000 0.005000 0.000960
v -0.011000 0.005000 0.001440
v -0.011000 0.005000 0.001920
v -0.011000 0.005000 0.002390
v -0.011000 0.005000 0.002870
v -0.011000 0.005000 0.003340
v -0.011000 0.005000 0.003810
v -0.011000 0.005000 0.004270
v -0.011000 0.005000 0.004740
v -0.011000 0.005000 0.005190
v -0.011000 0.005000 0.005650
v -0.011000 0.005000 0.006100
v -0.011000 0.005000 0.006540
v -0.011000 0.005000 0.006980
v -0.011000 0.005000 0.007420
v -0.011000 0.005000 0.007850
v -0.011000 0.005000 0.008270
v -0.011000 0.005000 0.008680
v -0.011000 0.005000 0.009090
v -0.011000 0.005000 0.009490
v -0.011000 0.005000 0.009880
v -0.011000 0.005000 0.010260
v -0.011000 0.005000 0.010640
v -0.011000 0.005000 0.011000
v -0.011000 0.005000 0.011360
v -0.011000 0.005000 0.011700
v -0.011000 0.005000 0.012040
v -0.011000 0.005000 0.012360
v -0.011000 0.005000 0.012670
v -0.011000 0.005000 0.012970
v -0.011000 0.005000 0.013260
v -0.011000 0.005000 0.013540
v -0.011000 0.005000 0.013800
v -0.011000 0.005000 0.014060
v -0.011000 0.005000 0.014290
v -0.011000 0.005000 0.014520
v -0.011000 0.005000 0.014730
v -0.011000 0.005000 0.014920
v -0.011000 0.005000 0.015100
v -0.011000 0.005000 0.015270
v -0.011000 0.005000 0.015420
v -0.011000 0.005000 0.015550
v -0.011000 0.005000 0.015670
v -0.011000 0.005000 0.015770
v -0.011000 0.005000 0.015850
v -0.011000 0.005000 0.015920
v -0.011000 0.005000 0.015960
v -0.011000 0.005000 0.015990
v -0.011000 0.005000 0.016000
v -0.011000 0.047950 -0.016000
v -0.011000 0.047950 -0.015520
v -0.011000 0.047950 -0.015060
v -0.011000 0.047950 -0.014600
v -0.011000 0.047950 -0.014150
v -0.011000 0.047950 -0.013720
v -0.011000 0.047950 -0.013290
v -0.011000 0.047950 -0.012860
v -0.011000 0.047950 -0.012450
v -0.011000 0.047950 -0.012050
v -0.011000 0.047950 -0.011650
v -0.011000 0.047950 -0.011260
v -0.011000 0.047950 -0.010880
v -0.011000 0.047950 -0.010500
v -0.011000 0.047950 -0.010130
v -0.011000 0.047950 -0.009770
v -0.011000 0.047950 -0.009420
v -0.011000 0.047950 -0.009070
v -0.011000 0.047950 -0.008730
v -0.011000 0.047950 -0.008390
v -0.011000 0.047950 -0.008060
v -0.011000 0.047950 -0.007740
v -0.011000 0.047950 -0.007420
v -0.011000 0.047950 -0.007110
v -0.011000 0.047950 -0.006800
v -0.011000 0.047950 -0.006500
v -0.011000 0.047950 -0.006200
v -0.011000 0.047950 -0.005910
v -0.011000 0.047950 -0.005620
v -0.011000 0.047950 -0.005340
v -0.011000 0.047950 -0.005060
v -0.011000 0.047950 -0.004780
v -0.011000 0.047950 -0.004510
v -0.011000 0.047950 -0.004240
v -0.011000 0.047950 -0.003970
v -0.011000 0.047950 -0.003710
v -0.011000 0.047950 -0.003450
v -0.011000 0.047950 -0.003190
v -0.011000 0.047950 -0.002940
v -0.011000 0.047950 -0.002680
v -0.011000 0.047950 -0.002430
v -0.011000 0.047950 -0.002180
v -0.011000 0.047950 -0.001940
v -0.011000 0.047950 -0.001690
v -0.011000 0.047950 -0.001450
v -0.011000 0.047950 -0.001200
v -0.011000 0.047950 -0.000960
v -0.011000 0.047950 -0.000720
v -0.011000 0.047950 -0.000480
v -0.011000 0.047950 -0.000240
v -0.011000 0.047950 -0.000000
v -0.011000 0.047950 0.000240
v -0.011000 0.047950 0.000480
v -0.011000 0.047950 0.000720
v -0.011000 0.047950 0.000960
v -0.011000 0.047950 0.001200
v -0.011000 0.047950 0.001450
v -0.011000 0.047950 0.001690
v -0.011000 0.047950 0.001940
v -0.011000 0.047950 0.002180
v -0.011000 0.047950 0.002430
v -0.011000 0.047950 0.002680
v -0.011000 0.047950 0.002940
v -0.011000 0.047950 0.003190
v -0.011000 0.047950 0.003450
v -0.011000 0.047950 0.003710
v -0.011000 0.047950 0.003970
v -0.011000 0.047950 0.004240
v -0.011000 0.047950 0.004510
v -0.011000 0.047950 0.004780
v -0.011000 0.047950 0.005060
v -0.011000 0.047950 0.005340
v -0.011000 0.047950 0.005620
v -0.011000 0.047950 0.005910
v -0.011000 0.047950 0.006200
v -0.011000 0.047950 0.006500
v -0.011000 0.047950 0.006800
v -0.011000 0.047950 0.007110
v -0.011000 0.047950 0.007420
v -0.011000 0.047950 0.007740
v -0.011000 0.047950 0.008060
v -0.011000 0.047950 0.008390
v -0.011000 0.047950 0.008730
v -0.011000 0.047950 0.009070
v -0.011000 0.047950 0.009420
v -0.011000 0.047950 0.009770
v -0.011000 0.047950 0.010130
v -0.011000 0.047950 0.010500
v -0.011000 0.047950 0.010880
v -0.011000 0.047950 0.011260
v -0.011000 0.047950 0.011650
v -0.011000 0.047950 0.012050
v -0.011000 0.047950 0.012450
v -0.011000 0.047950 0.012860
v -0.011000 0.047950 0.013290
v -0.011000 0.047950 0.013720
v -0.011000 0.047950 0.014150
v -0.011000 0.047950 0.014600
v -0.011000 0.047950 0.015060
v -0.011000 0.047950 0.015520
v -0.011000 0.047950 0.016000
v 0.011000 0.047952 -0.016000
v 0.011000 0.047952 0.016000
v 0.011000 0.005000 0.016000
v 0.011000 0.005000 -0.016000
vn 0.0000 -1.0000 0.0000
vn -1.0000 0.0001 -0.0000
vn 0.0000 1.0000 0.0000
vn -0.0000 0.0000 1.0000
vn 1.0000 0.0000 0.0000
vn -1.0000 0.0000 -0.0000
vn 0.0000 -0.0002 -1.0000
vn -0.0001 1.0000 0.0000
vn -0.0005 0.0000 -1.0000
usemtl None
s off
f 49//1 48//1 206//1
f 99//2 100//2 102//2
f 2//3 206//3 1//3
f 205//4 202//4 101//4
f 204//5 206//5 203//5
f 3//6 102//6 2//6
f 4//6 103//6 3//6
f 5//6 104//6 4//6
f 6//6 105//6 5//6
f 7//6 106//6 6//6
f 8//6 107//6 7//6
f 9//6 108//6 8//6
f 10//6 109//6 9//6
f 11//6 110//6 10//6
f 12//6 111//6 11//6
f 13//6 112//6 12//6
f 14//6 113//6 13//6
f 15//6 114//6 14//6
f 16//6 115//6 15//6
f 17//6 116//6 16//6
f 18//6 117//6 17//6
f 19//6 118//6 18//6
f 20//6 119//6 19//6
f 21//6 120//6 20//6
f 22//6 121//6 21//6
f 23//6 122//6 22//6
f 24//6 123//6 23//6
f 25//6 124//6 24//6
f 26//6 125//6 25//6
f 27//6 126//6 26//6
f 28//6 127//6 27//6
f 29//6 128//6 28//6
f 30//6 129//6 29//6
f 31//6 130//6 30//6
f 32//6 131//6 31//6
f 33//6 132//6 32//6
f 34//6 133//6 33//6
f 35//6 134//6 34//6
f 36//6 135//6 35//6
f 37//6 136//6 36//6
f 38//6 137//6 37//6
f 39//6 138//6 38//6
f 40//6 139//6 39//6
f 41//6 140//6 40//6
f 42//6 141//6 41//6
f 43//6 142//6 42//6
f 44//6 143//6 43//6
f 45//6 144//6 44//6
f 46//6 145//6 45//6
f 47//6 146//6 46//6
f 48//6 147//6 47//6
f 49//6 148//6 48//6
f 50//6 149//6 49//6
f 50//6 151//6 150//6
f 51//6 152//6 151//6
f 52//6 153//6 152//6
f 53//6 154//6 153//6
f 54//6 155//6 154//6
f 55//6 156//6 155//6
f 56//6 157//6 156//6
f 57//6 158//6 157//6
f 58//6 159//6 158//6
f 59//6 160//6 159//6
f 60//6 161//6 160//6
f 61//6 162//6 161//6
f 62//6 163//6 162//6
f 63//6 164//6 163//6
f 64//6 165//6 164//6
f 65//6 166//6 165//6
f 66//6 167//6 166//6
f 67//6 168//6 167//6
f 68//6 169//6 168//6
f 69//6 170//6 169//6
f 70//6 171//6 170//6
f 71//6 172//6 171//6
f 72//6 173//6 172//6
f 73//6 174//6 173//6
f 74//6 175//6 174//6
f 75//6 176//6 175//6
f 76//6 177//6 176//6
f 77//6 178//6 177//6
f 78//6 179//6 178//6
f 79//6 180//6 179//6
f 80//6 181//6 180//6
f 81//6 182//6 181//6
f 82//6 183//6 182//6
f 83//6 184//6 183//6
f 84//6 185//6 184//6
f 85//6 186//6 185//6
f 86//6 187//6 186//6
f 87//6 188//6 187//6
f 88//6 189//6 188//6
f 89//6 190//6 189//6
f 90//6 191//6 190//6
f 91//6 192//6 191//6
f 92//6 193//6 192//6
f 93//6 194//6 193//6
f 94//6 195//6 194//6
f 95//6 196//6 195//6
f 96//6 197//6 196//6
f 97//6 198//6 197//6
f 98//6 199//6 198//6
f 99//6 200//6 199//6
f 100//6 201//6 200//6
f 101//6 202//6 201//6
f 205//1 101//1 100//1
f 99//1 98//1 205//1
f 98//1 97//1 205//1
f 205//1 100//1 99//1
f 1//1 206//1 2//1
f 206//1 205//1 51//1
f 2//1 206//1 3//1
f 4//1 3//1 206//1
f 4//1 206//1 5//1
f 96//1 95//1 205//1
f 95//1 94//1 205//1
f 205//1 97//1 96//1
f 5//1 206//1 6//1
f 7//1 6//1 206//1
f 7//1 206//1 8//1
f 93//1 92//1 205//1
f 92//1 91//1 205//1
f 205//1 94//1 93//1
f 8//1 206//1 9//1
f 10//1 9//1 206//1
f 10//1 206//1 11//1
f 90//1 89//1 205//1
f 89//1 88//1 205//1
f 205//1 91//1 90//1
f 11//1 206//1 12//1
f 13//1 12//1 206//1
f 13//1 206//1 14//1
f 87//1 86//1 205//1
f 86//1 85//1 205//1
f 205//1 88//1 87//1
f 14//1 206//1 15//1
f 16//1 15//1 206//1
f 16//1 206//1 17//1
f 84//1 83//1 205//1
f 83//1 82//1 205//1
f 205//1 85//1 84//1
f 17//1 206//1 18//1
f 19//1 18//1 206//1
f 19//1 206//1 20//1
f 81//1 80//1 205//1
f 80//1 79//1 205//1
f 205//1 82//1 81//1
f 20//1 206//1 21//1
f 22//1 21//1 206//1
f 22//1 206//1 23//1
f 78//1 77//1 205//1
f 77//1 76//1 205//1
f 205//1 79//1 78//1
f 23//1 206//1 24//1
f 25//1 24//1 206//1
f 25//1 206//1 26//1
f 75//1 74//1 205//1
f 74//1 73//1 205//1
f 205//1 76//1 75//1
f 26//1 206//1 27//1
f 28//1 27//1 206//1
f 28//1 206//1 29//1
f 72//1 71//1 205//1
f 71//1 70//1 205//1
f 205//1 73//1 72//1
f 29//1 206//1 30//1
f 31//1 30//1 206//1
f 31//1 206//1 32//1
f 69//1 68//1 205//1
f 68//1 67//1 205//1
f 205//1 70//1 69//1
f 32//1 206//1 33//1
f 34//1 33//1 206//1
f 34//1 206//1 35//1
f 66//1 65//1 205//1
f 65//1 64//1 205//1
f 205//1 67//1 66//1
f 35//1 206//1 36//1
f 37//1 36//1 206//1
f 37//1 206//1 38//1
f 64//1 63//1 205//1
f 63//1 62//1 205//1
f 61//1 60//1 205//1
f 60//1 59//1 205//1
f 59//1 58//1 205//1
f 205//1 62//1 61//1
f 38//1 206//1 39//1
f 39//1 206//1 40//1
f 57//1 56//1 205//1
f 56//1 55//1 205//1
f 205//1 58//1 57//1
f 40//1 206//1 41//1
f 41//1 206//1 42//1
f 44//1 43//1 206//1
f 43//1 42//1 206//1
f 44//1 206//1 45//1
f 55//1 54//1 205//1
f 54//1 53//1 205//1
f 47//1 46//1 206//1
f 46//1 45//1 206//1
f 47//1 206//1 48//1
f 205//1 53//1 52//1
f 52//1 51//1 205//1
f 51//1 50//1 206//1
f 50//1 49//1 206//1
f 203//7 2//7 102//7
f 2//6 3//6 102//6
f 3//6 4//6 102//6
f 4//6 5//6 102//6
f 6//6 7//6 102//6
f 7//6 8//6 102//6
f 6//6 102//6 5//6
f 202//8 204//8 201//8
f 204//8 203//8 125//8
f 201//8 204//8 200//8
f 200//8 204//8 199//8
f 8//6 9//6 102//6
f 9//6 10//6 102//6
f 196//8 204//8 195//8
f 198//8 199//8 204//8
f 196//8 197//8 204//8
f 197//8 198//8 204//8
f 193//8 194//8 204//8
f 194//8 195//8 204//8
f 191//8 192//8 204//8
f 192//8 193//8 204//8
f 188//8 189//8 204//8
f 189//8 190//8 204//8
f 188//8 204//8 187//8
f 190//8 191//8 204//8
f 186//8 187//8 204//8
f 10//6 11//6 102//6
f 184//8 204//8 183//8
f 185//8 186//8 204//8
f 182//8 183//8 204//8
f 184//8 185//8 204//8
f 11//6 12//6 102//6
f 13//6 14//6 102//6
f 14//6 15//6 102//6
f 13//6 102//6 12//6
f 182//8 204//8 181//8
f 180//8 181//8 204//8
f 180//8 204//8 179//8
f 16//6 17//6 102//6
f 17//6 18//6 102//6
f 16//6 102//6 15//6
f 179//8 204//8 178//8
f 178//8 204//8 177//8
f 19//6 20//6 102//6
f 20//6 21//6 102//6
f 19//6 102//6 18//6
f 177//8 204//8 176//8
f 175//8 176//8 204//8
f 175//8 204//8 174//8
f 21//6 22//6 102//6
f 22//6 23//6 102//6
f 23//6 24//6 102//6
f 24//6 25//6 102//6
f 25//6 26//6 102//6
f 26//6 27//6 102//6
f 27//6 28//6 102//6
f 28//6 29//6 102//6
f 29//6 30//6 102//6
f 30//6 31//6 102//6
f 32//6 33//6 102//6
f 33//6 34//6 102//6
f 32//6 102//6 31//6
f 174//8 204//8 173//8
f 173//8 204//8 172//8
f 170//8 171//8 204//8
f 171//8 172//8 204//8
f 170//8 204//8 169//8
f 168//8 169//8 204//8
f 165//8 166//8 204//8
f 166//8 167//8 204//8
f 165//8 204//8 164//8
f 167//8 168//8 204//8
f 163//8 164//8 204//8
f 163//8 204//8 162//8
f 34//6 35//6 102//6
f 35//6 36//6 102//6
f 36//6 37//6 102//6
f 37//6 38//6 102//6
f 38//6 39//6 102//6
f 39//6 40//6 102//6
f 40//6 41//6 102//6
f 41//6 42//6 102//6
f 43//6 44//6 102//6
f 44//6 45//6 102//6
f 43//6 102//6 42//6
f 45//6 46//6 102//6
f 46//6 47//6 102//6
f 162//8 204//8 161//8
f 161//8 204//8 160//8
f 158//8 159//8 204//8
f 159//8 160//8 204//8
f 158//8 204//8 157//8
f 47//6 48//6 102//6
f 48//6 49//6 102//6
f 157//8 204//8 156//8
f 154//8 155//8 204//8
f 155//8 156//8 204//8
f 154//8 204//8 153//8
f 151//8 152//8 204//8
f 152//8 153//8 204//8
f 151//8 204//8 150//8
f 50//6 51//6 102//6
f 51//6 52//6 102//6
f 50//6 102//6 49//6
f 150//8 204//8 149//8
f 147//8 148//8 204//8
f 148//8 149//8 204//8
f 147//8 204//8 146//8
f 53//6 54//6 102//6
f 54//6 55//6 102//6
f 53//6 102//6 52//6
f 146//8 204//8 145//8
f 144//8 145//8 204//8
f 144//8 204//8 143//8
f 141//8 142//8 204//8
f 142//8 143//8 204//8
f 56//6 57//6 102//6
f 57//6 58//6 102//6
f 56//6 102//6 55//6
f 138//8 204//8 137//8
f 140//8 141//8 204//8
f 138//8 139//8 204//8
f 139//8 140//8 204//8
f 136//8 137//8 204//8
f 136//8 204//8 135//8
f 134//8 135//8 204//8
f 134//8 204//8 133//8
f 131//8 132//8 204//8
f 132//8 133//8 204//8
f 131//8 204//8 130//8
f 58//6 59//6 102//6
f 59//6 60//6 102//6
f 60//6 61//6 102//6
f 61//6 62//6 102//6
f 62//6 63//6 102//6
f 63//6 64//6 102//6
f 64//6 65//6 102//6
f 65//6 66//6 102//6
f 66//6 67//6 102//6
f 68//6 69//6 102//6
f 69//6 70//6 102//6
f 68//6 102//6 67//6
f 70//6 71//6 102//6
f 71//6 72//6 102//6
f 130//8 204//8 129//8
f 72//6 73//6 102//6
f 73//6 74//6 102//6
f 74//6 75//6 102//6
f 75//6 76//6 102//6
f 129//8 204//8 128//8
f 128//8 204//8 127//8
f 126//8 127//8 204//8
f 126//8 204//8 125//8
f 77//6 78//6 102//6
f 78//6 79//6 102//6
f 77//6 102//6 76//6
f 124//8 125//8 203//8
f 121//8 122//8 203//8
f 122//8 123//8 203//8
f 123//8 124//8 203//8
f 79//6 80//6 102//6
f 119//8 120//8 203//8
f 120//8 121//8 203//8
f 80//6 81//6 102//6
f 81//6 82//6 102//6
f 82//6 83//6 102//6
f 84//6 85//6 102//6
f 85//6 86//6 102//6
f 83//6 84//6 102//6
f 116//8 117//8 203//8
f 117//8 118//8 203//8
f 118//8 119//8 203//8
f 86//6 87//6 102//6
f 87//6 88//6 102//6
f 88//6 89//6 102//6
f 89//6 90//6 102//6
f 90//6 91//6 102//6
f 91//6 92//6 102//6
f 92//6 93//6 102//6
f 93//6 94//6 102//6
f 94//6 95//6 102//6
f 95//6 96//6 102//6
f 97//6 98//6 102//6
f 98//6 99//6 102//6
f 96//6 97//6 102//6
f 114//8 115//8 203//8
f 115//8 116//8 203//8
f 112//8 113//8 203//8
f 113//8 114//8 203//8
f 110//8 111//8 203//8
f 111//8 112//8 203//8
f 108//8 109//8 203//8
f 109//8 110//8 203//8
f 106//8 107//8 203//8
f 107//8 108//8 203//8
f 104//8 105//8 203//8
f 105//8 106//8 203//8
f 102//8 103//8 203//8
f 103//8 104//8 203//8
f 100//6 101//6 102//6
f 2//9 203//9 206//9
f 205//4 204//4 202//4
f 204//5 205//5 206//5
f 3//6 103//6 102//6
f 4//6 104//6 103//6
f 5//6 105//6 104//6
f 6//6 106//6 105//6
f 7//6 107//6 106//6
f 8//6 108//6 107//6
f 9//6 109//6 108//6
f 10//6 110//6 109//6
f 11//6 111//6 110//6
f 12//6 112//6 111//6
f 13//6 113//6 112//6
f 14//6 114//6 113//6
f 15//6 115//6 114//6
f 16//6 116//6 115//6
f 17//6 117//6 116//6
f 18//6 118//6 117//6
f 19//6 119//6 118//6
f 20//6 120//6 119//6
f 21//6 121//6 120//6
f 22//6 122//6 121//6
f 23//6 123//6 122//6
f 24//6 124//6 123//6
f 25//6 125//6 124//6
f 26//6 126//6 125//6
f 27//6 127//6 126//6
f 28//6 128//6 127//6
f 29//6 129//6 128//6
f 30//6 130//6 129//6
f 31//6 131//6 130//6
f 32//6 132//6 131//6
f 33//6 133//6 132//6
f 34//6 134//6 133//6
f 35//6 135//6 134//6
f 36//6 136//6 135//6
f 37//6 137//6 136//6
f 38//6 138//6 137//6
f 39//6 139//6 138//6
f 40//6 140//6 139//6
f 41//6 141//6 140//6
f 42//6 142//6 141//6
f 43//6 143//6 142//6
f 44//6 144//6 143//6
f 45//6 145//6 144//6
f 46//6 146//6 145//6
f 47//6 147//6 146//6
f 48//6 148//6 147//6
f 49//6 149//6 148//6
f 50//6 150//6 149//6
f 50//6 51//6 151//6
f 51//6 52//6 152//6
f 52//6 53//6 153//6
f 53//6 54//6 154//6
f 54//6 55//6 155//6
f 55//6 56//6 156//6
f 56//6 57//6 157//6
f 57//6 58//6 158//6
f 58//6 59//6 159//6
f 59//6 60//6 160//6
f 60//6 61//6 161//6
f 61//6 62//6 162//6
f 62//6 63//6 163//6
f 63//6 64//6 164//6
f 64//6 65//6 165//6
f 65//6 66//6 166//6
f 66//6 67//6 167//6
f 67//6 68//6 168//6
f 68//6 69//6 169//6
f 69//6 70//6 170//6
f 70//6 71//6 171//6
f 71//6 72//6 172//6
f 72//6 73//6 173//6
f 73//6 74//6 174//6
f 74//6 75//6 175//6
f 75//6 76//6 176//6
f 76//6 77//6 177//6
f 77//6 78//6 178//6
f 78//6 79//6 179//6
f 79//6 80//6 180//6
f 80//6 81//6 181//6
f 81//6 82//6 182//6
f 82//6 83//6 183//6
f 83//6 84//6 184//6
f 84//6 85//6 185//6
f 85//6 86//6 186//6
f 86//6 87//6 187//6
f 87//6 88//6 188//6
f 88//6 89//6 189//6
f 89//6 90//6 190//6
f 90//6 91//6 191//6
f 91//6 92//6 192//6
f 92//6 93//6 193//6
f 93//6 94//6 194//6
f 94//6 95//6 195//6
f 95//6 96//6 196//6
f 96//6 97//6 197//6
f 97//6 98//6 198//6
f 98//6 99//6 199//6
f 99//6 100//6 200//6
f 100//6 101//6 201//6
f 101//5 102//5 202//5
o finger_1_segment0_combined_finger1_segment0_bottom
v -0.004400 0.005000 0.014400
v -0.004400 0.005000 -0.014400
v 0.004400 0.005000 -0.014400
v 0.004400 0.005000 0.014400
v -0.004400 0.000000 0.014400
v -0.004400 0.000000 -0.014400
v 0.004400 0.000000 -0.014400
v 0.004400 0.000000 0.014400
vn 0.0000 -1.0000 0.0000
vn 0.0000 0.0000 1.0000
vn -1.0000 0.0000 0.0000
vn 0.0000 0.0000 -1.0000
vn 1.0000 0.0000 0.0000
usemtl None
s off
f 212//10 214//10 211//10
f 207//11 214//11 210//11
f 208//12 211//12 207//12
f 209//13 212//13 208//13
f 210//14 213//14 209//14
f 212//10 213//10 214//10
f 207//11 211//11 214//11
f 208//12 212//12 211//12
f 209//13 213//13 212//13
f 210//14 214//14 213//14
o finger1_segment0_top
v -0.011000 0.047952 -0.016000
v -0.010000 0.050035 -0.016000
v -0.009000 0.050827 -0.016000
v -0.008000 0.051384 -0.016000
v -0.007000 0.051809 -0.016000
v -0.006000 0.052143 -0.016000
v -0.005000 0.052406 -0.016000
v -0.004000 0.052610 -0.016000
v -0.003000 0.052762 -0.016000
v -0.002000 0.052869 -0.016000
v -0.001000 0.052931 -0.016000
v 0.000000 0.052952 -0.016000
v 0.001000 0.052931 -0.016000
v 0.002000 0.052869 -0.016000
v 0.003000 0.052762 -0.016000
v 0.004000 0.052610 -0.016000
v 0.005000 0.052406 -0.016000
v 0.006000 0.052143 -0.016000
v 0.007000 0.051809 -0.016000
v 0.008000 0.051384 -0.016000
v 0.009000 0.050827 -0.016000
v 0.011000 0.047952 -0.016000
v -0.011000 0.047952 0.016000
v -0.010000 0.050035 0.016000
v -0.009000 0.050827 0.016000
v -0.008000 0.051384 0.016000
v -0.007000 0.051809 0.016000
v -0.006000 0.052143 0.016000
v -0.005000 0.052406 0.016000
v -0.004000 0.052610 0.016000
v -0.003000 0.052762 0.016000
v -0.002000 0.052869 0.016000
v -0.001000 0.052931 0.016000
v 0.000000 0.052952 0.016000
v 0.001000 0.052931 0.016000
v 0.002000 0.052869 0.016000
v 0.003000 0.052762 0.016000
v 0.004000 0.052610 0.016000
v 0.005000 0.052406 0.016000
v 0.006000 0.052143 0.016000
v 0.007000 0.051809 0.016000
v 0.008000 0.051384 0.016000
v 0.009000 0.050827 0.016000
v 0.011000 0.047952 0.016000
vn 0.0000 0.0000 -1.0000
vn -0.0000 0.0000 1.0000
vn -0.9015 0.4328 0.0000
vn -0.6208 0.7840 0.0000
vn -0.4866 0.8736 0.0000
vn -0.3913 0.9203 0.0000
vn -0.3166 0.9486 0.0000
vn -0.2543 0.9671 0.0000
vn -0.2000 0.9798 0.0000
vn -0.1510 0.9885 0.0000
vn -0.1056 0.9944 0.0000
vn -0.0625 0.9980 0.0000
vn -0.0207 0.9998 0.0000
vn 0.0207 0.9998 0.0000
vn 0.0625 0.9980 0.0000
vn 0.1056 0.9944 0.0000
vn 0.1510 0.9885 0.0000
vn 0.2000 0.9798 0.0000
vn 0.2543 0.9671 0.0000
vn 0.3166 0.9486 0.0000
vn 0.3913 0.9203 0.0000
vn 0.4866 0.8736 0.0000
vn 0.8209 0.5711 0.0000
vn 0.0000 -1.0000 0.0000
usemtl None
s off
f 234//15 235//15 236//15
f 239//16 238//16 237//16
f 237//17 216//17 215//17
f 238//18 217//18 216//18
f 239//19 218//19 217//19
f 240//20 219//20 218//20
f 241//21 220//21 219//21
f 242//22 221//22 220//22
f 243//23 222//23 221//23
f 244//24 223//24 222//24
f 245//25 224//25 223//25
f 246//26 225//26 224//26
f 247//27 226//27 225//27
f 248//28 227//28 226//28
f 249//29 228//29 227//29
f 250//30 229//30 228//30
f 251//31 230//31 229//31
f 252//32 231//32 230//32
f 253//33 232//33 231//33
f 254//34 233//34 232//34
f 255//35 234//35 233//35
f 256//36 235//36 234//36
f 257//37 236//37 235//37
f 236//38 237//38 215//38
f 236//15 215//15 226//15
f 215//15 216//15 217//15
f 218//15 215//15 217//15
f 218//15 219//15 215//15
f 219//15 220//15 215//15
f 220//15 221//15 215//15
f 221//15 222//15 215//15
f 222//15 223//15 215//15
f 223//15 224//15 215//15
f 224//15 225//15 215//15
f 225//15 226//15 215//15
f 226//15 227//15 236//15
f 227//15 228//15 236//15
f 228//15 229//15 236//15
f 229//15 230//15 236//15
f 230//15 231//15 236//15
f 231//15 232//15 236//15
f 232//15 233//15 236//15
f 233//15 234//15 236//15
f 237//16 258//16 248//16
f 258//16 257//16 256//16
f 255//16 258//16 256//16
f 255//16 254//16 258//16
f 254//16 253//16 258//16
f 253//16 252//16 258//16
f 252//16 251//16 258//16
f 251//16 250//16 258//16
f 250//16 249//16 258//16
f 249//16 248//16 258//16
f 248//16 247//16 237//16
f 247//16 246//16 237//16
f 246//16 245//16 237//16
f 245//16 244//16 237//16
f 244//16 243//16 237//16
f 243//16 242//16 237//16
f 242//16 241//16 237//16
f 241//16 240//16 237//16
f 240//16 239//16 237//16
f 237//17 238//17 216//17
f 238//18 239//18 217//18
f 239//19 240//19 218//19
f 240//20 241//20 219//20
f 241//21 242//21 220//21
f 242//22 243//22 221//22
f 243//23 244//23 222//23
f 244//24 245//24 223//24
f 245//25 246//25 224//25
f 246//26 247//26 225//26
f 247//27 248//27 226//27
f 248//28 249//28 227//28
f 249//29 250//29 228//29
f 250//30 251//30 229//30
f 251//31 252//31 230//31
f 252//32 253//32 231//32
f 253//33 254//33 232//33
f 254//34 255//34 233//34
f 255//35 256//35 234//35
f 256//36 257//36 235//36
f 257//37 258//37 236//37
f 236//38 258//38 237//38
