####
#
# OBJ File Generated by Meshlab
#
####
# Object more-accurate-finger-tip2.obj
#
# Vertices: 56
# Faces: 108
#
####
vn -3.137215 0.117185 3.066921
v -13.999999 57.998169 16.000002 0.752941 0.752941 0.752941
vn -1.570796 -1.570796 -1.570796
v -13.999999 6.000000 -16.000000 0.752941 0.752941 0.752941
vn -1.570796 -1.570797 1.570796
v -13.999999 6.000000 16.000000 0.752941 0.752941 0.752941
vn -1.570796 -1.570796 1.570796
v -7.000000 -0.000001 16.000000 0.752941 0.752941 0.752941
vn -1.570796 -1.570797 4.712389
v -7.000000 6.000000 16.000000 0.752941 0.752941 0.752941
vn 1.570796 -1.570796 1.570796
v 7.000000 -0.000001 16.000000 0.752941 0.752941 0.752941
vn 1.570796 -1.570796 -1.570796
v 7.000000 0.000001 -16.000000 0.752941 0.752941 0.752941
vn 1.570796 -1.570797 4.712389
v 7.000000 6.000000 16.000000 0.752941 0.752941 0.752941
vn 1.570796 -1.570796 -1.570796
v 14.000001 6.000000 -16.000000 0.752941 0.752941 0.752941
vn 1.570796 -1.570796 1.570796
v 14.000001 6.000000 16.000000 0.752941 0.752941 0.752941
vn 3.097814 0.466942 2.991987
v 13.843617 60.086678 16.000002 0.752941 0.752941 0.752941
vn 2.993614 0.923450 2.991987
v 13.377967 62.126740 16.000002 0.752941 0.752941 0.752941
vn 2.822536 1.359328 -2.991988
v 12.613448 64.074608 -15.999997 0.752941 0.752941 0.752941
vn 2.822537 1.359328 2.991988
v 12.613448 64.074608 16.000002 0.752941 0.752941 0.752941
vn 2.296445 2.130921 -2.991987
v 10.262429 67.522736 -15.999997 0.752941 0.752941 0.752941
vn 2.588404 1.764837 2.991987
v 11.567145 65.886772 16.000004 0.752941 0.752941 0.752941
vn 2.296445 2.130921 2.991987
v 10.262429 67.522736 16.000004 0.752941 0.752941 0.752941
vn 1.566286 2.713160 -2.991990
v 6.999471 70.124657 -15.999997 0.752941 0.752941 0.752941
vn 1.953181 2.449402 2.991985
v 8.728446 68.945969 16.000004 0.752941 0.752941 0.752941
vn 1.144399 2.916304 2.991985
v 5.114124 71.032494 16.000004 0.752941 0.752941 0.752941
vn 0.696945 3.054301 -2.991988
v 3.114527 71.649170 -15.999997 0.752941 0.752941 0.752941
vn 0.696945 3.054301 2.991988
v 3.114527 71.649170 16.000004 0.752941 0.752941 0.752941
vn 0.233918 3.124062 2.991984
v 1.045350 71.960922 16.000004 0.752941 0.752941 0.752941
vn 0.233918 3.124062 -2.991983
v 1.045350 71.960922 -15.999997 0.752941 0.752941 0.752941
vn -0.234332 3.124032 -2.991989
v -1.047178 71.960777 -15.999997 0.752941 0.752941 0.752941
vn -0.234332 3.124032 2.991990
v -1.047178 71.960777 16.000004 0.752941 0.752941 0.752941
vn -0.697342 3.054210 -2.991987
v -3.116315 71.648758 -15.999997 0.752941 0.752941 0.752941
vn -1.144780 2.916156 -2.991985
v -5.115830 71.031822 -15.999997 0.752941 0.752941 0.752941
vn -0.697342 3.054210 2.991987
v -3.116315 71.648758 16.000004 0.752941 0.752941 0.752941
vn -1.144780 2.916155 2.991985
v -5.115830 71.031822 16.000004 0.752941 0.752941 0.752941
vn -1.566643 2.712953 2.991988
v -7.001058 70.123741 16.000004 0.752941 0.752941 0.752941
vn -1.953501 2.449147 -2.991989
v -8.729880 68.944824 -15.999997 0.752941 0.752941 0.752941
vn -2.296721 2.130622 2.991985
v -10.263675 67.521400 16.000004 0.752941 0.752941 0.752941
vn -2.588634 1.764499 -2.991987
v -11.568178 65.885254 -15.999997 0.752941 0.752941 0.752941
vn -2.588634 1.764499 2.991987
v -11.568178 65.885254 16.000004 0.752941 0.752941 0.752941
vn -2.993735 0.923057 -2.991987
v -13.378507 62.124992 -15.999997 0.752941 0.752941 0.752941
vn -2.993735 0.923057 2.991987
v -13.378507 62.124992 16.000002 0.752941 0.752941 0.752941
vn -3.097875 0.466534 2.991987
v -13.843891 60.084866 16.000002 0.752941 0.752941 0.752941
vn 1.566286 2.713160 2.991990
v 6.999471 70.124657 16.000004 0.752941 0.752941 0.752941
vn 3.137200 0.117392 3.066791
v 14.000001 58.000000 16.000002 0.752941 0.752941 0.752941
vn -1.953501 2.449147 2.991989
v -8.729880 68.944824 16.000004 0.752941 0.752941 0.752941
vn -2.822715 1.358958 2.991987
v -12.614245 64.072960 16.000002 0.752941 0.752941 0.752941
vn -1.570796 -1.570796 -4.712389
v -7.000000 6.000000 -16.000000 0.752941 0.752941 0.752941
vn 1.570796 -1.570796 -4.712389
v 7.000000 6.000000 -16.000000 0.752941 0.752941 0.752941
vn -1.570796 -1.570796 -1.570796
v -7.000000 0.000001 -16.000000 0.752941 0.752941 0.752941
vn -3.137216 0.117186 -3.066921
v -13.999999 57.998169 -15.999997 0.752941 0.752941 0.752941
vn -3.097875 0.466534 -2.991987
v -13.843891 60.084866 -15.999997 0.752941 0.752941 0.752941
vn -1.566643 2.712954 -2.991988
v -7.001058 70.123741 -15.999997 0.752941 0.752941 0.752941
vn 1.144400 2.916305 -2.991984
v 5.114124 71.032494 -15.999997 0.752941 0.752941 0.752941
vn 1.953181 2.449402 -2.991985
v 8.728446 68.945969 -15.999997 0.752941 0.752941 0.752941
vn 3.137200 0.117392 -3.066791
v 14.000001 58.000000 -15.999997 0.752941 0.752941 0.752941
vn 2.993614 0.923450 -2.991987
v 13.377967 62.126740 -15.999997 0.752941 0.752941 0.752941
vn 3.097814 0.466942 -2.991987
v 13.843617 60.086678 -15.999997 0.752941 0.752941 0.752941
vn 2.588404 1.764837 -2.991987
v 11.567145 65.886772 -15.999997 0.752941 0.752941 0.752941
vn -2.822715 1.358958 -2.991987
v -12.614245 64.072960 -15.999997 0.752941 0.752941 0.752941
vn -2.296721 2.130623 -2.991985
v -10.263675 67.521400 -15.999997 0.752941 0.752941 0.752941
# 56 vertices, 0 vertices normals

f 3//3 1//1 2//2
f 2//2 1//1 46//46
f 5//5 3//3 43//43
f 43//43 3//3 2//2
f 4//4 5//5 45//45
f 45//45 5//5 43//43
f 6//6 4//4 7//7
f 7//7 4//4 45//45
f 8//8 6//6 44//44
f 44//44 6//6 7//7
f 10//10 8//8 9//9
f 9//9 8//8 44//44
f 40//40 10//10 51//51
f 51//51 10//10 9//9
f 40//40 51//51 53//53
f 40//40 53//53 11//11
f 11//11 53//53 52//52
f 11//11 52//52 12//12
f 12//12 52//52 13//13
f 12//12 13//13 14//14
f 14//14 13//13 54//54
f 14//14 54//54 16//16
f 16//16 54//54 15//15
f 16//16 15//15 17//17
f 17//17 15//15 50//50
f 17//17 50//50 19//19
f 19//19 50//50 18//18
f 19//19 18//18 39//39
f 39//39 18//18 49//49
f 39//39 49//49 20//20
f 20//20 49//49 21//21
f 20//20 21//21 22//22
f 22//22 21//21 24//24
f 22//22 24//24 23//23
f 23//23 24//24 25//25
f 23//23 25//25 26//26
f 26//26 25//25 27//27
f 26//26 27//27 29//29
f 29//29 27//27 28//28
f 29//29 28//28 30//30
f 30//30 28//28 48//48
f 30//30 48//48 31//31
f 31//31 48//48 32//32
f 31//31 32//32 41//41
f 41//41 32//32 56//56
f 41//41 56//56 33//33
f 33//33 56//56 34//34
f 33//33 34//34 35//35
f 35//35 34//34 55//55
f 35//35 55//55 42//42
f 42//42 55//55 36//36
f 42//42 36//36 37//37
f 37//37 36//36 47//47
f 37//37 47//47 38//38
f 38//38 47//47 46//46
f 38//38 46//46 1//1
f 10//10 40//40 8//8
f 8//8 40//40 5//5
f 8//8 5//5 6//6
f 6//6 5//5 4//4
f 22//22 23//23 40//40
f 3//3 5//5 1//1
f 1//1 5//5 40//40
f 1//1 40//40 38//38
f 38//38 40//40 37//37
f 14//14 16//16 12//12
f 12//12 16//16 11//11
f 11//11 16//16 40//40
f 40//40 16//16 17//17
f 40//40 17//17 19//19
f 19//19 39//39 40//40
f 40//40 39//39 20//20
f 40//40 20//20 22//22
f 23//23 26//26 40//40
f 40//40 26//26 29//29
f 40//40 29//29 30//30
f 30//30 31//31 40//40
f 40//40 31//31 41//41
f 40//40 41//41 33//33
f 33//33 35//35 40//40
f 40//40 35//35 42//42
f 40//40 42//42 37//37
f 9//9 44//44 51//51
f 51//51 44//44 46//46
f 2//2 46//46 43//43
f 43//43 46//46 44//44
f 43//43 44//44 45//45
f 45//45 44//44 7//7
f 46//46 47//47 51//51
f 51//51 47//47 36//36
f 51//51 36//36 55//55
f 32//32 48//48 51//51
f 51//51 48//48 28//28
f 28//28 27//27 51//51
f 51//51 27//27 25//25
f 51//51 25//25 24//24
f 24//24 21//21 51//51
f 51//51 21//21 49//49
f 51//51 49//49 18//18
f 18//18 50//50 51//51
f 51//51 50//50 15//15
f 51//51 15//15 54//54
f 13//13 52//52 54//54
f 54//54 52//52 53//53
f 54//54 53//53 51//51
f 55//55 34//34 51//51
f 51//51 34//34 56//56
f 51//51 56//56 32//32
# 108 faces, 0 coords texture

# End of File