# Blender v3.0.1 OBJ File: ''
# www.blender.org
mtllib 20_r_circle.mtl
o 20_r_circle
v 0.001460 0.105000 0.019947
v 0.000000 0.105000 0.020000
v 0.000000 -0.000000 0.020000
v -0.001460 -0.000000 0.019947
v -0.001460 0.105000 0.019947
v -0.004349 0.105000 0.019522
v -0.004349 -0.000000 0.019522
v -0.007145 0.105000 0.018680
v -0.007145 -0.000000 0.018680
v -0.009788 0.105000 0.017441
v -0.009788 -0.000000 0.017441
v -0.012223 0.105000 0.015830
v -0.012223 -0.000000 0.015830
v -0.014398 0.105000 0.013881
v -0.014398 -0.000000 0.013881
v -0.016266 0.105000 0.011637
v -0.016266 -0.000000 0.011637
v -0.017787 0.105000 0.009145
v -0.017787 -0.000000 0.009145
v -0.018929 0.105000 0.006458
v -0.018929 -0.000000 0.006458
v -0.019667 0.105000 0.003633
v -0.019667 -0.000000 0.003633
v -0.019987 0.105000 0.000730
v -0.019987 -0.000000 0.000730
v -0.019880 0.105000 -0.002187
v -0.019880 0.000000 -0.002187
v -0.019350 0.105000 -0.005059
v -0.019350 0.000000 -0.005059
v -0.018407 0.105000 -0.007822
v -0.018407 0.000000 -0.007822
v -0.017072 0.105000 -0.010419
v -0.017072 0.000000 -0.010419
v -0.015373 0.105000 -0.012793
v -0.015373 0.000000 -0.012793
v -0.013346 0.105000 -0.014895
v -0.013346 0.000000 -0.014895
v -0.011035 0.105000 -0.016680
v -0.011035 0.000000 -0.016680
v -0.008489 0.105000 -0.018109
v -0.008489 0.000000 -0.018109
v -0.005762 0.105000 -0.019152
v -0.005762 0.000000 -0.019152
v -0.002912 0.105000 -0.019787
v -0.002912 0.000000 -0.019787
v 0.000000 0.105000 -0.020000
v 0.000000 0.000000 -0.020000
v 0.002912 0.105000 -0.019787
v 0.002912 0.000000 -0.019787
v 0.005762 0.105000 -0.019152
v 0.005762 0.000000 -0.019152
v 0.008489 0.105000 -0.018109
v 0.008489 0.000000 -0.018109
v 0.011035 0.105000 -0.016680
v 0.011035 0.000000 -0.016680
v 0.013346 0.105000 -0.014895
v 0.013346 0.000000 -0.014895
v 0.015373 0.105000 -0.012793
v 0.015373 0.000000 -0.012793
v 0.017072 0.105000 -0.010419
v 0.017072 0.000000 -0.010419
v 0.018407 0.105000 -0.007822
v 0.018407 0.000000 -0.007822
v 0.019350 0.105000 -0.005059
v 0.019350 0.000000 -0.005059
v 0.019880 0.105000 -0.002187
v 0.019880 0.000000 -0.002187
v 0.019987 0.105000 0.000730
v 0.019987 -0.000000 0.000730
v 0.019667 0.105000 0.003633
v 0.019667 -0.000000 0.003633
v 0.018929 0.105000 0.006458
v 0.018929 -0.000000 0.006458
v 0.017787 0.105000 0.009145
v 0.017787 -0.000000 0.009145
v 0.016266 0.105000 0.011637
v 0.016266 -0.000000 0.011637
v 0.014398 0.105000 0.013881
v 0.014398 -0.000000 0.013881
v 0.012223 0.105000 0.015830
v 0.012223 -0.000000 0.015830
v 0.009788 0.105000 0.017441
v 0.009788 -0.000000 0.017441
v 0.007145 0.105000 0.018680
v 0.007145 -0.000000 0.018680
v 0.004349 0.105000 0.019522
v 0.004349 -0.000000 0.019522
v 0.001460 -0.000000 0.019947
v 0.011700 0.105000 -0.011700
v 0.000000 0.105000 0.020000
v 0.011625 0.105000 0.011700
v -0.011775 0.105000 0.011625
v -0.011775 0.105000 -0.011775
v 0.000000 -0.000000 0.020000
v 0.000000 0.000000 0.000000
v -0.011775 0.103000 0.011625
v -0.011775 0.103000 -0.011775
v 0.011700 0.103000 -0.011700
v 0.011625 0.103000 0.011700
v -0.001650 0.103000 0.001650
v 0.008250 0.103000 0.001725
v 0.004875 0.103000 -0.001725
v -0.008325 0.103000 -0.001650
v -0.008325 0.103000 0.008175
v -0.005175 0.103000 0.008250
v -0.008325 0.103000 -0.008325
v -0.005100 0.103000 -0.008250
v -0.005175 0.103000 -0.005100
v -0.005025 0.103000 -0.005025
v 0.004950 0.103000 -0.004950
v -0.005100 0.103000 -0.001575
v -0.005025 0.103000 -0.001800
v 0.008175 0.103000 0.004950
v -0.001650 0.103000 0.004875
v -0.008325 0.103000 -0.005175
v -0.008325 0.105000 -0.008325
v -0.008325 0.105000 -0.005175
v -0.005100 0.105000 -0.008250
v -0.005175 0.105000 -0.005100
v -0.005025 0.105000 -0.005025
v -0.005025 0.105000 -0.001800
v 0.004950 0.105000 -0.004950
v 0.004875 0.105000 -0.001725
v -0.008325 0.105000 -0.001650
v -0.008325 0.105000 0.008175
v -0.005100 0.105000 -0.001575
v -0.005175 0.105000 0.008250
v -0.001650 0.105000 0.001650
v -0.001650 0.105000 0.004875
v 0.008250 0.105000 0.001725
v 0.008175 0.105000 0.004950
vn 0.0365 -0.0000 0.9993
vn -0.0365 -0.0000 0.9993
vn -0.1456 -0.0000 0.9893
vn -0.2881 -0.0000 0.9576
vn -0.4245 -0.0000 0.9054
vn -0.5518 -0.0000 0.8340
vn -0.6673 -0.0000 0.7448
vn -0.7686 -0.0000 0.6397
vn -0.8536 -0.0000 0.5209
vn -0.9203 -0.0000 0.3911
vn -0.9675 -0.0000 0.2529
vn -0.9940 0.0000 0.1094
vn -0.9993 -0.0000 -0.0365
vn -0.9834 0.0000 -0.1816
vn -0.9464 0.0000 -0.3229
vn -0.8893 0.0000 -0.4572
vn -0.8133 0.0000 -0.5819
vn -0.7199 0.0000 -0.6941
vn -0.6112 0.0000 -0.7915
vn -0.4894 0.0000 -0.8720
vn -0.3572 0.0000 -0.9340
vn -0.2174 0.0000 -0.9761
vn -0.0730 0.0000 -0.9973
vn 0.0730 0.0000 -0.9973
vn 0.2174 0.0000 -0.9761
vn 0.3572 0.0000 -0.9340
vn 0.4894 0.0000 -0.8720
vn 0.6112 0.0000 -0.7915
vn 0.7199 0.0000 -0.6941
vn 0.8133 0.0000 -0.5819
vn 0.8893 0.0000 -0.4572
vn 0.9464 0.0000 -0.3229
vn 0.9834 0.0000 -0.1816
vn 0.9993 0.0000 -0.0365
vn 0.9940 0.0000 0.1094
vn 0.9675 0.0000 0.2529
vn 0.9203 -0.0000 0.3911
vn 0.8536 -0.0000 0.5209
vn 0.7686 -0.0000 0.6397
vn 0.6673 -0.0000 0.7448
vn 0.5518 -0.0000 0.8340
vn 0.4245 -0.0000 0.9054
vn 0.2881 -0.0000 0.9576
vn 0.1456 -0.0000 0.9893
vn 0.0000 1.0000 -0.0000
vn 0.0000 -1.0000 -0.0000
vn 1.0000 0.0000 0.0000
vn -0.0032 0.0000 1.0000
vn -1.0000 0.0000 -0.0032
vn 0.0032 0.0000 -1.0000
vn -1.0000 0.0000 0.0000
vn 0.0233 0.0000 -0.9997
vn 0.0232 0.0000 -0.9997
vn 0.9997 0.0000 0.0238
vn -0.0238 0.0000 0.9997
vn 0.0075 0.0000 -1.0000
vn 0.9997 0.0000 0.0232
vn -0.0076 0.0000 1.0000
vn 1.0000 0.0000 0.0076
vn 0.0076 0.0000 -1.0000
usemtl None
s off
f 1//1 2//1 3//1
f 3//2 2//2 4//2
f 2//2 5//2 4//2
f 4//3 5//3 6//3
f 4//3 6//3 7//3
f 7//4 6//4 8//4
f 7//4 8//4 9//4
f 9//5 8//5 10//5
f 9//5 10//5 11//5
f 11//6 10//6 12//6
f 11//6 12//6 13//6
f 13//7 12//7 14//7
f 13//7 14//7 15//7
f 15//8 14//8 16//8
f 15//8 16//8 17//8
f 17//9 16//9 18//9
f 17//9 18//9 19//9
f 19//10 18//10 20//10
f 19//10 20//10 21//10
f 21//11 20//11 22//11
f 21//11 22//11 23//11
f 23//12 22//12 24//12
f 23//12 24//12 25//12
f 25//13 24//13 26//13
f 25//13 26//13 27//13
f 27//14 26//14 28//14
f 27//14 28//14 29//14
f 29//15 28//15 30//15
f 29//15 30//15 31//15
f 31//16 30//16 32//16
f 31//16 32//16 33//16
f 33//17 32//17 34//17
f 33//17 34//17 35//17
f 35//18 34//18 36//18
f 35//18 36//18 37//18
f 37//19 36//19 38//19
f 37//19 38//19 39//19
f 39//20 38//20 40//20
f 39//20 40//20 41//20
f 41//21 40//21 42//21
f 41//21 42//21 43//21
f 43//22 42//22 44//22
f 43//22 44//22 45//22
f 45//23 44//23 46//23
f 45//23 46//23 47//23
f 47//24 46//24 48//24
f 47//24 48//24 49//24
f 49//25 48//25 50//25
f 49//25 50//25 51//25
f 51//26 50//26 52//26
f 51//26 52//26 53//26
f 53//27 52//27 54//27
f 53//27 54//27 55//27
f 55//28 54//28 56//28
f 55//28 56//28 57//28
f 57//29 56//29 58//29
f 57//29 58//29 59//29
f 59//30 58//30 60//30
f 59//30 60//30 61//30
f 61//31 60//31 62//31
f 61//31 62//31 63//31
f 63//32 62//32 64//32
f 63//32 64//32 65//32
f 65//33 64//33 66//33
f 65//33 66//33 67//33
f 67//34 66//34 68//34
f 67//34 68//34 69//34
f 69//35 68//35 70//35
f 69//35 70//35 71//35
f 71//36 70//36 72//36
f 71//36 72//36 73//36
f 73//37 72//37 74//37
f 73//37 74//37 75//37
f 75//38 74//38 76//38
f 75//38 76//38 77//38
f 77//39 76//39 78//39
f 77//39 78//39 79//39
f 79//40 78//40 80//40
f 79//40 80//40 81//40
f 81//41 80//41 82//41
f 81//41 82//41 83//41
f 83//42 82//42 84//42
f 83//42 84//42 85//42
f 85//43 84//43 86//43
f 85//43 86//43 87//43
f 87//44 86//44 1//44
f 87//44 1//44 88//44
f 88//1 1//1 3//1
f 89//45 56//45 54//45
f 90//45 1//45 91//45
f 91//45 1//45 86//45
f 30//45 28//45 92//45
f 89//45 54//45 93//45
f 93//45 54//45 52//45
f 93//45 52//45 50//45
f 50//45 48//45 93//45
f 93//45 48//45 46//45
f 93//45 46//45 44//45
f 44//45 42//45 93//45
f 93//45 42//45 40//45
f 93//45 40//45 38//45
f 74//45 89//45 76//45
f 76//45 89//45 91//45
f 76//45 91//45 78//45
f 78//45 91//45 80//45
f 74//45 72//45 89//45
f 89//45 72//45 70//45
f 89//45 70//45 68//45
f 68//45 66//45 89//45
f 89//45 66//45 64//45
f 89//45 64//45 62//45
f 8//45 6//45 91//45
f 91//45 6//45 5//45
f 91//45 5//45 90//45
f 86//45 84//45 91//45
f 91//45 84//45 82//45
f 91//45 82//45 80//45
f 38//45 36//45 93//45
f 93//45 36//45 34//45
f 93//45 34//45 92//45
f 92//45 34//45 32//45
f 92//45 32//45 30//45
f 28//45 26//45 92//45
f 92//45 26//45 24//45
f 92//45 24//45 22//45
f 62//45 60//45 89//45
f 89//45 60//45 58//45
f 89//45 58//45 56//45
f 16//45 14//45 92//45
f 92//45 14//45 12//45
f 92//45 12//45 91//45
f 91//45 12//45 10//45
f 91//45 10//45 8//45
f 22//45 20//45 92//45
f 92//45 20//45 18//45
f 92//45 18//45 16//45
f 94//46 4//46 95//46
f 94//46 95//46 88//46
f 83//46 85//46 95//46
f 95//46 85//46 87//46
f 95//46 87//46 88//46
f 77//46 79//46 95//46
f 95//46 79//46 81//46
f 95//46 81//46 83//46
f 71//46 73//46 95//46
f 95//46 73//46 75//46
f 95//46 75//46 77//46
f 65//46 67//46 95//46
f 95//46 67//46 69//46
f 95//46 69//46 71//46
f 59//46 61//46 95//46
f 95//46 61//46 63//46
f 95//46 63//46 65//46
f 53//46 55//46 95//46
f 95//46 55//46 57//46
f 95//46 57//46 59//46
f 47//46 49//46 95//46
f 95//46 49//46 51//46
f 95//46 51//46 53//46
f 41//46 43//46 95//46
f 95//46 43//46 45//46
f 95//46 45//46 47//46
f 35//46 37//46 95//46
f 95//46 37//46 39//46
f 95//46 39//46 41//46
f 29//46 31//46 95//46
f 95//46 31//46 33//46
f 95//46 33//46 35//46
f 23//46 25//46 95//46
f 95//46 25//46 27//46
f 95//46 27//46 29//46
f 17//46 19//46 95//46
f 95//46 19//46 21//46
f 95//46 21//46 23//46
f 11//46 13//46 95//46
f 95//46 13//46 15//46
f 95//46 15//46 17//46
f 4//46 7//46 95//46
f 95//46 7//46 9//46
f 95//46 9//46 11//46
f 96//47 97//47 92//47
f 92//47 97//47 93//47
f 97//48 98//48 93//48
f 93//48 98//48 89//48
f 98//49 99//49 89//49
f 89//49 99//49 91//49
f 99//50 96//50 91//50
f 91//50 96//50 92//50
f 100//45 101//45 102//45
f 103//45 97//45 104//45
f 104//45 97//45 96//45
f 104//45 96//45 105//45
f 105//45 96//45 99//45
f 97//45 106//45 107//45
f 107//45 108//45 109//45
f 97//45 107//45 98//45
f 98//45 107//45 109//45
f 98//45 109//45 110//45
f 103//45 111//45 112//45
f 110//45 102//45 98//45
f 98//45 102//45 101//45
f 98//45 101//45 99//45
f 99//45 101//45 113//45
f 99//45 113//45 105//45
f 105//45 113//45 114//45
f 105//45 114//45 111//45
f 111//45 114//45 100//45
f 111//45 100//45 112//45
f 112//45 100//45 102//45
f 106//45 97//45 115//45
f 115//45 97//45 103//45
f 115//45 103//45 108//45
f 108//45 103//45 112//45
f 108//45 112//45 109//45
f 106//51 115//51 116//51
f 116//51 115//51 117//51
f 107//52 106//52 118//52
f 118//53 106//53 116//53
f 108//54 107//54 119//54
f 119//54 107//54 118//54
f 115//55 108//55 117//55
f 117//55 108//55 119//55
f 109//51 112//51 120//51
f 120//51 112//51 121//51
f 110//56 109//56 122//56
f 122//56 109//56 120//56
f 102//57 110//57 123//57
f 123//57 110//57 122//57
f 112//58 102//58 121//58
f 121//58 102//58 123//58
f 103//51 104//51 124//51
f 124//51 104//51 125//51
f 111//53 103//53 126//53
f 126//53 103//53 124//53
f 105//59 111//59 127//59
f 127//59 111//59 126//59
f 104//55 105//55 125//55
f 125//55 105//55 127//55
f 100//51 114//51 128//51
f 128//51 114//51 129//51
f 101//60 100//60 130//60
f 130//60 100//60 128//60
f 113//57 101//57 131//57
f 131//57 101//57 130//57
f 114//58 113//58 129//58
f 129//58 113//58 131//58
f 125//45 127//45 124//45
f 124//45 127//45 126//45
f 121//45 123//45 120//45
f 120//45 123//45 122//45
f 117//45 119//45 116//45
f 116//45 119//45 118//45
f 129//45 131//45 128//45
f 128//45 131//45 130//45
