# Blender v3.0.1 OBJ File: ''
# www.blender.org
mtllib 40x40_triangle.mtl
o 40x40_triangle
v -0.011547 0.000000 -0.014804
v -0.011547 0.000000 0.014804
v -0.011547 0.105000 -0.014804
v -0.011547 0.105000 0.014804
v -0.007047 0.000000 0.017402
v 0.018594 0.000000 0.002598
v -0.007047 0.105000 0.017402
v 0.018594 0.105000 0.002598
v -0.007047 0.105000 -0.017402
v 0.018594 0.105000 -0.002598
v -0.007047 0.000000 -0.017402
v 0.018594 0.000000 -0.002598
v 0.002835 0.105000 -0.010684
v 0.010617 0.105000 0.002894
v -0.002918 0.105000 0.010651
v 0.020094 0.105000 0.000000
v 0.020048 0.105000 -0.000521
v 0.019913 0.105000 -0.001026
v 0.019692 0.105000 -0.001500
v -0.009068 0.105000 0.017758
v -0.008547 0.105000 0.017804
v 0.019392 0.105000 -0.001928
v 0.019022 0.105000 -0.002298
v -0.010675 0.105000 -0.002884
v -0.011501 0.105000 0.015325
v -0.011366 0.105000 0.015830
v -0.007521 0.105000 -0.017623
v -0.008026 0.105000 -0.017758
v -0.008547 0.105000 -0.017804
v -0.009068 0.105000 -0.017758
v -0.009573 0.105000 -0.017623
v -0.010047 0.105000 -0.017402
v 0.019022 0.105000 0.002298
v 0.019392 0.105000 0.001928
v 0.019692 0.105000 0.001500
v 0.019913 0.105000 0.001026
v 0.020048 0.105000 0.000521
v -0.008026 0.105000 0.017758
v -0.007521 0.105000 0.017623
v -0.011145 0.105000 0.016304
v -0.010845 0.105000 0.016732
v -0.010475 0.105000 0.017102
v -0.010047 0.105000 0.017402
v -0.009573 0.105000 0.017623
v -0.010475 0.105000 -0.017102
v -0.010845 0.105000 -0.016732
v -0.011501 0.105000 -0.015325
v -0.011145 0.105000 -0.016304
v -0.011366 0.105000 -0.015830
v 0.019022 0.000000 -0.002298
v -0.008026 0.000000 0.017758
v -0.008547 0.000000 0.017804
v -0.011145 0.000000 0.016304
v -0.011366 0.000000 0.015830
v -0.011501 0.000000 0.015325
v -0.011366 0.000000 -0.015830
v -0.011145 0.000000 -0.016304
v -0.010845 0.000000 -0.016732
v -0.010475 0.000000 -0.017102
v -0.010047 0.000000 -0.017402
v -0.009573 0.000000 -0.017623
v -0.009068 0.000000 -0.017758
v -0.008547 0.000000 -0.017804
v -0.008026 0.000000 -0.017758
v -0.007521 0.000000 -0.017623
v 0.019392 0.000000 0.001928
v 0.019022 0.000000 0.002298
v 0.019392 0.000000 -0.001928
v 0.019692 0.000000 -0.001500
v 0.019913 0.000000 -0.001026
v -0.007521 0.000000 0.017623
v -0.009573 0.000000 0.017623
v -0.010047 0.000000 0.017402
v -0.010475 0.000000 0.017102
v -0.011501 0.000000 -0.015325
v 0.020048 0.000000 -0.000521
v 0.020094 0.000000 0.000000
v 0.020048 0.000000 0.000521
v -0.009068 0.000000 0.017758
v -0.010845 0.000000 0.016732
v 0.019913 0.000000 0.001026
v 0.019692 0.000000 0.001500
v -0.010675 0.103000 -0.002884
v 0.002835 0.103000 -0.010684
v 0.010617 0.103000 0.002894
v -0.002918 0.103000 0.010651
v 0.000196 0.103000 0.006409
v -0.000923 0.103000 0.004572
v -0.002810 0.103000 0.005604
v 0.003392 0.103000 -0.005655
v 0.002360 0.103000 -0.007542
v 0.003988 0.103000 0.004277
v -0.001494 0.103000 -0.005317
v -0.005261 0.103000 -0.003142
v -0.004254 0.103000 -0.001299
v -0.006066 0.103000 -0.000137
v -0.000462 0.103000 -0.003430
v -0.004223 0.103000 -0.001144
v -0.000307 0.103000 -0.003462
v 0.002956 0.103000 0.002390
v 0.004836 0.103000 0.001247
v 0.001555 0.103000 -0.004537
v 0.001548 0.103000 -0.004649
v -0.003079 0.103000 0.000736
v 0.000750 0.103000 -0.001532
v 0.000541 0.103000 -0.006492
v 0.002360 0.105000 -0.007542
v 0.000541 0.105000 -0.006492
v 0.003392 0.105000 -0.005655
v 0.001548 0.105000 -0.004649
v 0.001555 0.105000 -0.004537
v -0.000307 0.105000 -0.003462
v 0.004836 0.105000 0.001247
v 0.002956 0.105000 0.002390
v 0.003988 0.105000 0.004277
v 0.000196 0.105000 0.006409
v -0.000923 0.105000 0.004572
v -0.002810 0.105000 0.005604
v -0.006066 0.105000 -0.000137
v -0.004223 0.105000 -0.001144
v -0.003079 0.105000 0.000736
v 0.000750 0.105000 -0.001532
v -0.001494 0.105000 -0.005317
v -0.005261 0.105000 -0.003142
v -0.000462 0.105000 -0.003430
v -0.004254 0.105000 -0.001299
vn -1.0000 0.0000 0.0000
vn 0.5000 -0.0000 0.8660
vn 0.5000 0.0000 -0.8660
vn 0.0000 1.0000 -0.0000
vn 0.0000 -1.0000 0.0000
vn 0.4226 0.0000 -0.9063
vn 0.2588 0.0000 -0.9659
vn 0.2587 0.0000 -0.9660
vn 0.2586 0.0000 -0.9660
vn 0.0873 0.0000 -0.9962
vn 0.0874 0.0000 -0.9962
vn -0.0873 0.0000 -0.9962
vn -0.0872 0.0000 -0.9962
vn -0.0871 0.0000 -0.9962
vn -0.0874 0.0000 -0.9962
vn -0.2588 0.0000 -0.9659
vn -0.2587 0.0000 -0.9660
vn -0.4226 0.0000 -0.9063
vn -0.5737 0.0000 -0.8191
vn -0.5736 0.0000 -0.8191
vn -0.5740 0.0000 -0.8189
vn -0.7071 0.0000 -0.7071
vn -0.8189 0.0000 -0.5740
vn -0.8191 0.0000 -0.5737
vn -0.9063 0.0000 -0.4226
vn -0.9659 -0.0000 -0.2588
vn -0.9660 0.0000 -0.2587
vn -0.9962 0.0000 -0.0872
vn -0.9962 0.0000 -0.0873
vn -0.9962 -0.0000 0.0872
vn -0.9962 0.0000 0.0873
vn -0.9659 -0.0000 0.2588
vn -0.9660 0.0000 0.2587
vn -0.9063 -0.0000 0.4226
vn -0.8189 -0.0000 0.5740
vn -0.8191 -0.0000 0.5737
vn -0.7071 -0.0000 0.7071
vn -0.5737 -0.0000 0.8191
vn -0.5740 -0.0000 0.8189
vn -0.4226 -0.0000 0.9063
vn -0.2587 -0.0000 0.9660
vn -0.2588 -0.0000 0.9659
vn -0.0871 -0.0000 0.9962
vn -0.0874 -0.0000 0.9962
vn -0.0873 -0.0000 0.9962
vn -0.0872 -0.0000 0.9962
vn 0.0873 -0.0000 0.9962
vn 0.0874 -0.0000 0.9962
vn 0.2587 -0.0000 0.9660
vn 0.2586 -0.0000 0.9660
vn 0.2588 -0.0000 0.9659
vn 0.4226 -0.0000 0.9063
vn 0.5740 -0.0000 0.8189
vn 0.7071 -0.0000 0.7071
vn 0.8191 -0.0000 0.5736
vn 0.9063 0.0000 0.4226
vn 0.9660 -0.0000 0.2587
vn 0.9659 0.0000 0.2588
vn 0.9962 0.0000 0.0873
vn 0.9962 -0.0000 -0.0873
vn 0.9660 0.0000 -0.2587
vn 0.9659 0.0000 -0.2588
vn 0.9063 0.0000 -0.4226
vn 0.8191 0.0000 -0.5736
vn 0.8191 0.0000 -0.5737
vn 0.7071 0.0000 -0.7071
vn 0.5740 0.0000 -0.8189
vn -0.8676 0.0000 0.4973
vn -0.4972 0.0000 -0.8676
vn 0.8676 0.0000 -0.4972
vn 0.0000 1.0000 -0.0001
vn -0.4999 0.0000 -0.8661
vn 0.8774 0.0000 -0.4798
vn 0.4792 0.0000 0.8777
vn 0.4793 0.0000 0.8776
vn -0.8777 0.0000 0.4792
vn -0.8775 0.0000 0.4795
vn -0.5000 0.0000 -0.8660
vn 0.8698 0.0000 -0.4934
vn 0.5195 0.0000 0.8545
vn 0.4901 0.0000 0.8717
vn -0.8543 0.0000 0.5198
vn -0.8542 -0.0000 0.5199
vn 0.4798 0.0000 0.8774
vn -0.8698 0.0000 0.4933
vn -0.4792 0.0000 -0.8777
vn -0.4795 0.0000 -0.8775
vn 0.8544 0.0000 -0.5195
vn 0.8545 -0.0000 -0.5194
vn -0.5096 0.0000 -0.8604
vn -0.8771 0.0000 0.4803
vn 0.4899 0.0000 0.8718
usemtl None.002
s 1
f 1//1 2//1 3//1
f 3//1 2//1 4//1
f 5//2 6//2 7//2
f 7//2 6//2 8//2
f 9//3 10//3 11//3
f 11//3 10//3 12//3
f 10//4 13//4 14//4
f 8//4 14//4 7//4
f 7//4 14//4 15//4
f 16//4 17//4 14//4
f 14//4 17//4 18//4
f 14//4 18//4 19//4
f 20//4 21//4 15//4
f 19//4 22//4 14//4
f 14//4 22//4 23//4
f 14//4 23//4 10//4
f 10//4 9//4 13//4
f 13//4 9//4 3//4
f 13//4 3//4 24//4
f 24//4 3//4 4//4
f 24//4 4//4 15//4
f 15//4 4//4 25//4
f 15//4 25//4 26//4
f 9//4 27//4 3//4
f 3//4 27//4 28//4
f 3//4 28//4 29//4
f 29//4 30//4 3//4
f 3//4 30//4 31//4
f 3//4 31//4 32//4
f 8//4 33//4 14//4
f 14//4 33//4 34//4
f 14//4 34//4 35//4
f 35//4 36//4 14//4
f 14//4 36//4 37//4
f 14//4 37//4 16//4
f 21//4 38//4 15//4
f 15//4 38//4 39//4
f 15//4 39//4 7//4
f 26//4 40//4 15//4
f 15//4 40//4 41//4
f 15//4 41//4 42//4
f 42//4 43//4 15//4
f 15//4 43//4 44//4
f 15//4 44//4 20//4
f 32//4 45//4 3//4
f 3//4 45//4 46//4
f 3//4 46//4 47//4
f 47//4 46//4 48//4
f 47//4 48//4 49//4
f 1//5 12//5 50//5
f 51//5 52//5 53//5
f 54//5 55//5 5//5
f 5//5 55//5 2//5
f 5//5 2//5 1//5
f 56//5 57//5 58//5
f 59//5 60//5 1//5
f 1//5 60//5 61//5
f 61//5 62//5 1//5
f 1//5 62//5 63//5
f 1//5 63//5 64//5
f 64//5 65//5 1//5
f 1//5 65//5 11//5
f 1//5 11//5 12//5
f 66//5 67//5 1//5
f 1//5 67//5 6//5
f 1//5 6//5 5//5
f 50//5 68//5 1//5
f 1//5 68//5 69//5
f 1//5 69//5 70//5
f 54//5 5//5 53//5
f 53//5 5//5 71//5
f 53//5 71//5 51//5
f 72//5 73//5 74//5
f 59//5 1//5 58//5
f 58//5 1//5 75//5
f 58//5 75//5 56//5
f 70//5 76//5 1//5
f 1//5 76//5 77//5
f 1//5 77//5 78//5
f 52//5 79//5 53//5
f 53//5 79//5 72//5
f 53//5 72//5 80//5
f 80//5 72//5 74//5
f 78//5 81//5 1//5
f 1//5 81//5 82//5
f 1//5 82//5 66//5
f 9//6 11//6 65//6
f 9//6 65//6 27//6
f 27//7 65//8 64//8
f 27//7 64//8 28//9
f 28//10 64//10 63//10
f 28//10 63//10 29//11
f 29//12 63//13 62//14
f 29//12 62//14 30//15
f 30//16 62//17 61//17
f 30//16 61//17 31//17
f 31//18 61//18 60//18
f 31//18 60//18 32//18
f 32//19 60//20 59//20
f 32//19 59//20 45//21
f 45//22 59//22 58//22
f 45//22 58//22 46//22
f 46//23 58//23 57//23
f 46//23 57//23 48//24
f 48//25 57//25 56//25
f 48//25 56//25 49//25
f 49//26 56//27 75//26
f 49//26 75//26 47//27
f 47//28 75//29 1//28
f 47//28 1//28 3//29
f 4//30 2//31 55//30
f 4//30 55//30 25//31
f 25//32 55//33 54//32
f 25//32 54//32 26//33
f 26//34 54//34 53//34
f 26//34 53//34 40//34
f 40//35 53//36 80//35
f 40//35 80//35 41//35
f 41//37 80//37 74//37
f 41//37 74//37 42//37
f 42//38 74//39 73//39
f 42//38 73//39 43//39
f 43//40 73//40 72//40
f 43//40 72//40 44//40
f 44//41 72//41 79//42
f 44//41 79//42 20//41
f 20//43 79//44 52//45
f 20//43 52//45 21//46
f 21//47 52//48 51//47
f 21//47 51//47 38//47
f 38//49 51//50 71//51
f 38//49 71//51 39//49
f 39//52 71//52 5//52
f 39//52 5//52 7//52
f 8//53 6//53 67//53
f 8//53 67//53 33//53
f 33//54 67//54 66//54
f 33//54 66//54 34//54
f 34//55 66//55 82//55
f 34//55 82//55 35//55
f 35//56 82//56 81//56
f 35//56 81//56 36//56
f 36//57 81//58 78//57
f 36//57 78//57 37//58
f 37//59 78//59 77//59
f 37//59 77//59 16//59
f 16//60 77//60 76//60
f 16//60 76//60 17//60
f 17//61 76//62 70//61
f 17//61 70//61 18//62
f 18//63 70//63 69//63
f 18//63 69//63 19//63
f 19//64 69//64 68//64
f 19//64 68//64 22//65
f 22//66 68//66 50//66
f 22//66 50//66 23//66
f 23//67 50//67 12//67
f 23//67 12//67 10//67
f 83//2 84//2 24//2
f 24//2 84//2 13//2
f 84//68 85//68 13//68
f 13//68 85//68 14//68
f 85//69 86//69 14//69
f 14//69 86//69 15//69
f 86//70 83//70 15//70
f 15//70 83//70 24//70
f 87//4 88//4 89//4
f 85//4 84//4 90//4
f 90//4 84//4 91//4
f 86//4 85//4 92//4
f 93//4 84//4 94//4
f 94//4 84//4 83//4
f 95//71 96//4 97//4
f 97//4 96//4 98//4
f 95//71 94//4 96//4
f 96//4 94//4 83//4
f 96//4 83//4 89//4
f 89//4 83//4 86//4
f 89//4 86//4 87//4
f 87//4 86//4 92//4
f 93//4 97//4 99//4
f 100//4 92//4 101//4
f 101//4 92//4 85//4
f 101//4 85//4 102//4
f 102//4 85//4 90//4
f 102//4 90//4 103//4
f 98//4 104//4 97//4
f 97//4 104//4 105//4
f 97//4 105//4 99//4
f 91//4 84//4 106//4
f 106//4 84//4 93//4
f 106//4 93//4 103//4
f 103//4 93//4 99//4
f 103//4 99//4 102//4
f 91//72 106//72 107//72
f 107//72 106//72 108//72
f 90//73 91//73 109//73
f 109//73 91//73 107//73
f 103//74 90//75 110//74
f 110//74 90//75 109//74
f 106//76 103//77 108//77
f 108//77 103//77 110//76
f 102//78 99//78 111//78
f 111//78 99//78 112//78
f 101//79 102//79 113//79
f 113//79 102//79 111//79
f 100//80 101//80 114//80
f 114//80 101//80 113//80
f 92//73 100//73 115//73
f 115//73 100//73 114//73
f 87//81 92//81 116//81
f 116//81 92//81 115//81
f 88//82 87//83 117//83
f 117//83 87//83 116//83
f 89//84 88//84 118//84
f 118//84 88//84 117//84
f 96//85 89//85 119//85
f 119//85 89//85 118//85
f 98//86 96//86 120//87
f 120//87 96//86 119//87
f 104//88 98//89 121//89
f 121//89 98//89 120//88
f 105//90 104//90 122//90
f 122//90 104//90 121//90
f 99//91 105//91 112//91
f 112//91 105//91 122//91
f 93//78 94//78 123//78
f 123//78 94//78 124//78
f 97//73 93//73 125//73
f 125//73 93//73 123//73
f 95//92 97//92 126//92
f 126//92 97//92 125//92
f 94//76 95//77 124//77
f 124//77 95//77 126//76
f 111//4 112//4 113//4
f 113//4 112//4 122//4
f 113//4 122//4 114//4
f 120//4 119//4 121//4
f 121//4 119//4 118//4
f 121//4 118//4 117//4
f 116//4 115//4 117//4
f 117//4 115//4 114//4
f 117//4 114//4 121//4
f 121//4 114//4 122//4
f 108//4 110//4 107//4
f 107//4 110//4 109//4
f 124//4 126//4 123//4
f 123//4 126//4 125//4
