# Blender v3.0.1 OBJ File: ''
# www.blender.org
mtllib 40x40_triangle.mtl
o 40x40_triangle
v -0.011547 0.000000 -0.014804
v -0.011547 -0.000000 0.014804
v -0.011547 0.105000 -0.014804
v -0.011547 0.105000 0.014804
v -0.007047 -0.000000 0.017402
v 0.018594 -0.000000 0.002598
v -0.007047 0.105000 0.017402
v 0.018594 0.105000 0.002598
v -0.007047 0.105000 -0.017402
v 0.018594 0.105000 -0.002598
v -0.007047 0.000000 -0.017402
v 0.018594 -0.000000 -0.002598
v 0.002835 0.105000 -0.010684
v 0.010617 0.105000 0.002894
v -0.002918 0.105000 0.010651
v 0.020094 0.105000 0.000000
v 0.020048 0.105000 -0.000521
v 0.019913 0.105000 -0.001026
v 0.019692 0.105000 -0.001500
v -0.009068 0.105000 0.017758
v -0.008547 0.105000 0.017804
v 0.019392 0.105000 -0.001928
v 0.019022 0.105000 -0.002298
v -0.010675 0.105000 -0.002884
v -0.011501 0.105000 0.015325
v -0.011366 0.105000 0.015830
v -0.007521 0.105000 -0.017623
v -0.008026 0.105000 -0.017758
v -0.008547 0.105000 -0.017804
v -0.009068 0.105000 -0.017758
v -0.009573 0.105000 -0.017623
v -0.010047 0.105000 -0.017402
v 0.019022 0.105000 0.002298
v 0.019392 0.105000 0.001928
v 0.019692 0.105000 0.001500
v 0.019913 0.105000 0.001026
v 0.020048 0.105000 0.000521
v -0.008026 0.105000 0.017758
v -0.007521 0.105000 0.017623
v -0.011145 0.105000 0.016304
v -0.010845 0.105000 0.016732
v -0.010475 0.105000 0.017102
v -0.010047 0.105000 0.017402
v -0.009573 0.105000 0.017623
v -0.010475 0.105000 -0.017102
v -0.010845 0.105000 -0.016732
v -0.011501 0.105000 -0.015325
v -0.011145 0.105000 -0.016304
v -0.011366 0.105000 -0.015830
v 0.019022 -0.000000 -0.002298
v -0.008026 -0.000000 0.017758
v -0.008547 -0.000000 0.017804
v -0.011145 -0.000000 0.016304
v -0.011366 -0.000000 0.015830
v -0.011501 -0.000000 0.015325
v -0.011366 0.000000 -0.015830
v -0.011145 0.000000 -0.016304
v -0.010845 0.000000 -0.016732
v -0.010475 0.000000 -0.017102
v -0.010047 0.000000 -0.017402
v -0.009573 0.000000 -0.017623
v -0.009068 0.000000 -0.017758
v -0.008547 0.000000 -0.017804
v -0.008026 0.000000 -0.017758
v -0.007521 0.000000 -0.017623
v 0.019392 -0.000000 0.001928
v 0.019022 -0.000000 0.002298
v 0.019392 -0.000000 -0.001928
v 0.019692 -0.000000 -0.001500
v 0.019913 -0.000000 -0.001026
v -0.007521 -0.000000 0.017623
v -0.009573 -0.000000 0.017623
v -0.010047 -0.000000 0.017402
v -0.010475 -0.000000 0.017102
v -0.011501 0.000000 -0.015325
v 0.020048 -0.000000 -0.000521
v 0.020094 -0.000000 0.000000
v 0.020048 -0.000000 0.000521
v -0.009068 -0.000000 0.017758
v -0.010845 -0.000000 0.016732
v 0.019913 -0.000000 0.001026
v 0.019692 -0.000000 0.001500
v -0.010675 0.103000 -0.002884
v 0.002835 0.103000 -0.010684
v 0.010617 0.103000 0.002894
v -0.002918 0.103000 0.010651
v 0.000196 0.103000 0.006409
v -0.000923 0.103000 0.004572
v -0.002810 0.103000 0.005604
v 0.003392 0.103000 -0.005655
v 0.002360 0.103000 -0.007542
v 0.003988 0.103000 0.004277
v -0.001494 0.103000 -0.005317
v -0.005261 0.103000 -0.003142
v -0.004254 0.103000 -0.001299
v -0.006066 0.103000 -0.000137
v -0.000462 0.103000 -0.003430
v -0.004223 0.103000 -0.001144
v -0.000307 0.103000 -0.003462
v 0.002956 0.103000 0.002390
v 0.004836 0.103000 0.001247
v 0.001555 0.103000 -0.004537
v 0.001548 0.103000 -0.004649
v -0.003079 0.103000 0.000736
v 0.000750 0.103000 -0.001532
v 0.000541 0.103000 -0.006492
v 0.002360 0.105000 -0.007542
v 0.000541 0.105000 -0.006492
v 0.003392 0.105000 -0.005655
v 0.001548 0.105000 -0.004649
v 0.001555 0.105000 -0.004537
v -0.000307 0.105000 -0.003462
v 0.004836 0.105000 0.001247
v 0.002956 0.105000 0.002390
v 0.003988 0.105000 0.004277
v 0.000196 0.105000 0.006409
v -0.000923 0.105000 0.004572
v -0.002810 0.105000 0.005604
v -0.006066 0.105000 -0.000137
v -0.004223 0.105000 -0.001144
v -0.003079 0.105000 0.000736
v 0.000750 0.105000 -0.001532
v -0.001494 0.105000 -0.005317
v -0.005261 0.105000 -0.003142
v -0.000462 0.105000 -0.003430
v -0.004254 0.105000 -0.001299
vn -1.0000 0.0000 -0.0000
vn 0.5000 -0.0000 0.8660
vn 0.5000 0.0000 -0.8660
vn 0.0000 1.0000 -0.0000
vn 0.0000 1.0000 -0.0001
vn -0.0000 -1.0000 -0.0000
vn 0.4226 0.0000 -0.9063
vn 0.2588 0.0000 -0.9659
vn 0.0872 0.0000 -0.9962
vn -0.0872 0.0000 -0.9962
vn -0.2588 0.0000 -0.9659
vn -0.4226 0.0000 -0.9063
vn -0.5736 0.0000 -0.8191
vn -0.5736 0.0000 -0.8192
vn -0.7071 0.0000 -0.7071
vn -0.8192 0.0000 -0.5736
vn -0.9063 0.0000 -0.4226
vn -0.9659 0.0000 -0.2588
vn -0.9962 0.0000 -0.0872
vn -0.9962 0.0000 0.0872
vn -0.9659 -0.0000 0.2588
vn -0.9063 0.0000 0.4226
vn -0.8192 0.0000 0.5736
vn -0.7071 -0.0000 0.7071
vn -0.5736 -0.0000 0.8192
vn -0.4226 -0.0000 0.9063
vn -0.2588 -0.0000 0.9659
vn -0.0872 -0.0000 0.9962
vn 0.0872 -0.0000 0.9962
vn 0.2588 -0.0000 0.9659
vn 0.4226 -0.0000 0.9063
vn 0.5736 -0.0000 0.8192
vn 0.7071 -0.0000 0.7071
vn 0.8191 -0.0000 0.5736
vn 0.9063 0.0000 0.4226
vn 0.9659 0.0000 0.2588
vn 0.9962 0.0000 0.0872
vn 0.9962 -0.0000 -0.0872
vn 0.9659 0.0000 -0.2588
vn 0.9063 0.0000 -0.4226
vn 0.8191 0.0000 -0.5736
vn 0.8192 -0.0000 -0.5736
vn 0.7071 -0.0000 -0.7071
vn 0.5736 0.0000 -0.8192
vn -0.8676 0.0000 0.4972
vn -0.4972 0.0000 -0.8676
vn 0.8676 0.0000 -0.4972
vn 0.0000 1.0000 0.0001
vn -0.5000 0.0000 -0.8660
vn 0.8774 0.0000 -0.4797
vn 0.4792 0.0000 0.8777
vn -0.8777 0.0000 0.4792
vn 0.8698 -0.0000 -0.4935
vn 0.5195 0.0000 0.8544
vn 0.4900 -0.0000 0.8717
vn -0.8542 0.0000 0.5200
vn 0.4797 0.0000 0.8774
vn -0.8698 0.0000 0.4934
vn -0.4792 0.0000 -0.8777
vn 0.8544 0.0000 -0.5195
vn -0.5097 0.0000 -0.8604
vn -0.8772 0.0000 0.4802
usemtl None
s off
f 1//1 2//1 3//1
f 3//1 2//1 4//1
f 5//2 6//2 7//2
f 7//2 6//2 8//2
f 9//3 10//3 11//3
f 11//3 10//3 12//3
f 10//4 13//4 14//4
f 8//4 14//4 7//4
f 7//4 14//4 15//4
f 16//4 17//4 14//4
f 14//4 17//4 18//4
f 14//4 18//4 19//4
f 20//4 21//4 15//4
f 19//4 22//4 14//4
f 14//4 22//4 23//4
f 14//4 23//4 10//4
f 10//4 9//4 13//4
f 13//4 9//4 3//4
f 13//4 3//4 24//4
f 24//4 3//4 4//4
f 24//4 4//4 15//4
f 15//4 4//4 25//4
f 15//4 25//4 26//4
f 9//4 27//4 3//4
f 3//4 27//4 28//4
f 3//4 28//4 29//4
f 29//4 30//4 3//4
f 3//4 30//4 31//4
f 3//4 31//4 32//4
f 8//4 33//4 14//4
f 14//4 33//4 34//4
f 14//4 34//4 35//4
f 35//4 36//4 14//4
f 14//4 36//4 37//4
f 14//4 37//4 16//4
f 21//4 38//4 15//4
f 15//4 38//4 39//4
f 15//4 39//4 7//4
f 26//4 40//4 15//4
f 15//4 40//4 41//4
f 15//4 41//4 42//4
f 42//4 43//4 15//4
f 15//4 43//4 44//4
f 15//4 44//4 20//4
f 32//4 45//4 3//4
f 3//4 45//4 46//4
f 3//4 46//4 47//4
f 47//4 46//4 48//4
f 47//5 48//5 49//5
f 1//6 12//6 50//6
f 51//6 52//6 53//6
f 54//6 55//6 5//6
f 5//6 55//6 2//6
f 5//6 2//6 1//6
f 56//6 57//6 58//6
f 59//6 60//6 1//6
f 1//6 60//6 61//6
f 61//6 62//6 1//6
f 1//6 62//6 63//6
f 1//6 63//6 64//6
f 64//6 65//6 1//6
f 1//6 65//6 11//6
f 1//6 11//6 12//6
f 66//6 67//6 1//6
f 1//6 67//6 6//6
f 1//6 6//6 5//6
f 50//6 68//6 1//6
f 1//6 68//6 69//6
f 1//6 69//6 70//6
f 54//6 5//6 53//6
f 53//6 5//6 71//6
f 53//6 71//6 51//6
f 72//6 73//6 74//6
f 59//6 1//6 58//6
f 58//6 1//6 75//6
f 58//6 75//6 56//6
f 70//6 76//6 1//6
f 1//6 76//6 77//6
f 1//6 77//6 78//6
f 52//6 79//6 53//6
f 53//6 79//6 72//6
f 53//6 72//6 80//6
f 80//6 72//6 74//6
f 78//6 81//6 1//6
f 1//6 81//6 82//6
f 1//6 82//6 66//6
f 9//7 11//7 65//7
f 9//7 65//7 27//7
f 27//8 65//8 64//8
f 27//8 64//8 28//8
f 28//9 64//9 63//9
f 28//9 63//9 29//9
f 29//10 63//10 62//10
f 29//10 62//10 30//10
f 30//11 62//11 61//11
f 30//11 61//11 31//11
f 31//12 61//12 60//12
f 31//12 60//12 32//12
f 32//13 60//13 59//13
f 32//14 59//14 45//14
f 45//15 59//15 58//15
f 45//15 58//15 46//15
f 46//16 58//16 57//16
f 46//16 57//16 48//16
f 48//17 57//17 56//17
f 48//17 56//17 49//17
f 49//18 56//18 75//18
f 49//18 75//18 47//18
f 47//19 75//19 1//19
f 47//19 1//19 3//19
f 4//20 2//20 55//20
f 4//20 55//20 25//20
f 25//21 55//21 54//21
f 25//21 54//21 26//21
f 26//22 54//22 53//22
f 26//22 53//22 40//22
f 40//23 53//23 80//23
f 40//23 80//23 41//23
f 41//24 80//24 74//24
f 41//24 74//24 42//24
f 42//25 74//25 73//25
f 42//25 73//25 43//25
f 43//26 73//26 72//26
f 43//26 72//26 44//26
f 44//27 72//27 79//27
f 44//27 79//27 20//27
f 20//28 79//28 52//28
f 20//28 52//28 21//28
f 21//29 52//29 51//29
f 21//29 51//29 38//29
f 38//30 51//30 71//30
f 38//30 71//30 39//30
f 39//31 71//31 5//31
f 39//31 5//31 7//31
f 8//32 6//32 67//32
f 8//32 67//32 33//32
f 33//33 67//33 66//33
f 33//33 66//33 34//33
f 34//34 66//34 82//34
f 34//34 82//34 35//34
f 35//35 82//35 81//35
f 35//35 81//35 36//35
f 36//36 81//36 78//36
f 36//36 78//36 37//36
f 37//37 78//37 77//37
f 37//37 77//37 16//37
f 16//38 77//38 76//38
f 16//38 76//38 17//38
f 17//39 76//39 70//39
f 17//39 70//39 18//39
f 18//40 70//40 69//40
f 18//40 69//40 19//40
f 19//41 69//41 68//41
f 19//42 68//42 22//42
f 22//43 68//43 50//43
f 22//43 50//43 23//43
f 23//44 50//44 12//44
f 23//44 12//44 10//44
f 83//2 84//2 24//2
f 24//2 84//2 13//2
f 84//45 85//45 13//45
f 13//45 85//45 14//45
f 85//46 86//46 14//46
f 14//46 86//46 15//46
f 86//47 83//47 15//47
f 15//47 83//47 24//47
f 87//4 88//4 89//4
f 85//4 84//4 90//4
f 90//4 84//4 91//4
f 86//4 85//4 92//4
f 93//4 84//4 94//4
f 94//4 84//4 83//4
f 95//4 96//4 97//4
f 97//48 96//48 98//48
f 95//4 94//4 96//4
f 96//4 94//4 83//4
f 96//4 83//4 89//4
f 89//4 83//4 86//4
f 89//4 86//4 87//4
f 87//4 86//4 92//4
f 93//4 97//4 99//4
f 100//4 92//4 101//4
f 101//4 92//4 85//4
f 101//4 85//4 102//4
f 102//4 85//4 90//4
f 102//4 90//4 103//4
f 98//4 104//4 97//4
f 97//4 104//4 105//4
f 97//4 105//4 99//4
f 91//4 84//4 106//4
f 106//4 84//4 93//4
f 106//4 93//4 103//4
f 103//4 93//4 99//4
f 103//4 99//4 102//4
f 91//49 106//49 107//49
f 107//49 106//49 108//49
f 90//50 91//50 109//50
f 109//50 91//50 107//50
f 103//51 90//51 110//51
f 110//51 90//51 109//51
f 106//52 103//52 108//52
f 108//52 103//52 110//52
f 102//49 99//49 111//49
f 111//49 99//49 112//49
f 101//53 102//53 113//53
f 113//53 102//53 111//53
f 100//54 101//54 114//54
f 114//54 101//54 113//54
f 92//50 100//50 115//50
f 115//50 100//50 114//50
f 87//55 92//55 116//55
f 116//55 92//55 115//55
f 88//56 87//56 117//56
f 117//56 87//56 116//56
f 89//57 88//57 118//57
f 118//57 88//57 117//57
f 96//58 89//58 119//58
f 119//58 89//58 118//58
f 98//59 96//59 120//59
f 120//59 96//59 119//59
f 104//60 98//60 121//60
f 121//60 98//60 120//60
f 105//61 104//61 122//61
f 122//61 104//61 121//61
f 99//62 105//62 112//62
f 112//62 105//62 122//62
f 93//49 94//49 123//49
f 123//49 94//49 124//49
f 97//50 93//50 125//50
f 125//50 93//50 123//50
f 95//55 97//55 126//55
f 126//55 97//55 125//55
f 94//52 95//52 124//52
f 124//52 95//52 126//52
f 111//4 112//4 113//4
f 113//4 112//4 122//4
f 113//4 122//4 114//4
f 120//4 119//4 121//4
f 121//4 119//4 118//4
f 121//4 118//4 117//4
f 116//4 115//4 117//4
f 117//4 115//4 114//4
f 117//4 114//4 121//4
f 121//4 114//4 122//4
f 108//4 110//4 107//4
f 107//4 110//4 109//4
f 124//4 126//4 123//4
f 123//4 126//4 125//4
