# Blender v3.0.1 OBJ File: ''
# www.blender.org
mtllib 50x30_teardrop.mtl
o 50x30_teardrop
v -0.006243 0.105000 -0.019001
v -0.006243 0.000000 -0.019001
v -0.008688 0.000000 -0.018014
v -0.008688 0.105000 -0.018014
v -0.010983 0.000000 -0.016715
v -0.010983 0.105000 -0.016715
v -0.013086 0.000000 -0.015125
v -0.013086 0.105000 -0.015125
v -0.014962 0.000000 -0.013272
v -0.014962 0.105000 -0.013272
v -0.016578 0.000000 -0.011188
v -0.016578 0.105000 -0.011188
v -0.017905 0.000000 -0.008910
v -0.017905 0.105000 -0.008910
v -0.018922 0.000000 -0.006478
v -0.018922 0.105000 -0.006478
v -0.019610 0.000000 -0.003932
v -0.019610 0.105000 -0.003932
v -0.019957 0.000000 -0.001318
v -0.019957 0.105000 -0.001318
v -0.019957 0.000000 0.001318
v -0.019957 0.105000 0.001318
v -0.019610 0.000000 0.003932
v -0.019610 0.105000 0.003932
v -0.018922 0.000000 0.006478
v -0.018922 0.105000 0.006478
v -0.017905 0.000000 0.008910
v -0.017905 0.105000 0.008910
v -0.016578 0.000000 0.011188
v -0.016578 0.105000 0.011188
v -0.014962 0.000000 0.013272
v -0.014962 0.105000 0.013272
v -0.013086 0.000000 0.015125
v -0.013086 0.105000 0.015125
v -0.010983 0.000000 0.016715
v -0.010983 0.105000 0.016715
v -0.008688 0.000000 0.018014
v -0.008688 0.105000 0.018014
v -0.006243 0.000000 0.019001
v -0.006243 0.105000 0.019001
v 0.022500 0.105000 0.004330
v -0.002182 0.105000 0.018581
v 0.022500 0.000000 0.004330
v -0.002182 0.000000 0.018581
v 0.022500 0.000000 -0.004330
v -0.002182 0.000000 -0.018581
v 0.022500 0.105000 -0.004330
v -0.002182 0.105000 -0.018581
v -0.011975 0.105000 0.010656
v -0.011906 0.105000 -0.010794
v -0.003285 0.105000 -0.019051
v -0.003870 0.105000 -0.019184
v -0.004468 0.105000 -0.019246
v -0.005068 0.105000 -0.019236
v -0.005663 0.105000 -0.019153
v 0.023044 0.105000 0.003967
v 0.024619 0.105000 -0.001913
v -0.005663 0.105000 0.019153
v -0.005068 0.105000 0.019236
v -0.004468 0.105000 0.019246
v 0.009475 0.105000 0.010725
v -0.002720 0.105000 0.018849
v 0.009544 0.105000 -0.010794
v -0.002720 0.105000 -0.018849
v 0.024330 0.105000 0.002500
v 0.024619 0.105000 0.001913
v 0.024830 0.105000 0.001294
v 0.023967 0.105000 0.003044
v 0.025000 0.105000 0.000000
v 0.024957 0.105000 -0.000653
v 0.024330 0.105000 -0.002500
v 0.023967 0.105000 -0.003044
v 0.023536 0.105000 -0.003536
v 0.023044 0.105000 -0.003967
v -0.003870 0.105000 0.019184
v -0.003285 0.105000 0.019051
v 0.024957 0.105000 0.000653
v 0.023536 0.105000 0.003536
v 0.024830 0.105000 -0.001294
v -0.002720 0.000000 0.018849
v -0.003285 0.000000 0.019051
v -0.004468 0.000000 -0.019246
v -0.005068 0.000000 -0.019236
v -0.005663 0.000000 -0.019153
v -0.003870 0.000000 -0.019184
v -0.003285 0.000000 -0.019051
v -0.002720 0.000000 -0.018849
v -0.003870 0.000000 0.019184
v -0.004468 0.000000 0.019246
v -0.005068 0.000000 0.019236
v 0.023536 0.000000 -0.003536
v 0.023967 0.000000 -0.003044
v 0.023044 0.000000 -0.003967
v 0.024330 0.000000 -0.002500
v 0.024619 0.000000 -0.001913
v 0.023044 0.000000 0.003967
v -0.005663 0.000000 0.019153
v 0.024830 0.000000 -0.001294
v 0.023967 0.000000 0.003044
v 0.023536 0.000000 0.003536
v 0.024957 0.000000 -0.000653
v 0.025000 0.000000 0.000000
v 0.024957 0.000000 0.000653
v 0.024830 0.000000 0.001294
v 0.024619 0.000000 0.001913
v 0.024330 0.000000 0.002500
v 0.009544 0.103000 -0.010794
v -0.004275 0.103000 -0.010794
v -0.011906 0.103000 -0.010794
v 0.009475 0.103000 0.010725
v 0.009524 0.103000 -0.004641
v -0.011975 0.103000 0.010656
v -0.004275 0.103000 0.010681
v -0.011926 0.103000 -0.004641
v 0.000262 0.103000 -0.007631
v -0.002625 0.103000 -0.007631
v -0.002694 0.103000 -0.004744
v -0.004275 0.103000 -0.004641
v 0.000194 0.103000 -0.004675
v 0.006312 0.103000 -0.004675
v 0.006381 0.103000 -0.007631
v 0.003494 0.103000 -0.007631
v 0.003425 0.103000 -0.004744
v 0.000400 0.103000 -0.004606
v 0.003356 0.103000 -0.004606
v -0.002763 0.103000 -0.004537
v -0.002694 0.103000 -0.001513
v 0.000331 0.103000 -0.001650
v 0.000262 0.103000 -0.001444
v 0.003287 0.103000 -0.001581
v -0.002694 0.103000 0.007494
v 0.006312 0.103000 0.007563
v 0.006381 0.103000 -0.001513
v 0.003494 0.103000 -0.001513
v 0.003425 0.103000 0.004537
v 0.000331 0.103000 0.004606
v -0.008744 0.103000 -0.001513
v -0.008813 0.103000 0.007494
v -0.005925 0.103000 0.007563
v -0.005856 0.103000 0.004606
v -0.002763 0.103000 0.004537
v -0.005788 0.103000 -0.001581
v -0.005719 0.103000 -0.004606
v -0.005925 0.103000 -0.004675
v -0.005856 0.103000 -0.007631
v -0.008744 0.103000 -0.007631
v -0.008813 0.103000 -0.004744
v 0.006381 0.105000 -0.007631
v 0.003494 0.105000 -0.007631
v 0.006312 0.105000 -0.004675
v 0.003425 0.105000 -0.004744
v 0.006381 0.105000 -0.001513
v 0.003494 0.105000 -0.001513
v 0.006312 0.105000 0.007563
v -0.002694 0.105000 0.007494
v -0.002763 0.105000 0.004537
v -0.005856 0.105000 0.004606
v -0.005925 0.105000 0.007563
v -0.008813 0.105000 0.007494
v -0.008744 0.105000 -0.001513
v -0.005788 0.105000 -0.001581
v -0.005719 0.105000 -0.004606
v -0.002763 0.105000 -0.004537
v -0.002694 0.105000 -0.001513
v 0.000262 0.105000 -0.001444
v 0.000331 0.105000 0.004606
v 0.003425 0.105000 0.004537
v 0.003356 0.105000 -0.004606
v 0.000400 0.105000 -0.004606
v 0.003287 0.105000 -0.001581
v 0.000331 0.105000 -0.001650
v 0.000262 0.105000 -0.007631
v -0.002625 0.105000 -0.007631
v 0.000194 0.105000 -0.004675
v -0.002694 0.105000 -0.004744
v -0.005856 0.105000 -0.007631
v -0.008744 0.105000 -0.007631
v -0.005925 0.105000 -0.004675
v -0.008813 0.105000 -0.004744
vn -0.3743 0.0000 -0.9273
vn -0.4926 0.0000 -0.8703
vn -0.6031 0.0000 -0.7977
vn -0.7027 0.0000 -0.7115
vn -0.7902 0.0000 -0.6128
vn -0.8641 0.0000 -0.5034
vn -0.8638 0.0000 -0.5038
vn -0.9226 0.0000 -0.3858
vn -0.9228 0.0000 -0.3854
vn -0.9654 0.0000 -0.2609
vn -0.9913 -0.0000 -0.1316
vn -1.0000 -0.0000 0.0000
vn -0.9913 0.0000 0.1316
vn -0.9654 0.0000 0.2609
vn -0.9228 -0.0000 0.3854
vn -0.9226 -0.0000 0.3858
vn -0.8641 -0.0000 0.5034
vn -0.8638 0.0000 0.5038
vn -0.7902 -0.0000 0.6128
vn -0.7027 -0.0000 0.7115
vn -0.6031 -0.0000 0.7977
vn -0.4926 -0.0000 0.8703
vn -0.3743 -0.0000 0.9273
vn 0.5000 -0.0000 0.8660
vn 0.5000 0.0000 -0.8660
vn 0.0000 1.0000 0.0000
vn 0.0000 1.0000 -0.0001
vn 0.0000 -1.0000 0.0000
vn 0.5555 -0.0000 0.8315
vn 0.6589 -0.0000 0.7522
vn 0.6593 -0.0000 0.7519
vn 0.7522 -0.0000 0.6589
vn 0.8314 -0.0000 0.5557
vn 0.8316 -0.0000 0.5553
vn 0.8315 -0.0000 0.5555
vn 0.8969 -0.0000 0.4421
vn 0.8969 0.0000 0.4422
vn 0.9469 -0.0000 0.3215
vn 0.9469 0.0000 0.3214
vn 0.9808 -0.0000 0.1952
vn 0.9808 0.0000 0.1950
vn 0.9807 -0.0000 0.1953
vn 0.9978 0.0000 0.0657
vn 0.9978 -0.0000 -0.0657
vn 0.9808 -0.0000 -0.1950
vn 0.9807 0.0000 -0.1953
vn 0.9808 0.0000 -0.1952
vn 0.9469 -0.0000 -0.3215
vn 0.9469 -0.0000 -0.3214
vn 0.8969 0.0000 -0.4421
vn 0.8969 0.0000 -0.4422
vn 0.8315 0.0000 -0.5555
vn 0.8316 0.0000 -0.5553
vn 0.8314 0.0000 -0.5557
vn 0.7522 0.0000 -0.6589
vn 0.6589 0.0000 -0.7522
vn 0.6593 0.0000 -0.7519
vn 0.5555 -0.0000 -0.8315
vn 0.4470 -0.0000 -0.8946
vn 0.4471 0.0000 -0.8945
vn 0.4470 0.0000 -0.8945
vn 0.3367 0.0000 -0.9416
vn 0.2217 0.0000 -0.9751
vn 0.1031 0.0000 -0.9947
vn -0.0167 0.0000 -0.9999
vn -0.0171 0.0000 -0.9999
vn -0.0170 0.0000 -0.9999
vn -0.1369 -0.0000 -0.9906
vn -0.1370 0.0000 -0.9906
vn -0.2544 0.0000 -0.9671
vn -0.2544 -0.0000 0.9671
vn -0.1369 -0.0000 0.9906
vn -0.1370 -0.0000 0.9906
vn -0.0170 -0.0000 0.9999
vn -0.0167 -0.0000 0.9999
vn -0.0172 -0.0000 0.9999
vn 0.1031 -0.0000 0.9947
vn 0.2217 -0.0000 0.9751
vn 0.3367 -0.0000 0.9416
vn 0.4470 -0.0000 0.8945
vn 0.4471 -0.0000 0.8945
vn 0.4470 0.0000 0.8946
vn 0.0000 0.0000 1.0000
vn -1.0000 0.0000 -0.0032
vn -1.0000 0.0001 -0.0032
vn -1.0000 0.0000 -0.0033
vn 0.0032 0.0000 -1.0000
vn 0.0032 -0.0001 -1.0000
vn 1.0000 0.0000 0.0032
vn 1.0000 -0.0001 0.0032
vn 1.0000 0.0000 0.0033
vn 0.0000 1.0000 0.0001
vn 0.0000 1.0000 -0.0003
vn 0.0000 1.0000 0.0002
vn 0.0000 0.0000 -1.0000
vn 0.9997 0.0000 0.0233
vn -0.0239 0.0000 0.9997
vn -0.9997 0.0000 -0.0239
vn 1.0000 0.0000 0.0076
vn -0.0077 0.0000 1.0000
vn -0.9997 0.0000 0.0233
vn 0.0220 0.0000 0.9998
vn -1.0000 0.0000 -0.0077
vn -0.0230 0.0000 -0.9997
vn -0.9997 0.0000 -0.0228
vn 0.0233 0.0000 -0.9997
vn 0.9997 0.0000 -0.0228
vn 0.9999 0.0000 -0.0114
vn -0.0223 0.0000 -0.9998
vn -0.9999 0.0000 -0.0114
vn 0.9997 0.0000 0.0228
vn -0.0233 -0.0000 0.9997
vn -0.9997 0.0000 -0.0233
vn 0.9997 0.0000 0.0230
usemtl None.003
s 1
f 1//1 2//1 3//1
f 1//1 3//1 4//1
f 4//2 3//2 5//2
f 4//2 5//2 6//2
f 6//3 5//3 7//3
f 6//3 7//3 8//3
f 8//4 7//4 9//4
f 8//4 9//4 10//4
f 10//5 9//5 11//5
f 10//5 11//5 12//5
f 12//6 11//6 13//6
f 12//6 13//6 14//7
f 14//8 13//8 15//9
f 14//8 15//9 16//8
f 16//10 15//10 17//10
f 16//10 17//10 18//10
f 18//11 17//11 19//11
f 18//11 19//11 20//11
f 20//12 19//12 21//12
f 20//12 21//12 22//12
f 22//13 21//13 23//13
f 22//13 23//13 24//13
f 24//14 23//14 25//14
f 24//14 25//14 26//14
f 26//15 25//16 27//16
f 26//15 27//16 28//16
f 28//17 27//18 29//17
f 28//17 29//17 30//17
f 30//19 29//19 31//19
f 30//19 31//19 32//19
f 32//20 31//20 33//20
f 32//20 33//20 34//20
f 34//21 33//21 35//21
f 34//21 35//21 36//21
f 36//22 35//22 37//22
f 36//22 37//22 38//22
f 38//23 37//23 39//23
f 38//23 39//23 40//23
f 41//24 42//24 43//24
f 43//24 42//24 44//24
f 45//25 46//25 47//25
f 47//25 46//25 48//25
f 16//26 49//26 14//26
f 14//26 49//26 50//26
f 14//26 50//26 12//26
f 16//26 18//26 49//26
f 49//26 18//26 20//26
f 49//26 20//26 22//26
f 50//26 51//26 52//26
f 52//26 53//26 50//26
f 50//26 53//26 54//26
f 50//26 54//26 55//26
f 41//26 56//26 57//26
f 40//26 58//26 49//26
f 49//26 58//26 59//26
f 49//26 59//26 60//26
f 41//26 61//26 42//26
f 42//26 61//26 49//26
f 42//26 49//26 62//26
f 61//26 47//26 63//26
f 63//26 47//26 48//26
f 63//26 48//26 50//26
f 50//26 48//26 64//26
f 50//26 64//26 51//26
f 65//27 66//26 67//26
f 68//26 69//26 70//26
f 41//26 57//26 61//26
f 61//26 57//26 71//26
f 61//26 71//26 72//26
f 72//26 73//26 61//26
f 61//26 73//26 74//26
f 61//26 74//26 47//26
f 60//26 75//26 49//26
f 49//26 75//26 76//26
f 49//26 76//26 62//26
f 22//26 24//26 49//26
f 49//26 24//26 26//26
f 49//26 26//26 28//26
f 55//26 1//26 50//26
f 50//26 1//26 4//26
f 50//26 4//26 6//26
f 6//26 8//26 50//26
f 50//26 8//26 10//26
f 50//26 10//26 12//26
f 65//27 67//26 68//26
f 68//26 67//26 77//26
f 68//26 77//26 69//26
f 56//26 78//26 57//26
f 57//26 78//26 68//26
f 57//26 68//26 79//26
f 79//26 68//26 70//26
f 28//26 30//26 49//26
f 49//26 30//26 32//26
f 49//26 32//26 34//26
f 34//26 36//26 49//26
f 49//26 36//26 38//26
f 49//26 38//26 40//26
f 80//28 81//28 13//28
f 82//28 44//28 83//28
f 83//28 44//28 84//28
f 82//28 85//28 44//28
f 44//28 85//28 86//28
f 44//28 86//28 87//28
f 81//28 88//28 13//28
f 13//28 88//28 89//28
f 13//28 89//28 90//28
f 7//28 5//28 44//28
f 91//28 92//28 43//28
f 7//28 44//28 9//28
f 5//28 3//28 44//28
f 44//28 3//28 2//28
f 44//28 2//28 84//28
f 87//28 46//28 44//28
f 44//28 46//28 45//28
f 44//28 45//28 43//28
f 43//28 45//28 93//28
f 43//28 93//28 91//28
f 92//28 94//28 43//28
f 43//28 94//28 95//28
f 43//28 95//28 96//28
f 90//28 97//28 13//28
f 13//28 97//28 39//28
f 13//28 39//28 15//28
f 15//28 39//28 37//28
f 21//28 19//28 33//28
f 80//28 13//28 44//28
f 44//28 13//28 11//28
f 44//28 11//28 9//28
f 98//28 99//28 95//28
f 95//28 99//28 100//28
f 95//28 100//28 96//28
f 98//28 101//28 99//28
f 99//28 101//28 102//28
f 99//28 102//28 103//28
f 103//28 104//28 99//28
f 99//28 104//28 105//28
f 99//28 105//28 106//28
f 37//28 35//28 15//28
f 15//28 35//28 33//28
f 15//28 33//28 17//28
f 17//28 33//28 19//28
f 27//28 25//28 29//28
f 29//28 25//28 31//28
f 31//28 25//28 33//28
f 33//28 25//28 23//28
f 33//28 23//28 21//28
f 41//29 43//29 96//29
f 41//29 96//29 56//29
f 56//30 96//30 100//30
f 56//30 100//30 78//31
f 78//32 100//32 99//32
f 78//32 99//32 68//32
f 68//33 99//34 106//35
f 68//33 106//35 65//34
f 65//36 106//37 105//36
f 65//36 105//36 66//36
f 66//38 105//39 104//38
f 66//38 104//38 67//38
f 67//40 104//40 103//41
f 67//40 103//41 77//42
f 77//43 103//43 102//43
f 77//43 102//43 69//43
f 69//44 102//44 101//44
f 69//44 101//44 70//44
f 70//45 101//46 98//47
f 70//45 98//47 79//47
f 79//48 98//48 95//48
f 79//48 95//48 57//49
f 57//50 95//50 94//50
f 57//50 94//50 71//51
f 71//52 94//53 92//54
f 71//52 92//54 72//53
f 72//55 92//55 91//55
f 72//55 91//55 73//55
f 73//56 91//57 93//56
f 73//56 93//56 74//56
f 74//58 93//58 45//58
f 74//58 45//58 47//58
f 48//59 46//60 87//61
f 48//59 87//61 64//60
f 64//62 87//62 86//62
f 64//62 86//62 51//62
f 51//63 86//63 85//63
f 51//63 85//63 52//63
f 52//64 85//64 82//64
f 52//64 82//64 53//64
f 53//65 82//66 83//67
f 53//65 83//67 54//65
f 54//68 83//69 84//68
f 54//68 84//68 55//68
f 55//70 84//70 2//70
f 55//70 2//70 1//70
f 40//71 39//71 97//71
f 40//71 97//71 58//71
f 58//72 97//72 90//72
f 58//72 90//72 59//73
f 59//74 90//75 89//75
f 59//74 89//75 60//76
f 60//77 89//77 88//77
f 60//77 88//77 75//77
f 75//78 88//78 81//78
f 75//78 81//78 76//78
f 76//79 81//79 80//79
f 76//79 80//79 62//79
f 62//80 80//81 44//82
f 62//80 44//82 42//81
f 107//83 63//83 108//83
f 108//83 63//83 50//83
f 108//83 50//83 109//83
f 110//84 61//84 111//85
f 111//85 61//84 63//84
f 111//85 63//84 107//86
f 112//87 49//87 113//88
f 113//88 49//87 61//87
f 113//88 61//87 110//87
f 49//89 112//89 50//89
f 50//89 112//89 114//90
f 50//89 114//90 109//91
f 115//26 107//26 116//26
f 116//26 107//26 108//26
f 116//26 108//26 117//92
f 117//92 108//26 118//27
f 117//92 118//27 119//93
f 120//26 111//26 121//26
f 121//26 111//26 107//26
f 121//26 107//26 122//26
f 122//26 107//26 115//26
f 122//26 115//26 123//94
f 123//94 115//26 119//93
f 123//94 119//93 120//26
f 120//26 119//93 111//26
f 118//27 124//26 125//94
f 126//27 127//26 128//26
f 128//26 127//26 129//26
f 128//26 129//26 130//26
f 131//26 113//26 132//26
f 132//26 113//26 110//26
f 132//26 110//26 133//26
f 133//26 110//26 111//26
f 133//26 111//26 134//26
f 119//93 118//27 111//26
f 111//26 118//27 125//94
f 111//26 125//94 134//26
f 134//26 125//94 130//26
f 134//26 130//26 135//26
f 135//26 130//26 129//26
f 135//26 129//26 136//26
f 137//26 114//26 138//26
f 138//26 114//26 112//26
f 138//26 112//26 139//26
f 139//26 112//26 113//26
f 139//26 113//26 140//26
f 140//26 113//26 131//26
f 140//26 131//26 141//26
f 137//26 142//26 114//26
f 114//26 142//26 143//26
f 114//26 143//26 118//27
f 118//27 143//26 126//27
f 118//27 126//27 124//26
f 124//26 126//27 128//26
f 144//26 118//27 145//26
f 145//26 118//27 108//26
f 145//26 108//26 146//26
f 146//26 108//26 109//26
f 146//26 109//26 147//26
f 147//26 109//26 114//26
f 147//26 114//26 144//26
f 144//26 114//26 118//27
f 121//95 122//95 148//95
f 148//95 122//95 149//95
f 120//96 121//96 150//96
f 150//96 121//96 148//96
f 123//97 120//97 151//97
f 151//97 120//97 150//97
f 122//98 123//98 149//98
f 149//98 123//98 151//98
f 133//95 134//95 152//95
f 152//95 134//95 153//95
f 132//99 133//99 154//99
f 154//99 133//99 152//99
f 131//100 132//100 155//100
f 155//100 132//100 154//100
f 141//101 131//101 156//101
f 156//101 131//101 155//101
f 140//102 141//102 157//102
f 157//102 141//102 156//102
f 139//96 140//96 158//96
f 158//96 140//96 157//96
f 138//97 139//97 159//97
f 159//97 139//97 158//97
f 137//103 138//103 160//103
f 160//103 138//103 159//103
f 142//104 137//104 161//104
f 161//104 137//104 160//104
f 143//105 142//105 162//105
f 162//105 142//105 161//105
f 126//106 143//106 163//106
f 163//106 143//106 162//106
f 127//107 126//107 164//107
f 164//107 126//107 163//107
f 129//106 127//106 165//106
f 165//106 127//106 164//106
f 136//108 129//108 166//108
f 166//108 129//108 165//108
f 135//109 136//109 167//109
f 167//109 136//109 166//109
f 134//110 135//110 153//110
f 153//110 135//110 167//110
f 125//95 124//95 168//95
f 168//95 124//95 169//95
f 130//111 125//111 170//111
f 170//111 125//111 168//111
f 128//112 130//112 171//112
f 171//112 130//112 170//112
f 124//113 128//113 169//113
f 169//113 128//113 171//113
f 115//95 116//95 172//95
f 172//95 116//95 173//95
f 119//114 115//114 174//114
f 174//114 115//114 172//96
f 117//97 119//97 175//97
f 175//97 119//97 174//97
f 116//98 117//98 173//98
f 173//98 117//98 175//98
f 145//95 146//95 176//95
f 176//95 146//95 177//95
f 144//96 145//96 178//96
f 178//96 145//96 176//96
f 147//97 144//97 179//97
f 179//97 144//97 178//97
f 146//98 147//98 177//98
f 177//98 147//98 179//98
f 175//26 174//26 173//26
f 173//26 174//26 172//26
f 171//26 170//26 169//26
f 169//26 170//26 168//26
f 159//26 158//26 160//26
f 160//26 158//26 157//26
f 160//26 157//26 161//26
f 164//26 163//26 162//26
f 162//26 161//26 164//26
f 164//26 161//26 157//26
f 164//26 157//26 165//26
f 165//26 157//26 156//26
f 165//26 156//26 166//26
f 166//26 156//26 155//26
f 166//26 155//26 167//26
f 167//26 155//26 154//26
f 167//26 154//26 153//26
f 153//26 154//26 152//26
f 151//26 150//26 149//26
f 149//26 150//26 148//26
f 179//26 178//26 177//26
f 177//26 178//26 176//26
