# Blender v3.0.1 OBJ File: ''
# www.blender.org
mtllib 50x30_teardrop.mtl
o 50x30_teardrop.001
v -0.006243 0.052773 -0.019001
v -0.006243 -0.052227 -0.019001
v -0.008688 -0.052227 -0.018014
v -0.008688 0.052773 -0.018014
v -0.010983 -0.052227 -0.016715
v -0.010983 0.052773 -0.016715
v -0.013086 -0.052227 -0.015125
v -0.013086 0.052773 -0.015125
v -0.014962 -0.052227 -0.013272
v -0.014962 0.052773 -0.013272
v -0.016578 -0.052227 -0.011188
v -0.016578 0.052773 -0.011188
v -0.017905 -0.052227 -0.008910
v -0.017905 0.052773 -0.008910
v -0.018922 -0.052227 -0.006478
v -0.018922 0.052773 -0.006478
v -0.019610 -0.052227 -0.003932
v -0.019610 0.052773 -0.003932
v -0.019957 -0.052227 -0.001318
v -0.019957 0.052773 -0.001318
v -0.019957 -0.052227 0.001318
v -0.019957 0.052773 0.001318
v -0.019610 -0.052227 0.003932
v -0.019610 0.052773 0.003932
v -0.018922 -0.052227 0.006478
v -0.018922 0.052773 0.006478
v -0.017905 -0.052227 0.008910
v -0.017905 0.052773 0.008910
v -0.016578 -0.052227 0.011188
v -0.016578 0.052773 0.011188
v -0.014962 -0.052227 0.013272
v -0.014962 0.052773 0.013272
v -0.013086 -0.052227 0.015125
v -0.013086 0.052773 0.015125
v -0.010983 -0.052227 0.016715
v -0.010983 0.052773 0.016715
v -0.008688 -0.052227 0.018014
v -0.008688 0.052773 0.018014
v -0.006243 -0.052227 0.019001
v -0.006243 0.052773 0.019001
v 0.022500 0.052773 0.004330
v -0.002182 0.052773 0.018581
v 0.022500 -0.052227 0.004330
v -0.002182 -0.052227 0.018581
v 0.022500 -0.052227 -0.004330
v -0.002182 -0.052227 -0.018581
v 0.022500 0.052773 -0.004330
v -0.002182 0.052773 -0.018581
v -0.011975 0.052773 0.010656
v -0.011906 0.052773 -0.010794
v -0.003285 0.052773 -0.019051
v -0.003870 0.052773 -0.019184
v -0.004468 0.052773 -0.019246
v -0.005068 0.052773 -0.019236
v -0.005663 0.052773 -0.019153
v 0.023044 0.052773 0.003967
v 0.024619 0.052773 -0.001913
v -0.005663 0.052773 0.019153
v -0.005068 0.052773 0.019236
v -0.004468 0.052773 0.019246
v 0.009475 0.052773 0.010725
v -0.002720 0.052773 0.018849
v 0.009544 0.052773 -0.010794
v -0.002720 0.052773 -0.018849
v 0.024330 0.052773 0.002500
v 0.024619 0.052773 0.001913
v 0.024830 0.052773 0.001294
v 0.023967 0.052773 0.003044
v 0.025000 0.052773 0.000000
v 0.024957 0.052773 -0.000653
v 0.024330 0.052773 -0.002500
v 0.023967 0.052773 -0.003044
v 0.023536 0.052773 -0.003536
v 0.023044 0.052773 -0.003967
v -0.003870 0.052773 0.019184
v -0.003285 0.052773 0.019051
v 0.024957 0.052773 0.000653
v 0.023536 0.052773 0.003536
v 0.024830 0.052773 -0.001294
v -0.002720 -0.052227 0.018849
v -0.003285 -0.052227 0.019051
v -0.004468 -0.052227 -0.019246
v -0.005068 -0.052227 -0.019236
v -0.005663 -0.052227 -0.019153
v -0.003870 -0.052227 -0.019184
v -0.003285 -0.052227 -0.019051
v -0.002720 -0.052227 -0.018849
v -0.003870 -0.052227 0.019184
v -0.004468 -0.052227 0.019246
v -0.005068 -0.052227 0.019236
v 0.023536 -0.052227 -0.003536
v 0.023967 -0.052227 -0.003044
v 0.023044 -0.052227 -0.003967
v 0.024330 -0.052227 -0.002500
v 0.024619 -0.052227 -0.001913
v 0.023044 -0.052227 0.003967
v -0.005663 -0.052227 0.019153
v 0.024830 -0.052227 -0.001294
v 0.023967 -0.052227 0.003044
v 0.023536 -0.052227 0.003536
v 0.024957 -0.052227 -0.000653
v 0.025000 -0.052227 0.000000
v 0.024957 -0.052227 0.000653
v 0.024830 -0.052227 0.001294
v 0.024619 -0.052227 0.001913
v 0.024330 -0.052227 0.002500
v 0.009544 0.050773 -0.010794
v -0.004275 0.050773 -0.010794
v -0.011906 0.050773 -0.010794
v 0.009475 0.050773 0.010725
v 0.009524 0.050773 -0.004641
v -0.011975 0.050773 0.010656
v -0.004275 0.050773 0.010681
v -0.011926 0.050773 -0.004641
v 0.000262 0.050773 -0.007631
v -0.002625 0.050773 -0.007631
v -0.002694 0.050773 -0.004744
v -0.004275 0.050773 -0.004641
v 0.000194 0.050773 -0.004675
v 0.006312 0.050773 -0.004675
v 0.006381 0.050773 -0.007631
v 0.003494 0.050773 -0.007631
v 0.003425 0.050773 -0.004744
v 0.000400 0.050773 -0.004606
v 0.003356 0.050773 -0.004606
v -0.002763 0.050773 -0.004537
v -0.002694 0.050773 -0.001513
v 0.000331 0.050773 -0.001650
v 0.000262 0.050773 -0.001444
v 0.003287 0.050773 -0.001581
v -0.002694 0.050773 0.007494
v 0.006312 0.050773 0.007563
v 0.006381 0.050773 -0.001513
v 0.003494 0.050773 -0.001513
v 0.003425 0.050773 0.004537
v 0.000331 0.050773 0.004606
v -0.008744 0.050773 -0.001513
v -0.008813 0.050773 0.007494
v -0.005925 0.050773 0.007563
v -0.005856 0.050773 0.004606
v -0.002763 0.050773 0.004537
v -0.005788 0.050773 -0.001581
v -0.005719 0.050773 -0.004606
v -0.005925 0.050773 -0.004675
v -0.005856 0.050773 -0.007631
v -0.008744 0.050773 -0.007631
v -0.008813 0.050773 -0.004744
v 0.006381 0.052773 -0.007631
v 0.003494 0.052773 -0.007631
v 0.006312 0.052773 -0.004675
v 0.003425 0.052773 -0.004744
v 0.006381 0.052773 -0.001513
v 0.003494 0.052773 -0.001513
v 0.006312 0.052773 0.007563
v -0.002694 0.052773 0.007494
v -0.002763 0.052773 0.004537
v -0.005856 0.052773 0.004606
v -0.005925 0.052773 0.007563
v -0.008813 0.052773 0.007494
v -0.008744 0.052773 -0.001513
v -0.005788 0.052773 -0.001581
v -0.005719 0.052773 -0.004606
v -0.002763 0.052773 -0.004537
v -0.002694 0.052773 -0.001513
v 0.000262 0.052773 -0.001444
v 0.000331 0.052773 0.004606
v 0.003425 0.052773 0.004537
v 0.003356 0.052773 -0.004606
v 0.000400 0.052773 -0.004606
v 0.003287 0.052773 -0.001581
v 0.000331 0.052773 -0.001650
v 0.000262 0.052773 -0.007631
v -0.002625 0.052773 -0.007631
v 0.000194 0.052773 -0.004675
v -0.002694 0.052773 -0.004744
v -0.005856 0.052773 -0.007631
v -0.008744 0.052773 -0.007631
v -0.005925 0.052773 -0.004675
v -0.008813 0.052773 -0.004744
vn -0.3743 0.0000 -0.9273
vn -0.4926 0.0000 -0.8703
vn -0.6031 0.0000 -0.7977
vn -0.7027 0.0000 -0.7115
vn -0.7902 0.0000 -0.6128
vn -0.8641 0.0000 -0.5034
vn -0.8638 0.0000 -0.5038
vn -0.9226 0.0000 -0.3858
vn -0.9228 0.0000 -0.3854
vn -0.9654 0.0000 -0.2609
vn -0.9913 -0.0000 -0.1316
vn -1.0000 -0.0000 0.0000
vn -0.9913 0.0000 0.1316
vn -0.9654 0.0000 0.2609
vn -0.9228 -0.0000 0.3854
vn -0.9226 -0.0000 0.3858
vn -0.8641 -0.0000 0.5034
vn -0.8638 0.0000 0.5038
vn -0.7902 -0.0000 0.6128
vn -0.7027 -0.0000 0.7115
vn -0.6031 -0.0000 0.7977
vn -0.4926 -0.0000 0.8703
vn -0.3743 -0.0000 0.9273
vn 0.5000 -0.0000 0.8660
vn 0.5000 0.0000 -0.8660
vn 0.0000 1.0000 -0.0000
vn 0.0000 -1.0000 0.0000
vn 0.0000 -1.0000 -0.0001
vn 0.5555 -0.0000 0.8315
vn 0.5553 -0.0000 0.8316
vn 0.6589 -0.0000 0.7522
vn 0.6592 -0.0000 0.7520
vn 0.7522 -0.0000 0.6589
vn 0.8314 -0.0000 0.5557
vn 0.8318 -0.0000 0.5551
vn 0.8315 -0.0000 0.5555
vn 0.8969 -0.0000 0.4421
vn 0.8969 0.0000 0.4423
vn 0.9469 -0.0000 0.3215
vn 0.9469 0.0000 0.3214
vn 0.9808 -0.0000 0.1952
vn 0.9808 0.0000 0.1948
vn 0.9807 -0.0000 0.1953
vn 0.9978 0.0000 0.0657
vn 0.9978 -0.0000 -0.0657
vn 0.9808 -0.0000 -0.1948
vn 0.9807 0.0000 -0.1953
vn 0.9808 0.0000 -0.1952
vn 0.9469 -0.0000 -0.3215
vn 0.9469 -0.0000 -0.3214
vn 0.8969 0.0000 -0.4421
vn 0.8969 0.0000 -0.4423
vn 0.8315 0.0000 -0.5555
vn 0.8318 0.0000 -0.5551
vn 0.8314 0.0000 -0.5557
vn 0.7522 0.0000 -0.6589
vn 0.6589 0.0000 -0.7522
vn 0.6592 0.0000 -0.7520
vn 0.5555 -0.0000 -0.8315
vn 0.5553 0.0000 -0.8316
vn 0.4470 -0.0000 -0.8946
vn 0.4471 0.0000 -0.8945
vn 0.4469 0.0000 -0.8946
vn 0.3367 0.0000 -0.9416
vn 0.2217 0.0000 -0.9751
vn 0.1031 0.0000 -0.9947
vn -0.0167 0.0000 -0.9999
vn -0.0171 0.0000 -0.9999
vn -0.0170 0.0000 -0.9999
vn -0.1369 -0.0000 -0.9906
vn -0.1371 0.0000 -0.9906
vn -0.2544 0.0000 -0.9671
vn -0.2543 0.0000 -0.9671
vn -0.2543 -0.0000 0.9671
vn -0.2544 0.0000 0.9671
vn -0.1369 -0.0000 0.9906
vn -0.1371 -0.0000 0.9906
vn -0.0170 -0.0000 0.9999
vn -0.0167 -0.0000 0.9999
vn -0.0173 -0.0000 0.9998
vn 0.1031 -0.0000 0.9947
vn 0.2217 -0.0000 0.9751
vn 0.3367 -0.0000 0.9416
vn 0.4469 -0.0000 0.8946
vn 0.4471 -0.0000 0.8945
vn 0.4470 0.0000 0.8946
vn 0.0000 0.0000 1.0000
vn -1.0000 0.0000 -0.0032
vn -1.0000 0.0001 -0.0032
vn -1.0000 0.0000 -0.0033
vn 0.0032 0.0000 -1.0000
vn 0.0032 -0.0001 -1.0000
vn 1.0000 0.0000 0.0032
vn 1.0000 -0.0001 0.0032
vn 1.0000 0.0000 0.0033
vn 0.0000 1.0000 -0.0001
vn 0.0000 1.0000 -0.0002
vn 0.0000 1.0000 0.0002
vn 0.0000 1.0000 0.0001
vn 0.0000 0.0000 -1.0000
vn 0.9997 0.0000 0.0233
vn -0.0239 0.0000 0.9997
vn -0.9997 0.0000 -0.0239
vn 1.0000 0.0000 0.0076
vn -0.0077 0.0000 1.0000
vn -0.9997 0.0000 0.0233
vn 0.0220 0.0000 0.9998
vn 0.0223 0.0000 0.9998
vn -1.0000 0.0000 -0.0077
vn -0.0230 0.0000 -0.9997
vn -0.9997 0.0000 -0.0228
vn 0.0233 0.0000 -0.9997
vn 0.9997 0.0000 -0.0228
vn 0.9999 0.0000 -0.0114
vn -0.0223 0.0000 -0.9998
vn -0.9999 0.0000 -0.0114
vn 0.9997 0.0000 0.0228
vn -0.0233 -0.0000 0.9997
vn -0.9997 0.0000 -0.0233
vn 0.9997 0.0000 0.0230
usemtl None.011
s 1
f 1//1 2//1 3//1
f 1//1 3//1 4//1
f 4//2 3//2 5//2
f 4//2 5//2 6//2
f 6//3 5//3 7//3
f 6//3 7//3 8//3
f 8//4 7//4 9//4
f 8//4 9//4 10//4
f 10//5 9//5 11//5
f 10//5 11//5 12//5
f 12//6 11//6 13//6
f 12//6 13//6 14//7
f 14//8 13//8 15//9
f 14//8 15//9 16//8
f 16//10 15//10 17//10
f 16//10 17//10 18//10
f 18//11 17//11 19//11
f 18//11 19//11 20//11
f 20//12 19//12 21//12
f 20//12 21//12 22//12
f 22//13 21//13 23//13
f 22//13 23//13 24//13
f 24//14 23//14 25//14
f 24//14 25//14 26//14
f 26//15 25//16 27//16
f 26//15 27//16 28//16
f 28//17 27//18 29//17
f 28//17 29//17 30//17
f 30//19 29//19 31//19
f 30//19 31//19 32//19
f 32//20 31//20 33//20
f 32//20 33//20 34//20
f 34//21 33//21 35//21
f 34//21 35//21 36//21
f 36//22 35//22 37//22
f 36//22 37//22 38//22
f 38//23 37//23 39//23
f 38//23 39//23 40//23
f 41//24 42//24 43//24
f 43//24 42//24 44//24
f 45//25 46//25 47//25
f 47//25 46//25 48//25
f 16//26 49//26 14//26
f 14//26 49//26 50//26
f 14//26 50//26 12//26
f 16//26 18//26 49//26
f 49//26 18//26 20//26
f 49//26 20//26 22//26
f 50//26 51//26 52//26
f 52//26 53//26 50//26
f 50//26 53//26 54//26
f 50//26 54//26 55//26
f 41//26 56//26 57//26
f 40//26 58//26 49//26
f 49//26 58//26 59//26
f 49//26 59//26 60//26
f 41//26 61//26 42//26
f 42//26 61//26 49//26
f 42//26 49//26 62//26
f 61//26 47//26 63//26
f 63//26 47//26 48//26
f 63//26 48//26 50//26
f 50//26 48//26 64//26
f 50//26 64//26 51//26
f 65//26 66//26 67//26
f 68//26 69//26 70//26
f 41//26 57//26 61//26
f 61//26 57//26 71//26
f 61//26 71//26 72//26
f 72//26 73//26 61//26
f 61//26 73//26 74//26
f 61//26 74//26 47//26
f 60//26 75//26 49//26
f 49//26 75//26 76//26
f 49//26 76//26 62//26
f 22//26 24//26 49//26
f 49//26 24//26 26//26
f 49//26 26//26 28//26
f 55//26 1//26 50//26
f 50//26 1//26 4//26
f 50//26 4//26 6//26
f 6//26 8//26 50//26
f 50//26 8//26 10//26
f 50//26 10//26 12//26
f 65//26 67//26 68//26
f 68//26 67//26 77//26
f 68//26 77//26 69//26
f 56//26 78//26 57//26
f 57//26 78//26 68//26
f 57//26 68//26 79//26
f 79//26 68//26 70//26
f 28//26 30//26 49//26
f 49//26 30//26 32//26
f 49//26 32//26 34//26
f 34//26 36//26 49//26
f 49//26 36//26 38//26
f 49//26 38//26 40//26
f 80//27 81//27 13//27
f 82//27 44//27 83//27
f 83//27 44//27 84//27
f 82//27 85//27 44//27
f 44//27 85//27 86//27
f 44//27 86//27 87//27
f 81//27 88//27 13//27
f 13//27 88//27 89//27
f 13//27 89//27 90//27
f 7//27 5//27 44//27
f 91//27 92//27 43//27
f 7//27 44//27 9//27
f 5//27 3//27 44//27
f 44//27 3//27 2//27
f 44//27 2//27 84//27
f 87//27 46//27 44//27
f 44//27 46//27 45//27
f 44//27 45//27 43//27
f 43//27 45//27 93//27
f 43//27 93//27 91//27
f 92//27 94//27 43//27
f 43//27 94//27 95//27
f 43//27 95//27 96//27
f 90//27 97//27 13//27
f 13//27 97//27 39//27
f 13//27 39//27 15//27
f 15//27 39//27 37//27
f 21//27 19//27 33//27
f 80//27 13//27 44//27
f 44//27 13//27 11//27
f 44//27 11//27 9//27
f 98//27 99//27 95//27
f 95//27 99//27 100//27
f 95//27 100//27 96//27
f 98//27 101//27 99//27
f 99//27 101//27 102//27
f 99//27 102//27 103//27
f 103//27 104//27 99//27
f 99//27 104//27 105//27
f 99//27 105//27 106//28
f 37//27 35//27 15//27
f 15//27 35//27 33//27
f 15//27 33//27 17//27
f 17//27 33//27 19//27
f 27//27 25//27 29//27
f 29//27 25//27 31//27
f 31//27 25//27 33//27
f 33//27 25//27 23//27
f 33//27 23//27 21//27
f 41//29 43//30 96//29
f 41//29 96//29 56//30
f 56//31 96//31 100//31
f 56//31 100//31 78//32
f 78//33 100//33 99//33
f 78//33 99//33 68//33
f 68//34 99//35 106//36
f 68//34 106//36 65//35
f 65//37 106//38 105//37
f 65//37 105//37 66//37
f 66//39 105//40 104//39
f 66//39 104//39 67//39
f 67//41 104//41 103//42
f 67//41 103//42 77//43
f 77//44 103//44 102//44
f 77//44 102//44 69//44
f 69//45 102//45 101//45
f 69//45 101//45 70//45
f 70//46 101//47 98//48
f 70//46 98//48 79//48
f 79//49 98//49 95//49
f 79//49 95//49 57//50
f 57//51 95//51 94//51
f 57//51 94//51 71//52
f 71//53 94//54 92//55
f 71//53 92//55 72//54
f 72//56 92//56 91//56
f 72//56 91//56 73//56
f 73//57 91//58 93//57
f 73//57 93//57 74//57
f 74//59 93//60 45//59
f 74//59 45//59 47//60
f 48//61 46//62 87//63
f 48//61 87//63 64//62
f 64//64 87//64 86//64
f 64//64 86//64 51//64
f 51//65 86//65 85//65
f 51//65 85//65 52//65
f 52//66 85//66 82//66
f 52//66 82//66 53//66
f 53//67 82//68 83//69
f 53//67 83//69 54//67
f 54//70 83//71 84//70
f 54//70 84//70 55//70
f 55//72 84//73 2//73
f 55//72 2//73 1//72
f 40//74 39//75 97//75
f 40//74 97//75 58//74
f 58//76 97//76 90//76
f 58//76 90//76 59//77
f 59//78 90//79 89//79
f 59//78 89//79 60//80
f 60//81 89//81 88//81
f 60//81 88//81 75//81
f 75//82 88//82 81//82
f 75//82 81//82 76//82
f 76//83 81//83 80//83
f 76//83 80//83 62//83
f 62//84 80//85 44//86
f 62//84 44//86 42//85
f 107//87 63//87 108//87
f 108//87 63//87 50//87
f 108//87 50//87 109//87
f 110//88 61//88 111//89
f 111//89 61//88 63//88
f 111//89 63//88 107//90
f 112//91 49//91 113//92
f 113//92 49//91 61//91
f 113//92 61//91 110//91
f 49//93 112//93 50//93
f 50//93 112//93 114//94
f 50//93 114//94 109//95
f 115//26 107//26 116//26
f 116//26 107//26 108//26
f 116//26 108//26 117//26
f 117//26 108//26 118//96
f 117//26 118//96 119//26
f 120//97 111//26 121//26
f 121//26 111//26 107//26
f 121//26 107//26 122//26
f 122//26 107//26 115//26
f 122//26 115//26 123//26
f 123//26 115//26 119//26
f 123//26 119//26 120//97
f 120//97 119//26 111//26
f 118//96 124//98 125//26
f 126//26 127//26 128//26
f 128//26 127//26 129//26
f 128//26 129//26 130//26
f 131//26 113//26 132//26
f 132//26 113//26 110//26
f 132//26 110//26 133//26
f 133//26 110//26 111//26
f 133//26 111//26 134//26
f 119//26 118//96 111//26
f 111//26 118//96 125//26
f 111//26 125//26 134//26
f 134//26 125//26 130//26
f 134//26 130//26 135//26
f 135//26 130//26 129//26
f 135//26 129//26 136//26
f 137//26 114//26 138//26
f 138//26 114//26 112//26
f 138//26 112//26 139//26
f 139//26 112//26 113//26
f 139//26 113//26 140//26
f 140//26 113//26 131//26
f 140//26 131//26 141//26
f 137//26 142//26 114//26
f 114//26 142//26 143//26
f 114//26 143//26 118//96
f 118//96 143//26 126//26
f 118//96 126//26 124//98
f 124//98 126//26 128//26
f 144//96 118//96 145//26
f 145//26 118//96 108//26
f 145//26 108//26 146//26
f 146//26 108//26 109//26
f 146//26 109//26 147//99
f 147//99 109//26 114//26
f 147//99 114//26 144//96
f 144//96 114//26 118//96
f 121//100 122//100 148//100
f 148//100 122//100 149//100
f 120//101 121//101 150//101
f 150//101 121//101 148//101
f 123//102 120//102 151//102
f 151//102 120//102 150//102
f 122//103 123//103 149//103
f 149//103 123//103 151//103
f 133//100 134//100 152//100
f 152//100 134//100 153//100
f 132//104 133//104 154//104
f 154//104 133//104 152//104
f 131//105 132//105 155//105
f 155//105 132//105 154//105
f 141//106 131//106 156//106
f 156//106 131//106 155//106
f 140//107 141//108 157//108
f 157//108 141//108 156//108
f 139//101 140//101 158//101
f 158//101 140//101 157//101
f 138//102 139//102 159//102
f 159//102 139//102 158//102
f 137//109 138//109 160//109
f 160//109 138//109 159//109
f 142//110 137//110 161//110
f 161//110 137//110 160//110
f 143//111 142//111 162//111
f 162//111 142//111 161//111
f 126//112 143//112 163//112
f 163//112 143//112 162//112
f 127//113 126//113 164//113
f 164//113 126//113 163//113
f 129//112 127//112 165//112
f 165//112 127//112 164//112
f 136//114 129//114 166//114
f 166//114 129//114 165//114
f 135//115 136//115 167//115
f 167//115 136//115 166//115
f 134//116 135//116 153//116
f 153//116 135//116 167//116
f 125//100 124//100 168//100
f 168//100 124//100 169//100
f 130//117 125//117 170//117
f 170//117 125//117 168//117
f 128//118 130//118 171//118
f 171//118 130//118 170//118
f 124//119 128//119 169//119
f 169//119 128//119 171//119
f 115//100 116//100 172//100
f 172//100 116//100 173//100
f 119//120 115//120 174//120
f 174//120 115//120 172//101
f 117//102 119//102 175//102
f 175//102 119//102 174//102
f 116//103 117//103 173//103
f 173//103 117//103 175//103
f 145//100 146//100 176//100
f 176//100 146//100 177//100
f 144//101 145//101 178//101
f 178//101 145//101 176//101
f 147//102 144//102 179//102
f 179//102 144//102 178//102
f 146//103 147//103 177//103
f 177//103 147//103 179//103
f 175//26 174//26 173//26
f 173//26 174//26 172//26
f 171//26 170//26 169//26
f 169//26 170//26 168//26
f 159//26 158//26 160//26
f 160//26 158//26 157//26
f 160//26 157//26 161//26
f 164//26 163//26 162//26
f 162//26 161//26 164//26
f 164//26 161//26 157//26
f 164//26 157//26 165//26
f 165//26 157//26 156//26
f 165//26 156//26 166//26
f 166//26 156//26 155//26
f 166//26 155//26 167//26
f 167//26 155//26 154//26
f 167//26 154//26 153//26
f 153//26 154//26 152//26
f 151//26 150//26 149//26
f 149//26 150//26 148//26
f 179//26 178//26 177//26
f 177//26 178//26 176//26
