# Blender v3.0.1 OBJ File: ''
# www.blender.org
mtllib 50x30_teardrop.mtl
o 50x30_teardrop
v -0.006243 0.105000 -0.019001
v -0.006243 -0.000000 -0.019001
v -0.008688 -0.000000 -0.018014
v -0.008688 0.105000 -0.018014
v -0.010983 -0.000000 -0.016715
v -0.010983 0.105000 -0.016715
v -0.013086 -0.000000 -0.015125
v -0.013086 0.105000 -0.015125
v -0.014962 -0.000000 -0.013272
v -0.014962 0.105000 -0.013272
v -0.016578 -0.000000 -0.011188
v -0.016578 0.105000 -0.011188
v -0.017905 -0.000000 -0.008910
v -0.017905 0.105000 -0.008910
v -0.018922 -0.000000 -0.006478
v -0.018922 0.105000 -0.006478
v -0.019610 -0.000000 -0.003932
v -0.019610 0.105000 -0.003932
v -0.019957 -0.000000 -0.001318
v -0.019957 0.105000 -0.001318
v -0.019957 -0.000000 0.001318
v -0.019957 0.105000 0.001318
v -0.019610 -0.000000 0.003932
v -0.019610 0.105000 0.003932
v -0.018922 -0.000000 0.006478
v -0.018922 0.105000 0.006478
v -0.017905 -0.000000 0.008910
v -0.017905 0.105000 0.008910
v -0.016578 -0.000000 0.011188
v -0.016578 0.105000 0.011188
v -0.014962 -0.000000 0.013272
v -0.014962 0.105000 0.013272
v -0.013086 -0.000000 0.015125
v -0.013086 0.105000 0.015125
v -0.010983 -0.000000 0.016715
v -0.010983 0.105000 0.016715
v -0.008688 -0.000000 0.018014
v -0.008688 0.105000 0.018014
v -0.006243 -0.000000 0.019001
v -0.006243 0.105000 0.019001
v 0.022500 0.105000 0.004330
v -0.002182 0.105000 0.018581
v 0.022500 0.000000 0.004330
v -0.002182 -0.000000 0.018581
v 0.022500 0.000000 -0.004330
v -0.002182 -0.000000 -0.018581
v 0.022500 0.105000 -0.004330
v -0.002182 0.105000 -0.018581
v -0.011975 0.105000 0.010656
v -0.011906 0.105000 -0.010794
v -0.003285 0.105000 -0.019051
v -0.003870 0.105000 -0.019184
v -0.004468 0.105000 -0.019246
v -0.005068 0.105000 -0.019236
v -0.005663 0.105000 -0.019153
v 0.023044 0.105000 0.003967
v 0.024619 0.105000 -0.001913
v -0.005663 0.105000 0.019153
v -0.005068 0.105000 0.019236
v -0.004468 0.105000 0.019246
v 0.009475 0.105000 0.010725
v -0.002720 0.105000 0.018849
v 0.009544 0.105000 -0.010794
v -0.002720 0.105000 -0.018849
v 0.024330 0.105000 0.002500
v 0.024619 0.105000 0.001913
v 0.024830 0.105000 0.001294
v 0.023967 0.105000 0.003044
v 0.025000 0.105000 0.000000
v 0.024957 0.105000 -0.000653
v 0.024330 0.105000 -0.002500
v 0.023967 0.105000 -0.003044
v 0.023536 0.105000 -0.003536
v 0.023044 0.105000 -0.003967
v -0.003870 0.105000 0.019184
v -0.003285 0.105000 0.019051
v 0.024957 0.105000 0.000653
v 0.023536 0.105000 0.003536
v 0.024830 0.105000 -0.001294
v -0.002720 -0.000000 0.018849
v -0.003285 -0.000000 0.019051
v -0.004468 -0.000000 -0.019246
v -0.005068 -0.000000 -0.019236
v -0.005663 -0.000000 -0.019153
v -0.003870 -0.000000 -0.019184
v -0.003285 -0.000000 -0.019051
v -0.002720 -0.000000 -0.018849
v -0.003870 -0.000000 0.019184
v -0.004468 -0.000000 0.019246
v -0.005068 -0.000000 0.019236
v 0.023536 0.000000 -0.003536
v 0.023967 0.000000 -0.003044
v 0.023044 0.000000 -0.003967
v 0.024330 0.000000 -0.002500
v 0.024619 0.000000 -0.001913
v 0.023044 0.000000 0.003967
v -0.005663 -0.000000 0.019153
v 0.024830 0.000000 -0.001294
v 0.023967 0.000000 0.003044
v 0.023536 0.000000 0.003536
v 0.024957 0.000000 -0.000653
v 0.025000 0.000000 0.000000
v 0.024957 0.000000 0.000653
v 0.024830 0.000000 0.001294
v 0.024619 0.000000 0.001913
v 0.024330 0.000000 0.002500
v 0.009544 0.103000 -0.010794
v -0.004275 0.103000 -0.010794
v -0.011906 0.103000 -0.010794
v 0.009475 0.103000 0.010725
v 0.009524 0.103000 -0.004641
v -0.011975 0.103000 0.010656
v -0.004275 0.103000 0.010681
v -0.011926 0.103000 -0.004641
v 0.000262 0.103000 -0.007631
v -0.002625 0.103000 -0.007631
v -0.002694 0.103000 -0.004744
v -0.004275 0.103000 -0.004641
v 0.000194 0.103000 -0.004675
v 0.006312 0.103000 -0.004675
v 0.006381 0.103000 -0.007631
v 0.003494 0.103000 -0.007631
v 0.003425 0.103000 -0.004744
v 0.000400 0.103000 -0.004606
v 0.003356 0.103000 -0.004606
v -0.002763 0.103000 -0.004537
v -0.002694 0.103000 -0.001513
v 0.000331 0.103000 -0.001650
v 0.000262 0.103000 -0.001444
v 0.003287 0.103000 -0.001581
v -0.002694 0.103000 0.007494
v 0.006312 0.103000 0.007563
v 0.006381 0.103000 -0.001513
v 0.003494 0.103000 -0.001513
v 0.003425 0.103000 0.004537
v 0.000331 0.103000 0.004606
v -0.008744 0.103000 -0.001513
v -0.008813 0.103000 0.007494
v -0.005925 0.103000 0.007563
v -0.005856 0.103000 0.004606
v -0.002763 0.103000 0.004537
v -0.005788 0.103000 -0.001581
v -0.005719 0.103000 -0.004606
v -0.005925 0.103000 -0.004675
v -0.005856 0.103000 -0.007631
v -0.008744 0.103000 -0.007631
v -0.008813 0.103000 -0.004744
v 0.006381 0.105000 -0.007631
v 0.003494 0.105000 -0.007631
v 0.006312 0.105000 -0.004675
v 0.003425 0.105000 -0.004744
v 0.006381 0.105000 -0.001513
v 0.003494 0.105000 -0.001513
v 0.006312 0.105000 0.007563
v -0.002694 0.105000 0.007494
v -0.002763 0.105000 0.004537
v -0.005856 0.105000 0.004606
v -0.005925 0.105000 0.007563
v -0.008813 0.105000 0.007494
v -0.008744 0.105000 -0.001513
v -0.005788 0.105000 -0.001581
v -0.005719 0.105000 -0.004606
v -0.002763 0.105000 -0.004537
v -0.002694 0.105000 -0.001513
v 0.000262 0.105000 -0.001444
v 0.000331 0.105000 0.004606
v 0.003425 0.105000 0.004537
v 0.003356 0.105000 -0.004606
v 0.000400 0.105000 -0.004606
v 0.003287 0.105000 -0.001581
v 0.000331 0.105000 -0.001650
v 0.000262 0.105000 -0.007631
v -0.002625 0.105000 -0.007631
v 0.000194 0.105000 -0.004675
v -0.002694 0.105000 -0.004744
v -0.005856 0.105000 -0.007631
v -0.008744 0.105000 -0.007631
v -0.005925 0.105000 -0.004675
v -0.008813 0.105000 -0.004744
vn -0.3743 -0.0000 -0.9273
vn -0.4926 -0.0000 -0.8703
vn -0.4929 -0.0000 -0.8701
vn -0.6031 -0.0000 -0.7977
vn -0.7027 -0.0000 -0.7115
vn -0.7902 -0.0000 -0.6128
vn -0.8641 -0.0000 -0.5034
vn -0.8638 -0.0000 -0.5038
vn -0.9226 -0.0000 -0.3858
vn -0.9228 -0.0000 -0.3854
vn -0.9654 -0.0000 -0.2609
vn -0.9913 -0.0000 -0.1316
vn -1.0000 -0.0000 0.0000
vn -0.9913 -0.0000 0.1316
vn -0.9654 -0.0000 0.2609
vn -0.9228 -0.0000 0.3854
vn -0.9226 -0.0000 0.3858
vn -0.8641 -0.0000 0.5034
vn -0.8638 -0.0000 0.5038
vn -0.7902 -0.0000 0.6128
vn -0.7903 -0.0000 0.6128
vn -0.7027 -0.0000 0.7115
vn -0.6031 -0.0000 0.7977
vn -0.4926 -0.0000 0.8703
vn -0.4929 0.0000 0.8701
vn -0.3743 -0.0000 0.9273
vn 0.5000 0.0000 0.8660
vn 0.5000 0.0000 -0.8660
vn 0.0000 1.0000 0.0000
vn 0.0000 -1.0000 0.0000
vn 0.5555 0.0000 0.8315
vn 0.5556 0.0000 0.8314
vn 0.6589 0.0000 0.7522
vn 0.6593 0.0000 0.7519
vn 0.6592 0.0000 0.7520
vn 0.7519 0.0000 0.6593
vn 0.8314 0.0000 0.5556
vn 0.8315 0.0000 0.5555
vn 0.8969 0.0000 0.4421
vn 0.8969 0.0000 0.4422
vn 0.9469 0.0000 0.3215
vn 0.9469 0.0000 0.3214
vn 0.9808 0.0000 0.1951
vn 0.9808 0.0000 0.1952
vn 0.9807 0.0000 0.1953
vn 0.9978 0.0000 0.0657
vn 0.9978 0.0000 -0.0657
vn 0.9808 0.0000 -0.1952
vn 0.9807 0.0000 -0.1953
vn 0.9808 0.0000 -0.1951
vn 0.9469 -0.0000 -0.3215
vn 0.9469 0.0000 -0.3214
vn 0.8969 0.0000 -0.4422
vn 0.8969 0.0000 -0.4421
vn 0.8315 0.0000 -0.5555
vn 0.8314 0.0000 -0.5556
vn 0.7519 0.0000 -0.6593
vn 0.6593 -0.0000 -0.7519
vn 0.6592 0.0000 -0.7520
vn 0.6589 0.0000 -0.7522
vn 0.5555 0.0000 -0.8315
vn 0.5556 0.0000 -0.8314
vn 0.4470 -0.0000 -0.8945
vn 0.4471 0.0000 -0.8945
vn 0.3367 0.0000 -0.9416
vn 0.2214 0.0000 -0.9752
vn 0.2217 0.0000 -0.9751
vn 0.1031 0.0000 -0.9947
vn -0.0167 -0.0000 -0.9999
vn -0.0170 -0.0000 -0.9999
vn -0.0171 0.0000 -0.9999
vn -0.1368 -0.0000 -0.9906
vn -0.1369 0.0000 -0.9906
vn -0.2544 -0.0000 -0.9671
vn -0.2545 -0.0000 -0.9671
vn -0.2545 -0.0000 0.9671
vn -0.2544 0.0000 0.9671
vn -0.1369 -0.0000 0.9906
vn -0.1368 0.0000 0.9906
vn -0.0171 -0.0000 0.9999
vn -0.0167 -0.0000 0.9999
vn -0.0170 -0.0000 0.9999
vn 0.1031 0.0000 0.9947
vn 0.2214 -0.0000 0.9752
vn 0.2217 0.0000 0.9751
vn 0.3367 0.0000 0.9416
vn 0.4471 0.0000 0.8945
vn 0.4470 0.0000 0.8945
vn 0.0000 0.0000 1.0000
vn -1.0000 0.0000 -0.0032
vn -1.0000 0.0001 -0.0032
vn -1.0000 0.0000 -0.0033
vn 0.0032 0.0000 -1.0000
vn 0.0032 -0.0001 -1.0000
vn 1.0000 0.0000 0.0032
vn 1.0000 -0.0001 0.0032
vn 1.0000 0.0000 0.0033
vn 0.0000 1.0000 -0.0001
vn 0.0000 1.0000 -0.0004
vn 0.0000 1.0000 0.0002
vn 0.0000 0.0000 -1.0000
vn 0.9997 0.0000 0.0233
vn 0.9997 -0.0000 0.0230
vn -0.0239 0.0000 0.9997
vn -0.9997 0.0000 -0.0239
vn 1.0000 0.0000 0.0076
vn -0.0077 0.0000 1.0000
vn -0.9997 -0.0000 0.0233
vn 0.0220 0.0000 0.9998
vn 0.0218 -0.0000 0.9998
vn -1.0000 0.0000 -0.0077
vn -0.0230 0.0000 -0.9997
vn -0.9997 0.0000 -0.0228
vn -0.9997 -0.0000 -0.0225
vn 0.0233 0.0000 -0.9997
vn 0.0230 0.0000 -0.9997
vn 0.9997 0.0000 -0.0225
vn 0.9997 0.0000 -0.0228
vn 0.9999 0.0000 -0.0114
vn -0.0223 -0.0000 -0.9998
vn -0.9999 0.0000 -0.0114
vn 0.9997 0.0000 0.0228
vn 0.9997 -0.0000 0.0225
vn -0.0233 0.0000 0.9997
vn -0.9997 -0.0000 -0.0233
vn -0.9997 -0.0000 -0.0230
usemtl None
s 1
f 1//1 2//1 3//1
f 1//1 3//1 4//1
f 4//2 3//2 5//2
f 4//2 5//2 6//3
f 6//4 5//4 7//4
f 6//4 7//4 8//4
f 8//5 7//5 9//5
f 8//5 9//5 10//5
f 10//6 9//6 11//6
f 10//6 11//6 12//6
f 12//7 11//7 13//7
f 12//7 13//7 14//8
f 14//9 13//9 15//10
f 14//9 15//10 16//9
f 16//11 15//11 17//11
f 16//11 17//11 18//11
f 18//12 17//12 19//12
f 18//12 19//12 20//12
f 20//13 19//13 21//13
f 20//13 21//13 22//13
f 22//14 21//14 23//14
f 22//14 23//14 24//14
f 24//15 23//15 25//15
f 24//15 25//15 26//15
f 26//16 25//17 27//17
f 26//16 27//17 28//17
f 28//18 27//19 29//18
f 28//18 29//18 30//18
f 30//20 29//21 31//21
f 30//20 31//21 32//20
f 32//22 31//22 33//22
f 32//22 33//22 34//22
f 34//23 33//23 35//23
f 34//23 35//23 36//23
f 36//24 35//25 37//24
f 36//24 37//24 38//24
f 38//26 37//26 39//26
f 38//26 39//26 40//26
f 41//27 42//27 43//27
f 43//27 42//27 44//27
f 45//28 46//28 47//28
f 47//28 46//28 48//28
f 16//29 49//29 14//29
f 14//29 49//29 50//29
f 14//29 50//29 12//29
f 16//29 18//29 49//29
f 49//29 18//29 20//29
f 49//29 20//29 22//29
f 50//29 51//29 52//29
f 52//29 53//29 50//29
f 50//29 53//29 54//29
f 50//29 54//29 55//29
f 41//29 56//29 57//29
f 40//29 58//29 49//29
f 49//29 58//29 59//29
f 49//29 59//29 60//29
f 41//29 61//29 42//29
f 42//29 61//29 49//29
f 42//29 49//29 62//29
f 61//29 47//29 63//29
f 63//29 47//29 48//29
f 63//29 48//29 50//29
f 50//29 48//29 64//29
f 50//29 64//29 51//29
f 65//29 66//29 67//29
f 68//29 69//29 70//29
f 41//29 57//29 61//29
f 61//29 57//29 71//29
f 61//29 71//29 72//29
f 72//29 73//29 61//29
f 61//29 73//29 74//29
f 61//29 74//29 47//29
f 60//29 75//29 49//29
f 49//29 75//29 76//29
f 49//29 76//29 62//29
f 22//29 24//29 49//29
f 49//29 24//29 26//29
f 49//29 26//29 28//29
f 55//29 1//29 50//29
f 50//29 1//29 4//29
f 50//29 4//29 6//29
f 6//29 8//29 50//29
f 50//29 8//29 10//29
f 50//29 10//29 12//29
f 65//29 67//29 68//29
f 68//29 67//29 77//29
f 68//29 77//29 69//29
f 56//29 78//29 57//29
f 57//29 78//29 68//29
f 57//29 68//29 79//29
f 79//29 68//29 70//29
f 28//29 30//29 49//29
f 49//29 30//29 32//29
f 49//29 32//29 34//29
f 34//29 36//29 49//29
f 49//29 36//29 38//29
f 49//29 38//29 40//29
f 80//30 81//30 13//30
f 82//30 44//30 83//30
f 83//30 44//30 84//30
f 82//30 85//30 44//30
f 44//30 85//30 86//30
f 44//30 86//30 87//30
f 81//30 88//30 13//30
f 13//30 88//30 89//30
f 13//30 89//30 90//30
f 7//30 5//30 44//30
f 91//30 92//30 43//30
f 7//30 44//30 9//30
f 5//30 3//30 44//30
f 44//30 3//30 2//30
f 44//30 2//30 84//30
f 87//30 46//30 44//30
f 44//30 46//30 45//30
f 44//30 45//30 43//30
f 43//30 45//30 93//30
f 43//30 93//30 91//30
f 92//30 94//30 43//30
f 43//30 94//30 95//30
f 43//30 95//30 96//30
f 90//30 97//30 13//30
f 13//30 97//30 39//30
f 13//30 39//30 15//30
f 15//30 39//30 37//30
f 21//30 19//30 33//30
f 80//30 13//30 44//30
f 44//30 13//30 11//30
f 44//30 11//30 9//30
f 98//30 99//30 95//30
f 95//30 99//30 100//30
f 95//30 100//30 96//30
f 98//30 101//30 99//30
f 99//30 101//30 102//30
f 99//30 102//30 103//30
f 103//30 104//30 99//30
f 99//30 104//30 105//30
f 99//30 105//30 106//30
f 37//30 35//30 15//30
f 15//30 35//30 33//30
f 15//30 33//30 17//30
f 17//30 33//30 19//30
f 27//30 25//30 29//30
f 29//30 25//30 31//30
f 31//30 25//30 33//30
f 33//30 25//30 23//30
f 33//30 23//30 21//30
f 41//31 43//32 96//31
f 41//31 96//31 56//32
f 56//33 96//34 100//34
f 56//33 100//34 78//35
f 78//36 100//36 99//36
f 78//36 99//36 68//36
f 68//37 99//38 106//38
f 68//37 106//38 65//38
f 65//39 106//39 105//40
f 65//39 105//40 66//40
f 66//41 105//42 104//41
f 66//41 104//41 67//41
f 67//43 104//44 103//44
f 67//43 103//44 77//45
f 77//46 103//46 102//46
f 77//46 102//46 69//46
f 69//47 102//47 101//47
f 69//47 101//47 70//47
f 70//48 101//49 98//50
f 70//48 98//50 79//48
f 79//51 98//51 95//51
f 79//51 95//51 57//52
f 57//53 95//53 94//54
f 57//53 94//54 71//54
f 71//55 94//55 92//56
f 71//55 92//56 72//55
f 72//57 92//57 91//57
f 72//57 91//57 73//57
f 73//58 91//59 93//60
f 73//58 93//60 74//58
f 74//61 93//62 45//61
f 74//61 45//61 47//62
f 48//63 46//64 87//64
f 48//63 87//64 64//64
f 64//65 87//65 86//65
f 64//65 86//65 51//65
f 51//66 86//67 85//66
f 51//66 85//66 52//67
f 52//68 85//68 82//68
f 52//68 82//68 53//68
f 53//69 82//70 83//71
f 53//69 83//71 54//69
f 54//72 83//73 84//73
f 54//72 84//73 55//73
f 55//74 84//75 2//75
f 55//74 2//75 1//74
f 40//76 39//77 97//77
f 40//76 97//77 58//76
f 58//78 97//78 90//79
f 58//78 90//79 59//78
f 59//80 90//81 89//81
f 59//80 89//81 60//82
f 60//83 89//83 88//83
f 60//83 88//83 75//83
f 75//84 88//85 81//84
f 75//84 81//84 76//85
f 76//86 81//86 80//86
f 76//86 80//86 62//86
f 62//87 80//87 44//88
f 62//87 44//88 42//87
f 107//89 63//89 108//89
f 108//89 63//89 50//89
f 108//89 50//89 109//89
f 110//90 61//90 111//91
f 111//91 61//90 63//90
f 111//91 63//90 107//92
f 112//93 49//93 113//94
f 113//94 49//93 61//93
f 113//94 61//93 110//93
f 49//95 112//95 50//95
f 50//95 112//95 114//96
f 50//95 114//96 109//97
f 115//29 107//29 116//29
f 116//29 107//29 108//29
f 116//29 108//29 117//98
f 117//98 108//29 118//98
f 117//98 118//98 119//29
f 120//99 111//29 121//29
f 121//29 111//29 107//29
f 121//29 107//29 122//29
f 122//29 107//29 115//29
f 122//29 115//29 123//100
f 123//100 115//29 119//29
f 123//100 119//29 120//99
f 120//99 119//29 111//29
f 118//98 124//29 125//29
f 126//29 127//29 128//29
f 128//29 127//29 129//29
f 128//29 129//29 130//29
f 131//29 113//29 132//29
f 132//29 113//29 110//29
f 132//29 110//29 133//29
f 133//29 110//29 111//29
f 133//29 111//29 134//29
f 119//29 118//98 111//29
f 111//29 118//98 125//29
f 111//29 125//29 134//29
f 134//29 125//29 130//29
f 134//29 130//29 135//29
f 135//29 130//29 129//29
f 135//29 129//29 136//29
f 137//29 114//29 138//29
f 138//29 114//29 112//29
f 138//29 112//29 139//29
f 139//29 112//29 113//29
f 139//29 113//29 140//29
f 140//29 113//29 131//29
f 140//29 131//29 141//29
f 137//29 142//29 114//29
f 114//29 142//29 143//29
f 114//29 143//29 118//98
f 118//98 143//29 126//29
f 118//98 126//29 124//29
f 124//29 126//29 128//29
f 144//29 118//98 145//29
f 145//29 118//98 108//29
f 145//29 108//29 146//29
f 146//29 108//29 109//29
f 146//29 109//29 147//29
f 147//29 109//29 114//29
f 147//29 114//29 144//29
f 144//29 114//29 118//98
f 121//101 122//101 148//101
f 148//101 122//101 149//101
f 120//102 121//102 150//102
f 150//102 121//102 148//103
f 123//104 120//104 151//104
f 151//104 120//104 150//104
f 122//105 123//105 149//105
f 149//105 123//105 151//105
f 133//101 134//101 152//101
f 152//101 134//101 153//101
f 132//106 133//106 154//106
f 154//106 133//106 152//106
f 131//107 132//107 155//107
f 155//107 132//107 154//107
f 141//108 131//108 156//108
f 156//108 131//108 155//108
f 140//109 141//110 157//110
f 157//110 141//110 156//110
f 139//102 140//102 158//102
f 158//102 140//102 157//102
f 138//104 139//104 159//104
f 159//104 139//104 158//104
f 137//111 138//111 160//111
f 160//111 138//111 159//111
f 142//112 137//112 161//112
f 161//112 137//112 160//112
f 143//113 142//113 162//113
f 162//113 142//113 161//114
f 126//115 143//116 163//116
f 163//116 143//116 162//115
f 127//117 126//118 164//118
f 164//118 126//118 163//118
f 129//115 127//116 165//116
f 165//116 127//116 164//115
f 136//119 129//119 166//119
f 166//119 129//119 165//119
f 135//120 136//120 167//120
f 167//120 136//120 166//120
f 134//121 135//121 153//121
f 153//121 135//121 167//121
f 125//101 124//101 168//101
f 168//101 124//101 169//101
f 130//122 125//122 170//122
f 170//122 125//122 168//123
f 128//124 130//124 171//124
f 171//124 130//124 170//124
f 124//125 128//125 169//125
f 169//125 128//125 171//126
f 115//101 116//101 172//101
f 172//101 116//101 173//101
f 119//103 115//103 174//103
f 174//103 115//103 172//102
f 117//104 119//104 175//104
f 175//104 119//104 174//104
f 116//105 117//105 173//105
f 173//105 117//105 175//105
f 145//101 146//101 176//101
f 176//101 146//101 177//101
f 144//102 145//102 178//102
f 178//102 145//102 176//102
f 147//104 144//104 179//104
f 179//104 144//104 178//104
f 146//105 147//105 177//105
f 177//105 147//105 179//105
f 175//29 174//29 173//29
f 173//29 174//29 172//29
f 171//29 170//29 169//29
f 169//29 170//29 168//29
f 159//29 158//29 160//29
f 160//29 158//29 157//29
f 160//29 157//29 161//29
f 164//29 163//29 162//29
f 162//29 161//29 164//29
f 164//29 161//29 157//29
f 164//29 157//29 165//29
f 165//29 157//29 156//29
f 165//29 156//29 166//29
f 166//29 156//29 155//29
f 166//29 155//29 167//29
f 167//29 155//29 154//29
f 167//29 154//29 153//29
f 153//29 154//29 152//29
f 151//29 150//29 149//29
f 149//29 150//29 148//29
f 179//29 178//29 177//29
f 177//29 178//29 176//29
