# Blender v3.0.1 OBJ File: ''
# www.blender.org
mtllib square_cricle.mtl
o Square_Circle
v -0.200000 1.000000 0.225000
v -0.200000 1.000000 0.000000
v -0.200000 -0.000000 0.225000
v -0.200000 -0.000000 0.000000
v 0.200000 1.000000 0.225000
v 0.200000 -0.000000 0.225000
v 0.200000 1.000000 0.000000
v 0.200000 0.000000 -0.000000
v 0.200000 1.000000 0.000000
v 0.200000 0.000000 -0.000000
v 0.197964 0.000000 -0.028463
v 0.197964 1.000000 -0.028463
v 0.191899 0.000000 -0.056347
v 0.191899 1.000000 -0.056346
v 0.181926 0.000000 -0.083083
v 0.181926 1.000000 -0.083083
v 0.168251 0.000000 -0.108128
v 0.168251 1.000000 -0.108128
v 0.151150 0.000000 -0.130972
v 0.151150 1.000000 -0.130972
v 0.130972 0.000000 -0.151150
v 0.130972 1.000000 -0.151150
v 0.108128 0.000000 -0.168251
v 0.108128 1.000000 -0.168251
v 0.083083 0.000000 -0.181926
v 0.083083 1.000000 -0.181926
v 0.056347 0.000000 -0.191899
v 0.056347 1.000000 -0.191899
v 0.028463 0.000000 -0.197964
v 0.028463 1.000000 -0.197964
v 0.000000 0.000000 -0.200000
v 0.000000 1.000000 -0.200000
v -0.028463 0.000000 -0.197964
v -0.028463 1.000000 -0.197964
v -0.056347 0.000000 -0.191899
v -0.056347 1.000000 -0.191899
v -0.083083 0.000000 -0.181926
v -0.083083 1.000000 -0.181926
v -0.108128 0.000000 -0.168251
v -0.108128 1.000000 -0.168251
v -0.130972 0.000000 -0.151150
v -0.130972 1.000000 -0.151150
v -0.151150 0.000000 -0.130972
v -0.151150 1.000000 -0.130972
v -0.168251 0.000000 -0.108128
v -0.168251 1.000000 -0.108128
v -0.181926 0.000000 -0.083083
v -0.181926 1.000000 -0.083083
v -0.191899 0.000000 -0.056347
v -0.191899 1.000000 -0.056346
v -0.197964 0.000000 -0.028463
v -0.197964 1.000000 -0.028463
v 0.200000 0.000000 -0.000000
vn -1.0000 0.0000 0.0000
vn 0.0000 -0.0000 1.0000
vn 1.0000 0.0000 0.0000
vn 0.9975 0.0000 -0.0713
vn 0.9771 0.0000 -0.2126
vn 0.9369 0.0000 -0.3495
vn 0.8777 0.0000 -0.4792
vn 0.8005 0.0000 -0.5993
vn 0.7071 0.0000 -0.7071
vn 0.5993 0.0000 -0.8005
vn 0.4792 0.0000 -0.8777
vn 0.3495 0.0000 -0.9369
vn 0.3495 0.0000 -0.9370
vn 0.2126 0.0000 -0.9771
vn 0.0713 0.0000 -0.9975
vn -0.0713 0.0000 -0.9975
vn -0.2126 0.0000 -0.9771
vn -0.3495 0.0000 -0.9370
vn -0.3495 0.0000 -0.9369
vn -0.4792 0.0000 -0.8777
vn -0.5993 0.0000 -0.8005
vn -0.7071 0.0000 -0.7071
vn -0.8005 0.0000 -0.5993
vn -0.8777 0.0000 -0.4792
vn -0.9369 0.0000 -0.3495
vn -0.9771 0.0000 -0.2126
vn -0.9975 0.0000 -0.0713
vn 0.0000 1.0000 0.0000
vn 0.0000 -1.0000 -0.0000
usemtl None
s off
f 1//1 2//1 3//1
f 3//1 2//1 4//1
f 5//2 1//2 6//2
f 6//2 1//2 3//2
f 7//3 5//3 8//3
f 8//3 5//3 6//3
f 9//4 10//4 11//4
f 9//4 11//4 12//4
f 12//5 11//5 13//5
f 12//5 13//5 14//5
f 14//6 13//6 15//6
f 14//6 15//6 16//6
f 16//7 15//7 17//7
f 16//7 17//7 18//7
f 18//8 17//8 19//8
f 18//8 19//8 20//8
f 20//9 19//9 21//9
f 20//9 21//9 22//9
f 22//10 21//10 23//10
f 22//10 23//10 24//10
f 24//11 23//11 25//11
f 24//11 25//11 26//11
f 26//12 25//12 27//12
f 26//13 27//13 28//13
f 28//14 27//14 29//14
f 28//14 29//14 30//14
f 30//15 29//15 31//15
f 30//15 31//15 32//15
f 32//16 31//16 33//16
f 32//16 33//16 34//16
f 34//17 33//17 35//17
f 34//17 35//17 36//17
f 36//18 35//18 37//18
f 36//19 37//19 38//19
f 38//20 37//20 39//20
f 38//20 39//20 40//20
f 40//21 39//21 41//21
f 40//21 41//21 42//21
f 42//22 41//22 43//22
f 42//22 43//22 44//22
f 44//23 43//23 45//23
f 44//23 45//23 46//23
f 46//24 45//24 47//24
f 46//24 47//24 48//24
f 48//25 47//25 49//25
f 48//25 49//25 50//25
f 50//26 49//26 51//26
f 50//26 51//26 52//26
f 52//27 51//27 4//27
f 52//27 4//27 2//27
f 1//28 5//28 2//28
f 2//28 5//28 9//28
f 2//28 9//28 12//28
f 12//28 14//28 2//28
f 2//28 14//28 16//28
f 2//28 16//28 18//28
f 50//28 52//28 22//28
f 22//28 52//28 2//28
f 22//28 2//28 20//28
f 20//28 2//28 18//28
f 24//28 46//28 22//28
f 22//28 46//28 48//28
f 22//28 48//28 50//28
f 24//28 26//28 46//28
f 46//28 26//28 28//28
f 46//28 28//28 30//28
f 38//28 40//28 36//28
f 36//28 40//28 42//28
f 36//28 42//28 34//28
f 42//28 44//28 34//28
f 34//28 44//28 46//28
f 34//28 46//28 32//28
f 32//28 46//28 30//28
f 53//29 6//29 3//29
f 3//29 4//29 53//29
f 53//29 4//29 51//29
f 53//29 51//29 49//29
f 49//29 47//29 53//29
f 53//29 47//29 45//29
f 53//29 45//29 11//29
f 31//29 29//29 33//29
f 33//29 29//29 27//29
f 33//29 27//29 25//29
f 43//29 21//29 45//29
f 45//29 21//29 19//29
f 45//29 19//29 17//29
f 17//29 15//29 45//29
f 45//29 15//29 13//29
f 45//29 13//29 11//29
f 43//29 41//29 21//29
f 21//29 41//29 39//29
f 21//29 39//29 37//29
f 37//29 35//29 21//29
f 21//29 35//29 33//29
f 21//29 33//29 23//29
f 23//29 33//29 25//29
