# Blender v2.92.0 OBJ File: 'InitialFile.blend'
# www.blender.org
mtllib body_l_intermediate_pinvpin_collision.mtl
o body_l_intermediate_pinvpin_collision_Cube.035
v -0.010000 0.011250 0.010000
v -0.010000 0.045750 0.010000
v -0.010000 0.011250 -0.010000
v -0.010000 0.045750 -0.010000
v 0.010000 0.011250 0.010000
v 0.010000 0.045750 0.010000
v 0.010000 0.011250 -0.010000
v 0.010000 0.045750 -0.010000
v -0.010000 0.045750 -0.010000
v 0.010000 0.045750 -0.010000
v -0.010000 0.045750 0.010000
v 0.010000 0.045750 -0.010000
v -0.010000 0.046725 0.009808
v 0.010000 0.046725 0.009808
v -0.010000 0.047663 0.009239
v 0.010000 0.047663 0.009239
v -0.010000 0.048528 0.008315
v 0.010000 0.048528 0.008315
v -0.010000 0.049286 0.007071
v 0.010000 0.049286 0.007071
v -0.010000 0.049907 0.005556
v 0.010000 0.049907 0.005556
v -0.010000 0.050369 0.003827
v 0.010000 0.050369 0.003827
v -0.010000 0.050654 0.001951
v 0.010000 0.050654 0.001951
v -0.010000 0.050750 -0.000000
v 0.010000 0.050750 -0.000000
v -0.010000 0.050654 -0.001951
v 0.010000 0.050654 -0.001951
v -0.010000 0.050369 -0.003827
v 0.010000 0.050369 -0.003827
v -0.010000 0.049907 -0.005556
v 0.010000 0.049907 -0.005556
v -0.010000 0.049286 -0.007071
v 0.010000 0.049286 -0.007071
v -0.010000 0.048528 -0.008315
v 0.010000 0.048528 -0.008315
v -0.010000 0.047663 -0.009239
v 0.010000 0.047663 -0.009239
v -0.010000 0.046725 -0.009808
v 0.010000 0.046725 -0.009808
v 0.010000 0.045750 0.010000
v -0.011000 0.045750 -0.002500
v 0.011000 0.045750 -0.002500
v -0.011000 0.045506 -0.002452
v 0.011000 0.045506 -0.002452
v -0.011000 0.045272 -0.002310
v 0.011000 0.045272 -0.002310
v -0.011000 0.045056 -0.002079
v 0.011000 0.045056 -0.002079
v -0.011000 0.044866 -0.001768
v 0.011000 0.044866 -0.001768
v -0.011000 0.044711 -0.001389
v 0.011000 0.044711 -0.001389
v -0.011000 0.044595 -0.000957
v 0.011000 0.044595 -0.000957
v -0.011000 0.044524 -0.000488
v 0.011000 0.044524 -0.000488
v -0.011000 0.044500 -0.000000
v 0.011000 0.044500 -0.000000
v -0.011000 0.044524 0.000488
v 0.011000 0.044524 0.000488
v -0.011000 0.044595 0.000957
v 0.011000 0.044595 0.000957
v -0.011000 0.044711 0.001389
v 0.011000 0.044711 0.001389
v -0.011000 0.044866 0.001768
v 0.011000 0.044866 0.001768
v -0.011000 0.045056 0.002079
v 0.011000 0.045056 0.002079
v -0.011000 0.045272 0.002310
v 0.011000 0.045272 0.002310
v -0.011000 0.045506 0.002452
v 0.011000 0.045506 0.002452
v -0.011000 0.045750 0.002500
v 0.011000 0.045750 0.002500
v -0.011000 0.045994 0.002452
v 0.011000 0.045994 0.002452
v -0.011000 0.046228 0.002310
v 0.011000 0.046228 0.002310
v -0.011000 0.046444 0.002079
v 0.011000 0.046444 0.002079
v -0.011000 0.046634 0.001768
v 0.011000 0.046634 0.001768
v -0.011000 0.046789 0.001389
v 0.011000 0.046789 0.001389
v -0.011000 0.046905 0.000957
v 0.011000 0.046905 0.000957
v -0.011000 0.046976 0.000488
v 0.011000 0.046976 0.000488
v -0.011000 0.047000 -0.000000
v 0.011000 0.047000 -0.000000
v -0.011000 0.046976 -0.000488
v 0.011000 0.046976 -0.000488
v -0.011000 0.046905 -0.000957
v 0.011000 0.046905 -0.000957
v -0.011000 0.046789 -0.001389
v 0.011000 0.046789 -0.001389
v -0.011000 0.046634 -0.001768
v 0.011000 0.046634 -0.001768
v -0.011000 0.046444 -0.002079
v 0.011000 0.046444 -0.002079
v -0.011000 0.046228 -0.002310
v 0.011000 0.046228 -0.002310
v -0.011000 0.045994 -0.002452
v 0.011000 0.045994 -0.002452
vt 0.625000 0.000000
vt 0.375000 0.250000
vt 0.375000 0.000000
vt 0.625000 0.250000
vt 0.375000 0.500000
vt 0.625000 0.500000
vt 0.375000 0.750000
vt 0.625000 0.750000
vt 0.375000 1.000000
vt 0.125000 0.750000
vt 0.125000 0.500000
vt 0.875000 0.500000
vt 0.000000 0.000000
vt 0.468750 1.000000
vt 0.468750 0.500000
vt 0.406250 1.000000
vt 0.437500 1.000000
vt 0.000000 0.000000
vt 0.093750 0.500000
vt 0.062500 0.500000
vt 0.000000 0.500000
vt 0.437500 0.500000
vt 0.406250 0.500000
vt 0.375000 0.500000
vt 0.375000 1.000000
vt 0.343750 0.500000
vt 0.343750 1.000000
vt 0.312500 0.500000
vt 0.312500 1.000000
vt 0.281250 0.500000
vt 0.281250 1.000000
vt 0.250000 0.500000
vt 0.250000 1.000000
vt 0.218750 0.500000
vt 0.218750 1.000000
vt 0.187500 0.500000
vt 0.187500 1.000000
vt 0.156250 0.500000
vt 0.156250 1.000000
vt 0.125000 0.500000
vt 0.125000 1.000000
vt 0.093750 1.000000
vt 0.062500 1.000000
vt 0.031250 0.500000
vt 0.031250 1.000000
vt 1.000000 1.000000
vt 0.968750 0.500000
vt 1.000000 0.500000
vt 0.968750 1.000000
vt 0.937500 0.500000
vt 0.937500 1.000000
vt 0.906250 0.500000
vt 0.906250 1.000000
vt 0.875000 0.500000
vt 0.875000 1.000000
vt 0.843750 0.500000
vt 0.812500 1.000000
vt 0.812500 0.500000
vt 0.781250 0.500000
vt 0.781250 1.000000
vt 0.750000 0.500000
vt 0.750000 1.000000
vt 0.718750 0.500000
vt 0.718750 1.000000
vt 0.687500 0.500000
vt 0.687500 1.000000
vt 0.656250 0.500000
vt 0.656250 1.000000
vt 0.625000 0.500000
vt 0.593750 1.000000
vt 0.593750 0.500000
vt 0.562500 0.500000
vt 0.562500 1.000000
vt 0.531250 0.500000
vt 0.500000 1.000000
vt 0.500000 0.500000
vt 0.468750 0.500000
vt 0.468750 1.000000
vt 0.437500 0.500000
vt 0.437500 1.000000
vt 0.406250 0.500000
vt 0.406250 1.000000
vt 0.375000 0.500000
vt 0.375000 1.000000
vt 0.343750 0.500000
vt 0.343750 1.000000
vt 0.312500 0.500000
vt 0.312500 1.000000
vt 0.281250 0.500000
vt 0.281250 1.000000
vt 0.250000 0.500000
vt 0.250000 1.000000
vt 0.218750 0.500000
vt 0.218750 1.000000
vt 0.187500 0.500000
vt 0.187500 1.000000
vt 0.156250 0.500000
vt 0.156250 1.000000
vt 0.125000 0.500000
vt 0.125000 1.000000
vt 0.093750 0.500000
vt 0.093750 1.000000
vt 0.062500 0.500000
vt 0.419706 0.419706
vt 0.383337 0.449553
vt 0.080295 0.419706
vt 0.062500 1.000000
vt 0.031250 0.500000
vt 0.031250 1.000000
vt 0.000000 0.500000
vt 0.616663 0.449553
vt 0.658156 0.471731
vt 0.883337 0.449553
vt 0.625000 1.000000
vt 0.875000 0.750000
vt 0.000000 0.000000
vt 0.000000 1.000000
vt 0.843750 1.000000
vt 0.625000 1.000000
vt 0.531250 1.000000
vt 0.341844 0.471731
vt 0.296822 0.485388
vt 0.158156 0.471731
vt 0.250000 0.490000
vt 0.203179 0.485389
vt 0.116663 0.449553
vt 0.050447 0.383337
vt 0.028269 0.341844
vt 0.449553 0.383337
vt 0.014612 0.296822
vt 0.485388 0.296822
vt 0.010000 0.250000
vt 0.490000 0.250000
vt 0.014611 0.203179
vt 0.485388 0.203178
vt 0.028269 0.158156
vt 0.471731 0.158156
vt 0.050447 0.116663
vt 0.080294 0.080294
vt 0.449553 0.116663
vt 0.116663 0.050447
vt 0.419706 0.080294
vt 0.158156 0.028269
vt 0.383337 0.050447
vt 0.203178 0.014612
vt 0.341844 0.028269
vt 0.250000 0.010000
vt 0.296822 0.014612
vt 0.471731 0.341844
vt 0.000000 1.000000
vt 0.703179 0.485389
vt 0.750000 0.490000
vt 0.796822 0.485388
vt 0.841844 0.471731
vt 0.919706 0.419706
vt 0.580295 0.419706
vt 0.949553 0.383337
vt 0.550447 0.383337
vt 0.971731 0.341844
vt 0.985388 0.296822
vt 0.528269 0.341844
vt 0.990000 0.250000
vt 0.510000 0.250000
vt 0.985388 0.203178
vt 0.514611 0.203179
vt 0.971731 0.158156
vt 0.949553 0.116663
vt 0.528269 0.158156
vt 0.919706 0.080294
vt 0.580294 0.080294
vt 0.883337 0.050447
vt 0.616663 0.050447
vt 0.841844 0.028269
vt 0.796822 0.014612
vt 0.658156 0.028269
vt 0.750000 0.010000
vt 0.703178 0.014612
vt 0.550447 0.116663
vt 0.514612 0.296822
vn -1.0000 0.0000 0.0000
vn 0.0000 0.0000 -1.0000
vn 1.0000 0.0000 0.0000
vn 0.0000 0.0000 1.0000
vn 0.0000 -1.0000 0.0000
vn 0.0000 1.0000 0.0000
vn 0.0000 0.1933 0.9811
vn 0.0000 0.5187 0.8550
vn 0.0000 0.7303 0.6831
vn 0.0000 0.8540 0.5203
vn 0.0000 0.9251 0.3796
vn 0.0000 0.9661 0.2582
vn 0.0000 0.9887 0.1500
vn 0.0000 0.9988 0.0492
vn 0.0000 0.9988 -0.0492
vn 0.0000 0.9887 -0.1500
vn 0.0000 0.9661 -0.2582
vn 0.0000 0.9251 -0.3796
vn 0.0000 0.8540 -0.5203
vn 0.0000 0.7303 -0.6831
vn 0.0000 0.5187 -0.8550
vn 0.0000 0.1933 -0.9811
vn 0.0000 -0.1933 -0.9811
vn -0.0000 -0.5187 -0.8550
vn 0.0000 -0.7303 -0.6831
vn -0.0000 -0.8540 -0.5203
vn 0.0000 -0.9251 -0.3796
vn 0.0000 -0.9661 -0.2582
vn 0.0000 -0.9887 -0.1500
vn 0.0000 -0.9988 -0.0492
vn 0.0000 -0.9988 0.0492
vn 0.0000 -0.9887 0.1500
vn 0.0000 -0.9661 0.2582
vn -0.0000 -0.9251 0.3796
vn -0.0000 -0.8540 0.5203
vn -0.0000 -0.7303 0.6831
vn 0.0000 -0.5187 0.8550
vn 0.0000 -0.1933 0.9811
vn 0.0000 -0.7303 0.6832
usemtl mat.013
s off
f 2/1/1 3/2/1 1/3/1
f 4/4/2 7/5/2 3/2/2
f 8/6/3 5/7/3 7/5/3
f 6/8/4 1/9/4 5/7/4
f 7/5/5 1/10/5 3/11/5
f 4/12/6 6/8/6 8/6/6
f 11/13/7 14/14/7 13/15/7
f 18/16/3 16/17/3 43/18/3
f 37/19/1 39/20/1 9/21/1
f 14/14/8 15/22/8 13/15/8
f 16/17/9 17/23/9 15/22/9
f 18/16/10 19/24/10 17/23/10
f 20/25/11 21/26/11 19/24/11
f 22/27/12 23/28/12 21/26/12
f 24/29/13 25/30/13 23/28/13
f 26/31/14 27/32/14 25/30/14
f 28/33/15 29/34/15 27/32/15
f 30/35/16 31/36/16 29/34/16
f 32/37/17 33/38/17 31/36/17
f 34/39/18 35/40/18 33/38/18
f 36/41/19 37/19/19 35/40/19
f 38/42/20 39/20/20 37/19/20
f 40/43/21 41/44/21 39/20/21
f 42/45/22 9/21/22 41/44/22
f 45/46/23 46/47/23 44/48/23
f 47/49/24 48/50/24 46/47/24
f 49/51/25 50/52/25 48/50/25
f 51/53/26 52/54/26 50/52/26
f 53/55/27 54/56/27 52/54/27
f 54/56/28 57/57/28 56/58/28
f 57/57/29 58/59/29 56/58/29
f 59/60/30 60/61/30 58/59/30
f 61/62/31 62/63/31 60/61/31
f 63/64/32 64/65/32 62/63/32
f 65/66/33 66/67/33 64/65/33
f 67/68/34 68/69/34 66/67/34
f 68/69/35 71/70/35 70/71/35
f 71/70/36 72/72/36 70/71/36
f 73/73/37 74/74/37 72/72/37
f 74/74/38 77/75/38 76/76/38
f 77/75/7 78/77/7 76/76/7
f 79/78/8 80/79/8 78/77/8
f 81/80/9 82/81/9 80/79/9
f 83/82/10 84/83/10 82/81/10
f 85/84/11 86/85/11 84/83/11
f 87/86/12 88/87/12 86/85/12
f 89/88/13 90/89/13 88/87/13
f 91/90/14 92/91/14 90/89/14
f 93/92/15 94/93/15 92/91/15
f 95/94/16 96/95/16 94/93/16
f 97/96/17 98/97/17 96/95/17
f 99/98/18 100/99/18 98/97/18
f 101/100/19 102/101/19 100/99/19
f 103/102/20 104/103/20 102/101/20
f 53/104/3 51/105/3 101/106/3
f 105/107/21 106/108/21 104/103/21
f 107/109/22 44/110/22 106/108/22
f 102/111/1 104/112/1 50/113/1
f 2/1/1 4/4/1 3/2/1
f 4/4/2 8/6/2 7/5/2
f 8/6/3 6/8/3 5/7/3
f 6/8/4 2/114/4 1/9/4
f 7/5/5 5/7/5 1/10/5
f 4/12/6 2/115/6 6/8/6
f 11/13/7 43/18/7 14/14/7
f 16/17/3 14/14/3 43/18/3
f 43/18/3 12/116/3 28/33/3
f 12/116/3 42/45/3 40/43/3
f 38/42/3 12/116/3 40/43/3
f 38/42/3 36/41/3 12/116/3
f 36/41/3 34/39/3 12/116/3
f 34/39/3 32/37/3 12/116/3
f 32/37/3 30/35/3 12/116/3
f 30/35/3 28/33/3 12/116/3
f 28/33/3 26/31/3 43/18/3
f 26/31/3 24/29/3 43/18/3
f 24/29/3 22/27/3 43/18/3
f 22/27/3 20/25/3 43/18/3
f 20/25/3 18/16/3 43/18/3
f 41/44/1 9/21/1 39/20/1
f 9/21/1 11/13/1 27/32/1
f 35/40/1 9/21/1 33/38/1
f 11/13/1 13/15/1 15/22/1
f 15/22/1 17/23/1 11/13/1
f 17/23/1 19/24/1 11/13/1
f 19/24/1 21/26/1 11/13/1
f 21/26/1 23/28/1 11/13/1
f 23/28/1 25/30/1 11/13/1
f 25/30/1 27/32/1 11/13/1
f 27/32/1 29/34/1 9/21/1
f 29/34/1 31/36/1 9/21/1
f 31/36/1 33/38/1 9/21/1
f 35/40/1 37/19/1 9/21/1
f 14/14/8 16/17/8 15/22/8
f 16/17/9 18/16/9 17/23/9
f 18/16/10 20/25/10 19/24/10
f 20/25/11 22/27/11 21/26/11
f 22/27/12 24/29/12 23/28/12
f 24/29/13 26/31/13 25/30/13
f 26/31/14 28/33/14 27/32/14
f 28/33/15 30/35/15 29/34/15
f 30/35/16 32/37/16 31/36/16
f 32/37/17 34/39/17 33/38/17
f 34/39/18 36/41/18 35/40/18
f 36/41/19 38/42/19 37/19/19
f 38/42/20 40/43/20 39/20/20
f 40/43/21 42/45/21 41/44/21
f 42/45/22 10/117/22 9/21/22
f 45/46/23 47/49/23 46/47/23
f 47/49/24 49/51/24 48/50/24
f 49/51/25 51/53/25 50/52/25
f 51/53/26 53/55/26 52/54/26
f 53/55/27 55/118/27 54/56/27
f 54/56/28 55/118/28 57/57/28
f 57/57/29 59/60/29 58/59/29
f 59/60/30 61/62/30 60/61/30
f 61/62/31 63/64/31 62/63/31
f 63/64/32 65/66/32 64/65/32
f 65/66/33 67/68/33 66/67/33
f 67/68/34 69/119/34 68/69/34
f 68/69/35 69/119/35 71/70/35
f 71/70/39 73/73/39 72/72/39
f 73/73/37 75/120/37 74/74/37
f 74/74/38 75/120/38 77/75/38
f 77/75/7 79/78/7 78/77/7
f 79/78/8 81/80/8 80/79/8
f 81/80/9 83/82/9 82/81/9
f 83/82/10 85/84/10 84/83/10
f 85/84/11 87/86/11 86/85/11
f 87/86/12 89/88/12 88/87/12
f 89/88/13 91/90/13 90/89/13
f 91/90/14 93/92/14 92/91/14
f 93/92/15 95/94/15 94/93/15
f 95/94/16 97/96/16 96/95/16
f 97/96/17 99/98/17 98/97/17
f 99/98/18 101/100/18 100/99/18
f 101/100/19 103/102/19 102/101/19
f 103/102/20 105/107/20 104/103/20
f 49/121/3 47/122/3 105/123/3
f 47/122/3 45/124/3 107/125/3
f 105/123/3 47/122/3 107/125/3
f 105/123/3 103/126/3 49/121/3
f 103/126/3 101/106/3 51/105/3
f 49/121/3 103/126/3 51/105/3
f 101/106/3 99/127/3 53/104/3
f 99/127/3 97/128/3 55/129/3
f 53/104/3 99/127/3 55/129/3
f 97/128/3 95/130/3 59/131/3
f 95/130/3 93/132/3 61/133/3
f 93/132/3 91/134/3 63/135/3
f 91/134/3 89/136/3 65/137/3
f 89/136/3 87/138/3 65/137/3
f 87/138/3 85/139/3 67/140/3
f 65/137/3 87/138/3 67/140/3
f 85/139/3 83/141/3 69/142/3
f 83/141/3 81/143/3 71/144/3
f 69/142/3 83/141/3 71/144/3
f 81/143/3 79/145/3 73/146/3
f 79/145/3 77/147/3 75/148/3
f 73/146/3 79/145/3 75/148/3
f 73/146/3 71/144/3 81/143/3
f 69/142/3 67/140/3 85/139/3
f 65/137/3 63/135/3 91/134/3
f 63/135/3 61/133/3 93/132/3
f 61/133/3 59/131/3 95/130/3
f 59/131/3 57/149/3 97/128/3
f 57/149/3 55/129/3 97/128/3
f 105/107/21 107/109/21 106/108/21
f 107/109/22 45/150/22 44/110/22
f 106/151/1 44/152/1 46/153/1
f 46/153/1 48/154/1 106/151/1
f 48/154/1 50/113/1 104/112/1
f 106/151/1 48/154/1 104/112/1
f 50/113/1 52/155/1 100/156/1
f 52/155/1 54/157/1 98/158/1
f 54/157/1 56/159/1 98/158/1
f 56/159/1 58/160/1 96/161/1
f 98/158/1 56/159/1 96/161/1
f 58/160/1 60/162/1 92/163/1
f 60/162/1 62/164/1 90/165/1
f 62/164/1 64/166/1 90/165/1
f 64/166/1 66/167/1 88/168/1
f 90/165/1 64/166/1 88/168/1
f 66/167/1 68/169/1 84/170/1
f 68/169/1 70/171/1 82/172/1
f 70/171/1 72/173/1 82/172/1
f 72/173/1 74/174/1 80/175/1
f 82/172/1 72/173/1 80/175/1
f 74/174/1 76/176/1 78/177/1
f 78/177/1 80/175/1 74/174/1
f 82/172/1 84/170/1 68/169/1
f 84/170/1 86/178/1 66/167/1
f 86/178/1 88/168/1 66/167/1
f 90/165/1 92/163/1 60/162/1
f 92/163/1 94/179/1 58/160/1
f 94/179/1 96/161/1 58/160/1
f 98/158/1 100/156/1 52/155/1
f 100/156/1 102/111/1 50/113/1
l 10 12
