# Blender v2.82 (sub 7) OBJ File: ''
# www.blender.org
mtllib palm.mtl
o palm_palm_base
v 0.030000 0.000000 -0.016100
v -0.030000 0.000000 -0.016100
v -0.030000 0.000000 0.016100
v 0.030000 0.000000 0.016100
v 0.030000 -0.053000 -0.016100
v -0.030000 -0.053000 -0.016100
v -0.030000 -0.053000 0.016100
v 0.030000 -0.053000 0.016100
vn 0.0000 1.0000 0.0000
vn 0.0000 -1.0000 0.0000
vn 1.0000 0.0000 0.0000
vn 0.0000 0.0000 -1.0000
vn -1.0000 0.0000 0.0000
vn 0.0000 0.0000 1.0000
usemtl None
s off
f 2//1 4//1 1//1
f 7//2 5//2 8//2
f 8//3 1//3 4//3
f 5//4 2//4 1//4
f 6//5 3//5 2//5
f 7//6 4//6 3//6
f 2//1 3//1 4//1
f 7//2 6//2 5//2
f 8//3 5//3 1//3
f 5//4 6//4 2//4
f 6//5 7//5 3//5
f 7//6 8//6 4//6
o palm_joint_0
v 0.023750 0.000000 -0.004150
v 0.024750 0.004025 -0.004150
v 0.025750 0.005091 -0.004150
v 0.026750 0.005400 -0.004150
v 0.027750 0.005091 -0.004150
v 0.029750 0.000000 -0.004150
v 0.023750 0.000000 0.004150
v 0.024750 0.004025 0.004150
v 0.025750 0.005091 0.004150
v 0.026750 0.005400 0.004150
v 0.027750 0.005091 0.004150
v 0.029750 0.000000 0.004150
vn -0.0000 0.0000 -1.0000
vn 0.0000 0.0000 1.0000
vn -0.9705 0.2411 0.0000
vn -0.7294 0.6841 0.0000
vn -0.2951 0.9555 0.0000
vn 0.2951 0.9555 0.0000
vn 0.9308 0.3656 0.0000
vn 0.0000 -1.0000 0.0000
usemtl None
s off
f 13//7 14//7 10//7
f 17//8 16//8 19//8
f 15//9 10//9 9//9
f 16//10 11//10 10//10
f 17//11 12//11 11//11
f 18//12 13//12 12//12
f 19//13 14//13 13//13
f 14//14 15//14 9//14
f 14//7 9//7 10//7
f 10//7 11//7 13//7
f 11//7 12//7 13//7
f 15//8 20//8 16//8
f 20//8 19//8 16//8
f 19//8 18//8 17//8
f 15//9 16//9 10//9
f 16//10 17//10 11//10
f 17//11 18//11 12//11
f 18//12 19//12 13//12
f 19//13 20//13 14//13
f 14//14 20//14 15//14
o palm_joint_1
v -0.023750 0.000000 0.004150
v -0.024750 0.004025 0.004150
v -0.025750 0.005091 0.004150
v -0.026750 0.005400 0.004150
v -0.027750 0.005091 0.004150
v -0.029750 0.000000 0.004150
v -0.023750 0.000000 -0.004150
v -0.024750 0.004025 -0.004150
v -0.025750 0.005091 -0.004150
v -0.026750 0.005400 -0.004150
v -0.027750 0.005091 -0.004150
v -0.029750 0.000000 -0.004150
vn 0.0000 -0.0000 1.0000
vn 0.0000 0.0000 -1.0000
vn 0.9705 0.2411 0.0000
vn 0.7294 0.6841 0.0000
vn 0.2951 0.9555 0.0000
vn -0.2951 0.9555 0.0000
vn -0.9308 0.3656 0.0000
vn 0.0000 -1.0000 0.0000
usemtl None
s off
f 25//15 26//15 22//15
f 29//16 28//16 31//16
f 27//17 22//17 21//17
f 28//18 23//18 22//18
f 29//19 24//19 23//19
f 30//20 25//20 24//20
f 31//21 26//21 25//21
f 26//22 27//22 21//22
f 26//15 21//15 22//15
f 22//15 23//15 25//15
f 23//15 24//15 25//15
f 27//16 32//16 28//16
f 32//16 31//16 28//16
f 31//16 30//16 29//16
f 27//17 28//17 22//17
f 28//18 29//18 23//18
f 29//19 30//19 24//19
f 30//20 31//20 25//20
f 31//21 32//21 26//21
f 26//22 32//22 27//22
