# Blender v2.82 (sub 7) OBJ File: ''
# www.blender.org
mtllib palm.mtl
o palm_palm_base
v 0.042500 0.000000 -0.016000
v -0.042500 0.000000 -0.016000
v -0.042500 0.000000 0.016000
v 0.042500 0.000000 0.016000
v 0.042500 -0.053000 -0.016000
v -0.042500 -0.053000 -0.016000
v -0.042500 -0.053000 0.016000
v 0.042500 -0.053000 0.016000
vn 0.0000 1.0000 0.0000
vn 0.0000 -1.0000 0.0000
vn 1.0000 0.0000 0.0000
vn 0.0000 0.0000 -1.0000
vn -1.0000 0.0000 0.0000
vn 0.0000 0.0000 1.0000
usemtl None
s off
f 2//1 4//1 1//1
f 7//2 5//2 8//2
f 8//3 1//3 4//3
f 5//4 2//4 1//4
f 6//5 3//5 2//5
f 7//6 4//6 3//6
f 2//1 3//1 4//1
f 7//2 6//2 5//2
f 8//3 5//3 1//3
f 5//4 6//4 2//4
f 6//5 7//5 3//5
f 7//6 8//6 4//6
o palm_joint_0
v 0.020750 0.000000 -0.016000
v 0.021750 0.004166 -0.016000
v 0.022750 0.005750 -0.016000
v 0.023750 0.006863 -0.016000
v 0.024750 0.007714 -0.016000
v 0.025750 0.008381 -0.016000
v 0.026750 0.008907 -0.016000
v 0.027750 0.009315 -0.016000
v 0.028750 0.009621 -0.016000
v 0.029750 0.009833 -0.016000
v 0.030750 0.009959 -0.016000
v 0.031750 0.010000 -0.016000
v 0.032750 0.009959 -0.016000
v 0.033750 0.009833 -0.016000
v 0.034750 0.009621 -0.016000
v 0.035750 0.009315 -0.016000
v 0.036750 0.008907 -0.016000
v 0.037750 0.008381 -0.016000
v 0.038750 0.007714 -0.016000
v 0.039750 0.006863 -0.016000
v 0.040750 0.005750 -0.016000
v 0.042750 0.000000 -0.016000
v 0.020750 0.000000 0.016000
v 0.021750 0.004166 0.016000
v 0.022750 0.005750 0.016000
v 0.023750 0.006863 0.016000
v 0.024750 0.007714 0.016000
v 0.025750 0.008381 0.016000
v 0.026750 0.008907 0.016000
v 0.027750 0.009315 0.016000
v 0.028750 0.009621 0.016000
v 0.029750 0.009833 0.016000
v 0.030750 0.009959 0.016000
v 0.031750 0.010000 0.016000
v 0.032750 0.009959 0.016000
v 0.033750 0.009833 0.016000
v 0.034750 0.009621 0.016000
v 0.035750 0.009315 0.016000
v 0.036750 0.008907 0.016000
v 0.037750 0.008381 0.016000
v 0.038750 0.007714 0.016000
v 0.039750 0.006863 0.016000
v 0.040750 0.005750 0.016000
v 0.042750 0.000000 0.016000
vn 0.0000 0.0000 -1.0000
vn -0.0000 0.0000 1.0000
vn -0.9724 0.2334 0.0000
vn -0.8455 0.5339 0.0000
vn -0.7441 0.6680 0.0000
vn -0.6478 0.7618 0.0000
vn -0.5552 0.8317 0.0000
vn -0.4654 0.8851 0.0000
vn -0.3779 0.9258 0.0000
vn -0.2922 0.9564 0.0000
vn -0.2078 0.9782 0.0000
vn -0.1243 0.9922 0.0000
vn -0.0414 0.9991 0.0000
vn 0.0414 0.9991 0.0000
vn 0.1243 0.9922 0.0000
vn 0.2078 0.9782 0.0000
vn 0.2922 0.9564 0.0000
vn 0.3779 0.9258 0.0000
vn 0.4654 0.8851 0.0000
vn 0.5552 0.8317 0.0000
vn 0.6478 0.7618 0.0000
vn 0.7441 0.6680 0.0000
vn 0.9445 0.3285 0.0000
vn 0.0000 -1.0000 0.0000
usemtl None
s off
f 28//7 29//7 30//7
f 33//8 32//8 31//8
f 31//9 10//9 9//9
f 32//10 11//10 10//10
f 33//11 12//11 11//11
f 34//12 13//12 12//12
f 35//13 14//13 13//13
f 36//14 15//14 14//14
f 37//15 16//15 15//15
f 38//16 17//16 16//16
f 39//17 18//17 17//17
f 40//18 19//18 18//18
f 41//19 20//19 19//19
f 42//20 21//20 20//20
f 43//21 22//21 21//21
f 44//22 23//22 22//22
f 45//23 24//23 23//23
f 46//24 25//24 24//24
f 47//25 26//25 25//25
f 48//26 27//26 26//26
f 49//27 28//27 27//27
f 50//28 29//28 28//28
f 51//29 30//29 29//29
f 30//30 31//30 9//30
f 30//7 9//7 20//7
f 9//7 10//7 11//7
f 12//7 9//7 11//7
f 12//7 13//7 9//7
f 13//7 14//7 9//7
f 14//7 15//7 9//7
f 15//7 16//7 9//7
f 16//7 17//7 9//7
f 17//7 18//7 9//7
f 18//7 19//7 9//7
f 19//7 20//7 9//7
f 20//7 21//7 30//7
f 21//7 22//7 30//7
f 22//7 23//7 30//7
f 23//7 24//7 30//7
f 24//7 25//7 30//7
f 25//7 26//7 30//7
f 26//7 27//7 30//7
f 27//7 28//7 30//7
f 31//8 52//8 42//8
f 52//8 51//8 50//8
f 49//8 52//8 50//8
f 49//8 48//8 52//8
f 48//8 47//8 52//8
f 47//8 46//8 52//8
f 46//8 45//8 52//8
f 45//8 44//8 52//8
f 44//8 43//8 52//8
f 43//8 42//8 52//8
f 42//8 41//8 31//8
f 41//8 40//8 31//8
f 40//8 39//8 31//8
f 39//8 38//8 31//8
f 38//8 37//8 31//8
f 37//8 36//8 31//8
f 36//8 35//8 31//8
f 35//8 34//8 31//8
f 34//8 33//8 31//8
f 31//9 32//9 10//9
f 32//10 33//10 11//10
f 33//11 34//11 12//11
f 34//12 35//12 13//12
f 35//13 36//13 14//13
f 36//14 37//14 15//14
f 37//15 38//15 16//15
f 38//16 39//16 17//16
f 39//17 40//17 18//17
f 40//18 41//18 19//18
f 41//19 42//19 20//19
f 42//20 43//20 21//20
f 43//21 44//21 22//21
f 44//22 45//22 23//22
f 45//23 46//23 24//23
f 46//24 47//24 25//24
f 47//25 48//25 26//25
f 48//26 49//26 27//26
f 49//27 50//27 28//27
f 50//28 51//28 29//28
f 51//29 52//29 30//29
f 30//30 52//30 31//30
o palm_joint_1
v -0.020750 0.000000 0.016000
v -0.021750 0.004166 0.016000
v -0.022750 0.005750 0.016000
v -0.023750 0.006863 0.016000
v -0.024750 0.007714 0.016000
v -0.025750 0.008381 0.016000
v -0.026750 0.008907 0.016000
v -0.027750 0.009315 0.016000
v -0.028750 0.009621 0.016000
v -0.029750 0.009833 0.016000
v -0.030750 0.009959 0.016000
v -0.031750 0.010000 0.016000
v -0.032750 0.009959 0.016000
v -0.033750 0.009833 0.016000
v -0.034750 0.009621 0.016000
v -0.035750 0.009315 0.016000
v -0.036750 0.008907 0.016000
v -0.037750 0.008381 0.016000
v -0.038750 0.007714 0.016000
v -0.039750 0.006863 0.016000
v -0.040750 0.005750 0.016000
v -0.042750 0.000000 0.016000
v -0.020750 0.000000 -0.016000
v -0.021750 0.004166 -0.016000
v -0.022750 0.005750 -0.016000
v -0.023750 0.006863 -0.016000
v -0.024750 0.007714 -0.016000
v -0.025750 0.008381 -0.016000
v -0.026750 0.008907 -0.016000
v -0.027750 0.009315 -0.016000
v -0.028750 0.009621 -0.016000
v -0.029750 0.009833 -0.016000
v -0.030750 0.009959 -0.016000
v -0.031750 0.010000 -0.016000
v -0.032750 0.009959 -0.016000
v -0.033750 0.009833 -0.016000
v -0.034750 0.009621 -0.016000
v -0.035750 0.009315 -0.016000
v -0.036750 0.008907 -0.016000
v -0.037750 0.008381 -0.016000
v -0.038750 0.007714 -0.016000
v -0.039750 0.006863 -0.016000
v -0.040750 0.005750 -0.016000
v -0.042750 0.000000 -0.016000
vn 0.0000 -0.0000 1.0000
vn 0.0000 -0.0000 -1.0000
vn 0.9724 0.2334 0.0000
vn 0.8455 0.5339 0.0000
vn 0.7441 0.6680 0.0000
vn 0.6478 0.7618 0.0000
vn 0.5552 0.8317 0.0000
vn 0.4654 0.8851 0.0000
vn 0.3779 0.9258 0.0000
vn 0.2922 0.9564 0.0000
vn 0.2078 0.9782 0.0000
vn 0.1243 0.9922 0.0000
vn 0.0414 0.9991 0.0000
vn -0.0414 0.9991 0.0000
vn -0.1243 0.9922 0.0000
vn -0.2078 0.9782 0.0000
vn -0.2922 0.9564 0.0000
vn -0.3779 0.9258 0.0000
vn -0.4654 0.8851 0.0000
vn -0.5552 0.8317 -0.0000
vn -0.6478 0.7618 -0.0000
vn -0.7441 0.6680 -0.0000
vn -0.9445 0.3285 0.0000
vn 0.0000 -1.0000 0.0000
usemtl None
s off
f 72//31 73//31 74//31
f 77//32 76//32 75//32
f 75//33 54//33 53//33
f 76//34 55//34 54//34
f 77//35 56//35 55//35
f 78//36 57//36 56//36
f 79//37 58//37 57//37
f 80//38 59//38 58//38
f 81//39 60//39 59//39
f 82//40 61//40 60//40
f 83//41 62//41 61//41
f 84//42 63//42 62//42
f 85//43 64//43 63//43
f 86//44 65//44 64//44
f 87//45 66//45 65//45
f 88//46 67//46 66//46
f 89//47 68//47 67//47
f 90//48 69//48 68//48
f 91//49 70//49 69//49
f 92//50 71//50 70//50
f 93//51 72//51 71//51
f 94//52 73//52 72//52
f 95//53 74//53 73//53
f 74//54 75//54 53//54
f 74//31 53//31 64//31
f 53//31 54//31 55//31
f 56//31 53//31 55//31
f 56//31 57//31 53//31
f 57//31 58//31 53//31
f 58//31 59//31 53//31
f 59//31 60//31 53//31
f 60//31 61//31 53//31
f 61//31 62//31 53//31
f 62//31 63//31 53//31
f 63//31 64//31 53//31
f 64//31 65//31 74//31
f 65//31 66//31 74//31
f 66//31 67//31 74//31
f 67//31 68//31 74//31
f 68//31 69//31 74//31
f 69//31 70//31 74//31
f 70//31 71//31 74//31
f 71//31 72//31 74//31
f 75//32 96//32 86//32
f 96//32 95//32 94//32
f 93//32 96//32 94//32
f 93//32 92//32 96//32
f 92//32 91//32 96//32
f 91//32 90//32 96//32
f 90//32 89//32 96//32
f 89//32 88//32 96//32
f 88//32 87//32 96//32
f 87//32 86//32 96//32
f 86//32 85//32 75//32
f 85//32 84//32 75//32
f 84//32 83//32 75//32
f 83//32 82//32 75//32
f 82//32 81//32 75//32
f 81//32 80//32 75//32
f 80//32 79//32 75//32
f 79//32 78//32 75//32
f 78//32 77//32 75//32
f 75//33 76//33 54//33
f 76//34 77//34 55//34
f 77//35 78//35 56//35
f 78//36 79//36 57//36
f 79//37 80//37 58//37
f 80//38 81//38 59//38
f 81//39 82//39 60//39
f 82//40 83//40 61//40
f 83//41 84//41 62//41
f 84//42 85//42 63//42
f 85//43 86//43 64//43
f 86//44 87//44 65//44
f 87//45 88//45 66//45
f 88//46 89//46 67//46
f 89//47 90//47 68//47
f 90//48 91//48 69//48
f 91//49 92//49 70//49
f 92//50 93//50 71//50
f 93//51 94//51 72//51
f 94//52 95//52 73//52
f 95//53 96//53 74//53
f 74//54 96//54 75//54
